<?xml version="1.0" encoding="utf-8"?>
<!-- Generator: Adobe Illustrator 22.0.0, SVG Export Plug-In . SVG Version: 6.00 Build 0)  -->
<svg version="1.1" id="Capa_1" xmlns="http://www.w3.org/2000/svg" xmlns:xlink="http://www.w3.org/1999/xlink" x="0px" y="0px"
	 viewBox="0 0 500 500" style="enable-background:new 0 0 500 500;" xml:space="preserve">
<style type="text/css">
	.st0{fill:#92E3A9;}
	.st1{opacity:0.7;}
	.st2{fill:#FFFFFF;}
	.st3{fill:none;stroke:#263238;stroke-miterlimit:10;}
	.st4{fill:none;stroke:#263238;stroke-linecap:round;stroke-linejoin:round;}
	.st5{fill:#FFFFFF;stroke:#263238;stroke-miterlimit:10;}
	.st6{fill:none;stroke:#92E3A9;stroke-miterlimit:10;}
	.st7{fill:#FFFFFF;stroke:#263238;stroke-linecap:round;stroke-linejoin:round;}
	.st8{fill:none;stroke:#92E3A9;stroke-linecap:round;stroke-linejoin:round;}
	.st9{fill:#263238;}
	.st10{clip-path:url(#SVGID_2_);}
	.st11{opacity:0.2;fill:#FFFFFF;enable-background:new    ;}
	.st12{opacity:0.3;enable-background:new    ;}
	.st13{clip-path:url(#SVGID_4_);}
	.st14{clip-path:url(#SVGID_6_);}
	.st15{opacity:0.25;fill:#FFFFFF;enable-background:new    ;}
	.st16{clip-path:url(#SVGID_8_);}
	.st17{clip-path:url(#SVGID_10_);}
	.st18{fill:#92E3A9;stroke:#263238;stroke-linecap:round;stroke-linejoin:round;}
	.st19{fill:#263238;stroke:#263238;stroke-linecap:round;stroke-linejoin:round;}
	.st20{fill:#FAFAFA;}
	.st21{fill:#455A64;}
	.st22{fill:#EBEBEB;stroke:#000000;stroke-miterlimit:10;}
	.st23{fill:none;stroke:#263238;stroke-linecap:round;stroke-linejoin:round;stroke-dasharray:1.9975,3.995;}
</style>
<g id="freepik--background-simple--inject-7">
	<path class="st0" d="M439.2,136.3c-22.7-34.5-65.9-54.9-107.6-51s-80.1,32-95.7,70.1c-8,19.4-10.5,41.3-22.4,58.7
		c-12.2,17.8-32.6,28.5-52.6,37.4s-41,17.1-56.7,32s-25,38.9-15.7,58.4c9.5,19.8,33.4,27.7,50.7,41.5s28.3,34.1,45.9,47.4
		c16.3,12.3,37.3,17.8,58,17.7s40.9-5.2,60.2-12.4c59.7-22.3,116-63.8,139.8-121.8C487.1,206.6,439.2,136.3,439.2,136.3z"/>
	<g class="st1">
		<path class="st2" d="M439.2,136.3c-22.7-34.5-65.9-54.9-107.6-51s-80.1,32-95.7,70.1c-8,19.4-10.5,41.3-22.4,58.7
			c-12.2,17.8-32.6,28.5-52.6,37.4s-41,17.1-56.7,32s-25,38.9-15.7,58.4c9.5,19.8,33.4,27.7,50.7,41.5s28.3,34.1,45.9,47.4
			c16.3,12.3,37.3,17.8,58,17.7s40.9-5.2,60.2-12.4c59.7-22.3,116-63.8,139.8-121.8C487.1,206.6,439.2,136.3,439.2,136.3z"/>
	</g>
</g>
<g id="freepik--Plant--inject-7">
	<path class="st0" d="M358.9,406.8c0,0,14.5-0.1,30.6-22.5c14-19.6-12.6-80.2-27.6-94.2s-44,62.2-40.7,81.5
		C326.1,399.2,346.8,406.1,358.9,406.8z"/>
	<path class="st3" d="M382.5,369.1l-22.3,22.2l2.3,56.5H355c-0.1-0.4,0.2-39.3,0.4-84.8l-17.1-16.4c1.3,0-1-2.2-1.3-2.4l18.5,12.8
		c0.1-28.4,0.3-51.3,0.3-51.3l1.7-2.1l0.9,30.4l15.8-11.4c-0.2,0.2-2.6,2.4-1.3,2.4l-14.4,14.3l1.3,43.7l24.4-17.5
		C383.9,365.9,380.6,369.1,382.5,369.1z"/>
	<path class="st0" d="M425.3,425.2c0,0,17.6-1.3,26.4-18c9.5-18.1-13.7-61-25.5-64.2c-13-3.5-33.5,30.8-29.3,57.4
		C399.8,418.6,417.1,424.7,425.3,425.2z"/>
	<path class="st3" d="M438.5,392.4l-12.3,9.8c-0.4-22.9-0.7-41.3-0.7-41.3l-1.5-1.7l-0.6,23.4v0.5l-10.4-8.2c0,0,1.7,1.7,0.8,1.7
		l9.5,10.3l-0.6,26.9l-15.8-12.4c0,0,2.4,2.4,1.1,2.4l14.5,15.7l-0.1,3.1l-0.1,3.4l-0.5,21.3l5.1-0.1c-0.1-6.8-0.2-14-0.3-21.2
		c-0.1-6.1-0.2-12.2-0.3-18.1c0-0.4,0-0.9,0-1.3l11.3-12.4C436.6,394.4,438.5,392.4,438.5,392.4z"/>
	<path class="st0" d="M403.3,438.4c-1.6-1.3-4.6-1.3-7.2-1.2c0.2-1.6,0.9-3.3,1.1-4.9c0.3-1.7-0.4-3.5-1.8-4.6
		c-2.8-2-7.8-1.2-11.8-0.1c0.5-3.9-3.6-7.7-9.1-8.3s-11.7,2.1-13.3,5.9c-2.2-2.1-6.7-3-10.4-2s-6.4,3.8-6.2,6.5
		c-2.9-0.2-6-0.3-8.4,0.9c-3.5,1.8-3.2,5.5-5.9,7.9c-1.8-0.3-3.6,0.3-4.7,1.7c-0.9,1.2-1.1,2.5-1.6,3.8c-1.1,2.6-4.8,2.9-8.4,4
		l88.8,0.7c1.9-0.6,3.6-1.9,3.5-3.4s-2.5-2.6-4.3-1.9C404.2,443.5,405.2,439.9,403.3,438.4z"/>
	<path class="st0" d="M443.2,442.2c-1-0.8-2.8-0.8-4.4-0.7c0.1-1,0.5-2,0.7-3c0.2-1.1-0.2-2.2-1.1-2.8c-1.7-1.2-4.8-0.8-7.2,0
		c0.3-2.4-2.2-4.7-5.6-5.1s-7.2,1.3-8.1,3.6c-1.4-1.3-4.1-1.8-6.4-1.2s-3.9,2.3-3.8,4c-1.8-0.1-3.7-0.2-5.2,0.5
		c-2.1,1.1-2,3.4-3.6,4.8c-1.1-0.2-2.2,0.2-2.9,1.1c-0.4,0.7-0.8,1.5-1,2.3c-0.7,1.6-3,1.8-5.1,2.5l54.5,0.5
		c1.2-0.4,2.2-1.2,2.1-2.1s-1.5-1.6-2.6-1.1C443.8,445.4,444.4,443.2,443.2,442.2z"/>
</g>
<g id="freepik--Clouds--inject-7">
	<path class="st4" d="M223.3,269.5c-7.4-5.1-17.6-3.2-22.7,4.2c-1.9,2.7-2.9,6-2.9,9.3v0.1c-1.9-2.5-5.5-2.9-8-1
		c-0.2,0.1-0.3,0.3-0.5,0.4c-0.7-7.1-7.1-12.2-14.1-11.4c-6.5,0.7-11.5,6.2-11.5,12.7c-1.7-1.2-4.2-0.8-5.4,0.9
		c-0.3,0.5-0.6,1-0.7,1.6h90.9c0-6.3-5.1-11.5-11.5-11.5c-2.7,0-5.4,1-7.5,2.8c-0.6-1.6-1.3-3.1-2.3-4.4"/>
	<path class="st4" d="M379.5,149.9c10.3-3.6,21.6,1.8,25.3,12.2c0.7,2.1,1.1,4.3,1.1,6.5v0.1c2.4-3,6.7-3.6,9.8-1.2
		c0.2,0.2,0.4,0.3,0.6,0.5c1-8.6,8.7-14.7,17.2-13.7c7.8,0.9,13.7,7.5,13.8,15.3c0.8-0.6,1.7-0.9,2.7-0.9c2.3,0,4.3,1.7,4.6,3.9
		H344.3c0-7.7,6.2-13.9,13.9-14c3.4,0,6.6,1.2,9.1,3.4c1-2.9,2.6-5.5,4.8-7.6"/>
	<path class="st5" d="M41,126.9h110.3c0-7.7-6.2-13.9-13.9-14c-3.4,0-6.6,1.2-9.1,3.4c-3.6-10.3-14.9-15.8-25.2-12.2
		c-8,2.8-13.3,10.3-13.3,18.7v0.1c-2.4-3-6.7-3.6-9.8-1.2c-0.2,0.2-0.4,0.3-0.6,0.5c-1-8.6-8.7-14.7-17.2-13.7
		c-7.8,0.9-13.7,7.5-13.8,15.3c-0.8-0.6-1.7-0.9-2.7-0.9C43.4,122.9,41.4,124.6,41,126.9z"/>
</g>
<g id="freepik--Buildings--inject-7">
	<line class="st6" x1="188" y1="165.9" x2="191.4" y2="187.2"/>
	<line class="st6" x1="175.1" y1="173.4" x2="189.3" y2="190.6"/>
	<line class="st6" x1="172.8" y1="188.1" x2="186.1" y2="193.3"/>
	<line class="st4" x1="105.3" y1="225.3" x2="105.3" y2="208.8"/>
	<rect x="66.5" y="213.1" class="st7" width="38.8" height="12.1"/>
	<line class="st4" x1="66.5" y1="225.3" x2="66.5" y2="208.8"/>
	<rect x="202.9" y="311.6" class="st7" width="78.4" height="136.5"/>
	<rect x="124.8" y="261" class="st7" width="78.4" height="187.1"/>
	<rect x="46.1" y="224.9" class="st7" width="78.4" height="223.2"/>
	<line class="st8" x1="109.8" y1="239" x2="109.8" y2="439.6"/>
	<line class="st8" x1="92.7" y1="239" x2="92.7" y2="439.6"/>
	<line class="st8" x1="75.6" y1="239" x2="75.6" y2="439.6"/>
	<line class="st8" x1="58.4" y1="239" x2="58.4" y2="439.6"/>
	<polyline class="st8" points="190.2,270.7 190.2,289.3 190.2,308 190.2,326.7 190.2,345.3 190.2,364 190.2,382.7 190.2,401.3 
		190.2,420 190.2,438.7 190.2,439 	"/>
	<polyline class="st8" points="173,270.7 173,289.3 173,308 173,326.7 173,345.3 173,364 173,382.7 173,401.3 173,420 173,438.7 
		173,439 	"/>
	<polyline class="st8" points="155.9,270.7 155.9,289.3 155.9,308 155.9,326.7 155.9,345.3 155.9,364 155.9,382.7 155.9,401.3 
		155.9,420 155.9,438.7 155.9,439 	"/>
	<polyline class="st8" points="138.8,270.7 138.8,289.3 138.8,308 138.8,326.7 138.8,345.3 138.8,364 138.8,382.7 138.8,401.3 
		138.8,420 138.8,438.7 138.8,439 	"/>
	<polyline class="st8" points="190.2,270.7 186.8,270.7 170.8,270.7 154.8,270.7 138.8,270.7 	"/>
	<polyline class="st8" points="190.2,289.3 186.8,289.3 170.8,289.3 154.8,289.3 138.8,289.3 	"/>
	<polyline class="st8" points="190.2,308 186.8,308 170.8,308 154.8,308 138.8,308 	"/>
	<polyline class="st8" points="190.2,326.7 186.8,326.7 170.8,326.7 154.8,326.7 138.8,326.7 	"/>
	<polyline class="st8" points="190.2,345.3 186.8,345.3 170.8,345.3 154.8,345.3 138.8,345.3 	"/>
	<polyline class="st8" points="190.2,364 186.8,364 170.8,364 154.8,364 138.8,364 	"/>
	<polyline class="st8" points="190.2,382.7 186.8,382.7 170.8,382.7 154.8,382.7 138.8,382.7 	"/>
	<polyline class="st8" points="190.2,401.3 186.8,401.3 170.8,401.3 154.8,401.3 138.8,401.3 	"/>
	<polyline class="st8" points="190.2,420 186.8,420 170.8,420 154.8,420 138.8,420 	"/>
	<polyline class="st8" points="190.2,438.7 186.8,438.7 170.8,438.7 154.8,438.7 138.8,438.7 	"/>
	<line class="st8" x1="273.6" y1="322.9" x2="214.4" y2="322.9"/>
	<line class="st8" x1="273.6" y1="341.5" x2="214.4" y2="341.5"/>
	<line class="st8" x1="273.6" y1="360.2" x2="214.4" y2="360.2"/>
	<line class="st8" x1="273.6" y1="378.9" x2="214.4" y2="378.9"/>
	<line class="st8" x1="273.6" y1="397.5" x2="214.4" y2="397.5"/>
	<line class="st8" x1="273.6" y1="416.2" x2="214.4" y2="416.2"/>
	<line class="st8" x1="273.6" y1="434.9" x2="214.4" y2="434.9"/>
</g>
<g id="freepik--Floor--inject-7">
	<polyline class="st4" points="454.6,448.7 418.8,448.7 414.6,448.7 41,448.7 	"/>
</g>
<g id="freepik--Character--inject-7">
	<path class="st9" d="M177.2,447.5c-0.5,0.3-4.4,0.4-9.3,0.5c-10,0.2-24.4,0.1-24.4,0.1s-0.8,0-1.1-3.9s1.6-7,1.8-8.6
		c1-7.5-1.6-10.6-1.6-11.1s14-0.9,14-0.9l4.6-0.3l-1,6.6c-0.1,0.4-0.1,0.8-0.1,1.1c-0.2,4.8,3.1,9.1,7.8,10.1h0.2l0,0
		c0.3-0.3,6-2.9,8.3,0.7C177.8,443.7,177.2,447.5,177.2,447.5z"/>
	<g>
		<defs>
			<path id="SVGID_1_" d="M177.2,447.5c-0.5,0.3-4.4,0.4-9.3,0.5c-10,0.2-24.4,0.1-24.4,0.1s-0.8,0-1.1-3.9s1.6-7,1.8-8.6
				c1-7.5-1.6-10.6-1.6-11.1s14-0.9,14-0.9l4.6-0.3l-1,6.6c-0.1,0.4-0.1,0.8-0.1,1.1c-0.2,4.8,3.1,9.1,7.8,10.1h0.2l0,0
				c0.3-0.3,6-2.9,8.3,0.7C177.8,443.7,177.2,447.5,177.2,447.5z"/>
		</defs>
		<clipPath id="SVGID_2_">
			<use xlink:href="#SVGID_1_"  style="overflow:visible;"/>
		</clipPath>
		<g class="st10">
			<path class="st11" d="M177.2,447.5c-0.5,0.3-4.4,0.4-9.3,0.5c-10,0.2-24.4,0.1-24.4,0.1s-0.8,0-1.1-3.9s1.6-7,1.8-8.6
				c1-7.5-1.6-10.6-1.6-11.1s14-0.9,14-0.9l4.6-0.3l-1,6.6c-0.1,0.4-0.1,0.8-0.1,1.1c-0.2,4.8,3.1,9.1,7.8,10.1h0.2l0,0
				c0.3-0.3,6-2.9,8.3,0.7C177.8,443.7,177.2,447.5,177.2,447.5z"/>
			<path class="st12" d="M167.9,448c-10,0.2-24.4,0.1-24.4,0.1s-0.8,0-1.1-3.9s1.6-7,1.8-8.6c1-7.5-1.6-10.6-1.6-11.1s14-0.9,14-0.9
				l4.6-0.3l-1,6.6c-0.1,0.4-0.1,0.8-0.1,1.1c-3.2,2.6-5.7,4.7-5.7,4.7S167.4,439.9,167.9,448z"/>
		</g>
	</g>
	<path class="st4" d="M177.2,447.5c-0.5,0.3-4.4,0.4-9.3,0.5c-10,0.2-24.4,0.1-24.4,0.1s-0.8,0-1.1-3.9s1.6-7,1.8-8.6
		c1-7.5-1.6-10.6-1.6-11.1s14-0.9,14-0.9l4.6-0.3l-1,6.6c-0.1,0.4-0.1,0.8-0.1,1.1c-0.2,4.8,3.1,9.1,7.8,10.1h0.2l0,0
		c0.3-0.3,6-2.9,8.3,0.7C177.8,443.7,177.2,447.5,177.2,447.5z"/>
	<path class="st0" d="M164.4,414.6c0.5,2.5,1.6,3.2,0.9,4.4c-0.1,0.2-0.2,0.4-0.3,0.6c-0.6,1.2-1.2,2.9-3.5,3.6
		c-2.7,0.8-15.8,1.5-18.6,1.1s-4.4-3-4.6-5.2s1.1-3.6,0.9-6.1s-2.1-3.2-2.3-4.9s1.5-4.1,1.5-5.8c0-3.5,0.1,0.3,0.8-19.7
		c0.4-11.4,3.1-13.9,0-26.8c-1.1-4.7-13.4-89.2-13.4-89.2l37.7,2.3c0,0,0.6,14.4,1.3,31.4c0.9,21.6,1.9,47.5,1.9,53.3
		c0.1,11.8-1,28.4-1.9,43.1c-0.4,6.3-1,10.6,0,13c0.1,0.3,0.2,0.5,0.2,0.8C165,412,163.9,412.1,164.4,414.6z"/>
	<g>
		<defs>
			<path id="SVGID_3_" d="M164.4,414.6c0.5,2.5,1.6,3.2,0.9,4.4c-0.1,0.2-0.2,0.4-0.3,0.6c-0.6,1.2-1.2,2.9-3.5,3.6
				c-2.7,0.8-15.8,1.5-18.6,1.1s-4.4-3-4.6-5.2s1.1-3.6,0.9-6.1s-2.1-3.2-2.3-4.9s1.5-4.1,1.5-5.8c0-3.5,0.1,0.3,0.8-19.7
				c0.4-11.4,3.1-13.9,0-26.8c-1.1-4.7-13.4-89.2-13.4-89.2l37.7,2.3c0,0,0.6,14.4,1.3,31.4c0.9,21.6,1.9,47.5,1.9,53.3
				c0.1,11.8-1,28.4-1.9,43.1c-0.4,6.3-1,10.6,0,13c0.1,0.3,0.2,0.5,0.2,0.8C165,412,163.9,412.1,164.4,414.6z"/>
		</defs>
		<clipPath id="SVGID_4_">
			<use xlink:href="#SVGID_3_"  style="overflow:visible;"/>
		</clipPath>
		<g class="st13">
			<path class="st12" d="M164.9,419.6c-0.6,1.2-1.2,2.9-3.5,3.6c-2.7,0.8-15.8,1.5-18.6,1.1s-4.4-3-4.6-5.2s1.1-3.6,0.9-6.1
				s-2.1-3.2-2.3-4.9s1.5-4.1,1.5-5.8c0-3.5,0.1,0.3,0.8-19.7c0.4-11.4,3.1-13.9,0-26.8c-1.1-4.7-13.4-89.2-13.4-89.2l37.8,2.3
				c0,0,0.6,14.4,1.3,31.4c-4.6,18.9-9.8,39.7-11.8,43.2l3.1,5.5c0,0-7.5,17.3-7.5,19.4s2.5,21.6,3.4,25.7s-3.4,1.2-3.4,4.6
				C148.5,401.7,148.1,417.1,164.9,419.6z"/>
		</g>
	</g>
	<path class="st4" d="M164.4,414.6c0.5,2.5,1.6,3.2,0.9,4.4c-0.1,0.2-0.2,0.4-0.3,0.6c-0.6,1.2-1.2,2.9-3.5,3.6
		c-2.7,0.8-15.8,1.5-18.6,1.1s-4.4-3-4.6-5.2s1.1-3.6,0.9-6.1s-2.1-3.2-2.3-4.9s1.5-4.1,1.5-5.8c0-3.5,0.1,0.3,0.8-19.7
		c0.4-11.4,3.1-13.9,0-26.8c-1.1-4.7-13.4-89.2-13.4-89.2l37.7,2.3c0,0,0.6,14.4,1.3,31.4c0.9,21.6,1.9,47.5,1.9,53.3
		c0.1,11.8-1,28.4-1.9,43.1c-0.4,6.3-1,10.6,0,13c0.1,0.3,0.2,0.5,0.2,0.8C165,412,163.9,412.1,164.4,414.6z"/>
	<path class="st4" d="M161.5,296.1c0,0-4.6,4-8.6,3.3"/>
	<path class="st4" d="M161,303.7c0,0-7.8-1.9-8.7-3.5"/>
	<path class="st4" d="M151,339.3c0,0,4.2,11,8.9,13.7"/>
	<path class="st4" d="M160.1,412.3c0,0-9.4,2.9-14,0.8s3.7,4.8,12.4,4.2"/>
	<path class="st4" d="M146.9,362.5c0,0,0.1,29.3,7.7,35.1"/>
	<path class="st4" d="M154.7,428c1.8-0.7,3.7-1.1,5.7-1.2"/>
	<path class="st4" d="M154.9,431.8c0,0,2.7-1,4.7-1.4"/>
	<line class="st4" x1="155.4" y1="435.5" x2="159.8" y2="434.2"/>
	<line class="st4" x1="157.5" y1="438.4" x2="161.1" y2="437"/>
	<line class="st4" x1="161.6" y1="441" x2="163.7" y2="439.4"/>
	<path class="st4" d="M155.6,424.4c0,0-0.4,10,2.8,13.3s6.5,3.4,6.2,4.6"/>
	<path class="st9" d="M126.8,423.3c0,0-14.1,0.3-14.2,0.9s2,3.7-0.3,11.1c-0.5,1.6-3,4.7-3.3,8.6s0.4,3.9,0.4,3.9s32,0.2,33.8-0.5
		c0,0,1.2-3.8,0.3-5.8c-1.8-3.8-8.4-0.7-8.2-0.7H135c-4.9-1.1-7.4-6-5.7-11.2l2.1-6.6L126.8,423.3z"/>
	<g>
		<defs>
			<path id="SVGID_5_" d="M126.8,423.3c0,0-14.1,0.3-14.2,0.9s2,3.7-0.3,11.1c-0.5,1.6-3,4.7-3.3,8.6s0.4,3.9,0.4,3.9
				s32,0.2,33.8-0.5c0,0,1.2-3.8,0.3-5.8c-1.8-3.8-8.4-0.7-8.2-0.7H135c-4.9-1.1-7.4-6-5.7-11.2l2.1-6.6L126.8,423.3z"/>
		</defs>
		<clipPath id="SVGID_6_">
			<use xlink:href="#SVGID_5_"  style="overflow:visible;"/>
		</clipPath>
		<g class="st14">
			<path class="st15" d="M126.8,423.3c0,0-14.1,0.3-14.2,0.9s2,3.7-0.3,11.1c-0.5,1.6-3,4.7-3.3,8.6s0.4,3.9,0.4,3.9
				s32,0.2,33.8-0.5c0,0,1.2-3.8,0.3-5.8c-1.8-3.8-8.4-0.7-8.2-0.7H135c-4.9-1.1-7.4-6-5.7-11.2l2.1-6.6L126.8,423.3z"/>
		</g>
	</g>
	<path class="st4" d="M126.8,423.3c0,0-14.1,0.3-14.2,0.9s2,3.7-0.3,11.1c-0.5,1.6-3,4.7-3.3,8.6s0.4,3.9,0.4,3.9s32,0.2,33.8-0.5
		c0,0,1.2-3.8,0.3-5.8c-1.8-3.8-8.4-0.7-8.2-0.7H135c-4.9-1.1-7.4-6-5.7-11.2l2.1-6.6L126.8,423.3z"/>
	<path class="st0" d="M160,268.8l-37.4-2.3c0,0-2.3,84.4-2,89.1c0.9,12.9-2.3,15.4-4.6,26.8c-4.1,20-3.6,16.1-4.1,19.6
		c-0.3,1.7-2.3,4.1-2.5,5.8s1.7,2.4,1.4,4.9s-1.7,3.9-1.9,6.1s0.9,4.9,3.7,5.2s16-0.4,18.8-1.1s3.6-3,4.6-4.2s-0.1-1.9-0.1-4.4
		s1.1-2.6,1.2-4.2c0-0.3,0-0.5-0.1-0.8c-0.6-2.4,0.8-6.7,2.2-13c3.4-14.7,7.3-31.2,9.3-43c1-5.9,4.5-32.2,7.4-54
		c0,0,2.8-4.5,4.2-13.1"/>
	<g>
		<defs>
			<path id="SVGID_7_" d="M160,268.8l-37.4-2.3c0,0-2.3,84.4-2,89.1c0.9,12.9-2.3,15.4-4.6,26.8c-4.1,20-3.6,16.1-4.1,19.6
				c-0.3,1.7-2.3,4.1-2.5,5.8s1.7,2.4,1.4,4.9s-1.7,3.9-1.9,6.1s0.9,4.9,3.7,5.2s16-0.4,18.8-1.1s3.6-3,4.6-4.2s-0.1-1.9-0.1-4.4
				s1.1-2.6,1.2-4.2c0-0.3,0-0.5-0.1-0.8c-0.6-2.4,0.8-6.7,2.2-13c3.4-14.7,7.3-31.2,9.3-43c1-5.9,4.5-32.2,7.4-54
				c0,0,2.8-4.5,4.2-13.1"/>
		</defs>
		<clipPath id="SVGID_8_">
			<use xlink:href="#SVGID_7_"  style="overflow:visible;"/>
		</clipPath>
		<g class="st16">
			<path class="st12" d="M122.5,269.5l-0.3,12.6c6.3,0.5,12.7,0.5,19,0c12.3-1.1,19.9-6.6,19.9-6.6l-1-6.7c0,0-14,3.8-20.9,3.2
				S125.7,270.7,122.5,269.5z"/>
		</g>
	</g>
	<path class="st4" d="M160,268.8l-37.4-2.3c0,0-2.3,84.4-2,89.1c0.9,12.9-2.3,15.4-4.6,26.8c-4.1,20-3.6,16.1-4.1,19.6
		c-0.3,1.7-2.3,4.1-2.5,5.8s1.7,2.4,1.4,4.9s-1.7,3.9-1.9,6.1s0.9,4.9,3.7,5.2s16-0.4,18.8-1.1s3.6-3,4.6-4.2s-0.1-1.9-0.1-4.4
		s1.1-2.6,1.2-4.2c0-0.3,0-0.5-0.1-0.8c-0.6-2.4,0.8-6.7,2.2-13c3.4-14.7,7.3-31.2,9.3-43c1-5.9,4.5-32.2,7.4-54
		c0,0,2.8-4.5,4.2-13.1"/>
	<path class="st4" d="M141.5,370.9c0,0-12.9,22-25.7,29.2"/>
	<path class="st4" d="M115.7,412.3l13.9,1.8c1,0.1,2.3,0.5,2.2,1.6s-1.2,1.5-2.1,1.9c-3.1,1.2-6.4,1.4-9.7,0.6"/>
	<path class="st4" d="M116.1,405.7c5,2.9,10.6,4.4,16.4,4.5"/>
	<path class="st4" d="M124.8,365.6c0,0,7,0.3,10.6,0c-2.7,3.7-7,5.3-11.2,5.5"/>
	<path class="st4" d="M130,277c0,0-1,35.9-1.4,50.9s-1,32.4-1,32.4c-0.7,1.1-0.9,2.4-0.6,3.6l0.6,1.8l-0.3,5.2
		c-0.8,1-1.2,2.2-0.9,3.5c0.5,1.9-3.4,15.1-3.4,15.1l-0.7,0.9c-1.4,1.7-1.8,4-1.1,6l0,0l-1.4,11.3l0,0c-1.5,1.3-1.9,3.5-0.9,5.2l0,0
		l-1.3,5.9l0,0c-1.4,1.2-1.7,3.1-0.8,4.7l0.2,0.3"/>
	<path class="st7" d="M194.7,210.7c-1,2.2-9.5,8-9.5,8c0-1,0.2-1.9,0.6-2.8c0.6-0.9,1-1.8,1.4-2.4c0.1-1.5-0.4-3-1.4-4.2
		c-1.2-1.3-2.1,1.9-2.6,4.1s-3.9,5.4-3.7,7c0.3,1.8,0.7,3.6,1.1,5.4c0,0-14.3,5-15.8,2c-3.3-6.4-7-12.7-11-18.8
		c-3.4,4.7-0.7,11.1,1.2,19.1s7.7,19.1,7.7,19.1c10.4-5,22.3-18,22.3-18s2.8-1.2,6.2-2.4s2.9-2.2,3.5-5.6s3.4-8,3.3-9.7
		S195.7,208.5,194.7,210.7z"/>
	<path class="st7" d="M161,227.6c-0.1,7.2,1.3,31.8,2.9,41.5l-42.4-1.1v-0.7c3.1-11.5,1.1-24-3.8-34.8c-2.6-5.8-3.8-13.1-5.1-20.1
		c-3.4-17.7,5.2-23.2,12.3-23.9c2.8-0.1,3-2,5-1.9c1.4,0.2,2.8,0,4.1-0.5c0.9,3.6,5.8,14.3,7.5,15.5c1.7,1.3,4,1.5,5.9,0.4
		c1.7-1.2,2.2-3.5,2.6-5.5c0.2-1.1,0.5-2.2,0.9-3.2c2.5,1.3,6.9,2.7,10.1,8.6c4,12.9,1.8,4.6,4.9,23.5
		C166.3,228.4,161,227.6,161,227.6z"/>
	<path class="st0" d="M154.3,194.1l-4.1-1.4c2.8,9.6,0.4,20.4-6.7,16.1s-9.8-16.6-11.9-22c-1.1-0.3-5.6-0.5-7.9,1.3
		c2.4,4.4,9,13.2,8.2,20.4c-0.9,8-7.2,15.1-18.9,7.1c1.6,12.1,6.7,20.9,7.7,25c3.6,15,1.2,17-0.5,31.9l0,0c17,8.7,37.6,4.4,46.6,1.7
		C164.1,259,165.3,221,154.3,194.1z"/>
	<g>
		<defs>
			<path id="SVGID_9_" d="M154.3,194.1l-4.1-1.4c2.8,9.6,0.4,20.4-6.7,16.1s-9.8-16.6-11.9-22c-1.1-0.3-5.6-0.5-7.9,1.3
				c2.4,4.4,9,13.2,8.2,20.4c-0.9,8-7.2,15.1-18.9,7.1c1.6,12.1,6.7,20.9,7.7,25c3.6,15,1.2,17-0.5,31.9l0,0
				c17,8.7,37.6,4.4,46.6,1.7C164.1,259,165.3,221,154.3,194.1z"/>
		</defs>
		<clipPath id="SVGID_10_">
			<use xlink:href="#SVGID_9_"  style="overflow:visible;"/>
		</clipPath>
		<g class="st17">
			<path class="st12" d="M128.4,257.8c0,0,27.7,12.1,31.7,0.4l0,0c-7.3,1.6-14.8,1.9-22.2,0.9L128.4,257.8"/>
			<path class="st12" d="M118.6,231.6l20.1-16c0,0,4,11-6.7,17.3C124.8,237.2,118.6,231.6,118.6,231.6z"/>
		</g>
	</g>
	<path class="st4" d="M154.3,194.1l-4.1-1.4c2.8,9.6,0.4,20.4-6.7,16.1s-9.8-16.6-11.9-22c-1.1-0.3-5.6-0.5-7.9,1.3
		c2.4,4.4,9,13.2,8.2,20.4c-0.9,8-7.2,15.1-18.9,7.1c1.6,12.1,6.7,20.9,7.7,25c3.6,15,1.2,17-0.5,31.9l0,0c17,8.7,37.6,4.4,46.6,1.7
		C164.1,259,165.3,221,154.3,194.1z"/>
	<path class="st4" d="M160.1,257.7c-0.4,1.5-1.4,2.8-2.8,3.5"/>
	<path class="st4" d="M152.8,262.3c-8.4,0.8-16.9-0.9-24.4-4.9"/>
	<path class="st9" d="M191.7,194.5l-8.7,23.1c-0.3,0.8-0.2,1.8,0.3,2.5l1.6,2.6c0.8,1.3,3.6,1.6,4.8,0.8c0.4-0.3,0.8-0.7,1-1.2
		l8.6-23.1c0.5-1.1,0.2-2.3-0.6-3.2l-2.7-2.6c-1-1-2.6-1-3.5,0c0,0-0.1,0.1-0.1,0.1C192,193.9,191.8,194.2,191.7,194.5z"/>
	<path class="st7" d="M113.1,200.7c0.2,3.5,1,6.8,2.5,10c4.2,9.9,20.1,34.6,23.6,36.3s39.2-17.5,41.7-20.2c1.5-1.7,1.9-4,1.1-6.1
		c0,0-0.1,2.5,2.1,2c1.3-0.3,0.2-4.4,0.2-4.4s2.4-1.7,0.1-4.9c0,0,3.3,0,3-2.5c-0.1-1-9.7-1.1-11.2,1.6c-1.8,3.4-3.6,12.1-3.6,12.1
		s-23.2,6-28.1,6.9L132,204.1"/>
	<path class="st7" d="M181.2,228.3c0.7-1.8,2-3.4,3.6-4.5c1.9-0.9,4.5-1.2,6.5-1.6c0,0,1.6-6.8,2.5-6.6c2.6,0.6,0.6,6.8,0.6,6.8"/>
	<path class="st4" d="M197.6,213.2c-0.7-0.7-1.8-0.8-2.6-0.1c-1.3,1.2-3.3,4.5-5.3,6.3"/>
	<path class="st4" d="M179,220.4c0.6-1.3,4.6-3.4,5.4-0.7"/>
	<path class="st4" d="M179,217c0,0,4.7-2.6,5.6,0.6"/>
	<path class="st4" d="M179.6,214c0,0,1.9-0.4,2.4-0.4c1.6-0.1,3.2-0.4,4.1-0.4"/>
	<path class="st18" d="M155.9,299.4c0,0-6.3-5.5-9.9-6.6"/>
	<path class="st4" d="M124.4,428.1c1.8-0.7,3.8-1.1,5.8-1.2"/>
	<path class="st4" d="M124.2,432c0,0,2.8-1,4.8-1.4"/>
	<line class="st4" x1="124.4" y1="435.6" x2="128.9" y2="434.3"/>
	<line class="st4" x1="126.3" y1="438.7" x2="130" y2="437.2"/>
	<line class="st4" x1="130.1" y1="441.3" x2="132.4" y2="439.6"/>
	<path class="st4" d="M125.6,424.4c0,0-1.2,10.2,1.7,13.5c2.9,3.3,6.2,3.4,5.8,4.7"/>
	<path class="st9" d="M149.8,192.3c0,0,4.2,16.4-2.6,17.7c-9.2,1.7-15.6-23.2-15.6-23.2l0,0c1.4-0.1,1.6-0.7,2.8-1.4
		C134.5,185.4,144.8,206,149.8,192.3z"/>
	<path class="st9" d="M121.8,189.1c0,0-9.7,1.9-9.7,16.3s6.3,26.3,6.3,26.3s7.5-0.6,12.3-4.1c10-7.3,8.4-11.4,8.4-11.4l-5.2-10.4
		c0,0-1.7-6.6-9.2-17.3L121.8,189.1z"/>
	<path class="st9" d="M154.9,194.7c5.3,14.9,5.5,20.5,6.4,27.4c0,0,5.1-1,5.9-2.1c0,0-2.5-12.2-5.2-18.5
		C160.4,197.4,158.1,196,154.9,194.7z"/>
	<path class="st7" d="M149.8,177.7c0,0-0.8,13.7-0.7,14.8c0.1,2.1,1.6,4.8,0.2,6.4c-1.6,1.5-3.9,1.8-5.8,0.9c-1.9-0.9-3.5-2.3-4.7-4
		c-2.4-2.9-4.4-6.1-6.1-9.4c1.1-1.1,2-2.5,2.4-4c0,0,0.3-1.2,0.3-1.2c0.3-2.8,0.3-5.7-0.1-8.5c-0.5-3.5-1.3-6.9-2.4-10.2
		L149.8,177.7z"/>
	<path class="st19" d="M135.6,190.8c2.4,0.8,4.7,1.7,6.9,2.9"/>
	<path class="st7" d="M133.5,144.6c0,0-8.5,4.9-4.1,17.6s14.2,26.9,23.1,25s11.2-19.6,6.5-31.4S142.4,137.5,133.5,144.6z"/>
	<path class="st9" d="M158.9,168.1c0.1,1-0.4,1.9-0.9,2s-1.1-0.8-1.1-1.8s0.3-1.9,0.9-1.9S158.9,167.1,158.9,168.1z"/>
	<path class="st9" d="M150.2,167.7c0.1,1-0.3,1.9-0.9,1.9s-1.1-0.8-1.1-1.8s0.3-1.9,0.9-2S150.2,166.6,150.2,167.7z"/>
	<path class="st19" d="M153.5,146.8c-5.7-5.6-13.5-7.3-19.7-2.3c0,0-8.5,4.9-4.1,17.6c1.1,3,2.4,6,3.9,8.8l0.2,0.1
		c0,0-2.8-2.8,8.3-8.9C145.7,160.1,151.1,147.3,153.5,146.8z"/>
	<path class="st19" d="M144.6,151c0,0,0.8-8.9,6.9-9.1c3.2-0.2,7.4,4.1,8,6.4c0.7,3.1,3.2,5.6,6.4,6.2l0,0c0,0-1.8,6-5.3,6.4
		c-5.7,0.7-8.7-0.6-12.4-5.7c-1-1.5-2.2-2.8-3.5-4.1L144.6,151z"/>
	<path class="st7" d="M135.4,168c0,0-3.4-6.9-6.4,0.7c-1.9,4.8,5.6,8.6,8.2,7.3"/>
	<path class="st4" d="M155.5,163.8c-1.2,1.3-1.6,3-1.3,4.7c0.3,1.8,0.9,3.6,1.8,5.1l-4.3,1.4"/>
	<path class="st4" d="M148,178.1c1.4,1.4,3.4,1.8,5.2,1.2"/>
	<path class="st4" d="M143.2,163.7c0,0,3-3.3,6.6-1.7"/>
	<path class="st4" d="M157.1,162.8c0,0,3.9-1.2,3.4,2.2"/>
	<path class="st19" d="M135.4,171.8c-0.7,0-1.4-0.4-1.6-1.1c-0.3-0.6-0.4-1.4-0.7-2c-0.2-0.7-0.9-1.1-1.6-1.1"/>
	<path class="st19" d="M147.8,144.4c-0.4-1.8-1.1-3.5-2-5.1c0,0,1.6-0.4,2.5-0.6C148.1,140.4,148,142.6,147.8,144.4z"/>
	<path class="st9" d="M149.5,186.8l0.1,3c-0.7,0.3-1.4,0.4-2.1,0.3c-3.8-0.4-7.7-9-7.9-9.5l0,0l0.1,0.1
		C144.2,185.7,147.5,186.8,149.5,186.8z"/>
</g>
<g id="freepik--Envelope--inject-7">
	<line class="st4" x1="279.3" y1="215.6" x2="304.5" y2="215.6"/>
	<line class="st4" x1="250.3" y1="215.6" x2="275.9" y2="215.6"/>
	<line class="st4" x1="236.6" y1="215.6" x2="244.5" y2="215.6"/>
	<line class="st4" x1="257.4" y1="229.3" x2="304.4" y2="229.3"/>
	<line class="st4" x1="244.5" y1="229.3" x2="250.3" y2="229.3"/>
	<line class="st4" x1="278.4" y1="243.1" x2="304.3" y2="243.1"/>
	<line class="st4" x1="252.4" y1="243.1" x2="274.6" y2="243.1"/>
	<line class="st4" x1="274.9" y1="256.8" x2="304.2" y2="256.8"/>
	<line class="st4" x1="260.3" y1="256.8" x2="270.7" y2="256.8"/>
	<line class="st4" x1="364.9" y1="215.1" x2="291.3" y2="215.1"/>
	<line class="st4" x1="229.6" y1="215.6" x2="211.1" y2="215.6"/>
	<g>
		<path class="st20" d="M309,211.3h141.2c12.7,0,23,10.3,23,23v2.4c0,12.7-10.3,23-23,23H309c-12.7,0-23-10.3-23-23v-2.4
			C286,221.6,296.3,211.3,309,211.3z"/>
		<path class="st9" d="M450.2,260.1H309c-12.9,0-23.4-10.5-23.4-23.4v-2.4c0-12.9,10.5-23.4,23.4-23.4h141.2
			c12.9,0,23.4,10.5,23.4,23.4v2.4C473.5,249.6,463.1,260.1,450.2,260.1z M309,211.7c-12.5,0-22.6,10.1-22.6,22.6v2.4
			c0,12.5,10.1,22.6,22.6,22.6h141.2c12.5,0,22.6-10.1,22.6-22.6v-2.4c0-12.5-10.1-22.6-22.6-22.6H309z"/>
		<circle class="st18" cx="309.2" cy="235.4" r="16.3"/>
		<path class="st2" d="M304.9,235.9v-4.7c0-0.9,0.7-1.6,1.6-1.6c0.3,0,0.6,0.1,0.8,0.2l4.1,2.4l4.1,2.4c0.8,0.4,1,1.4,0.6,2.2
			c-0.1,0.2-0.3,0.4-0.6,0.6l-4.1,2.4l-4.1,2.4c-0.8,0.4-1.7,0.2-2.2-0.6c-0.2-0.3-0.2-0.6-0.2-0.9V235.9z"/>
		<path class="st21" d="M343.4,246.3c-0.6,0-1.2-0.5-1.2-1.2v-18.5c0-0.6,0.5-1.2,1.2-1.2s1.2,0.5,1.2,1.2v18.5
			C344.5,245.7,344,246.3,343.4,246.3z"/>
		<path class="st21" d="M337.3,243.4c-0.6,0-1.2-0.5-1.2-1.2v-12.7c0-0.6,0.5-1.2,1.2-1.2s1.2,0.5,1.2,1.2v12.7
			C338.5,242.9,338,243.4,337.3,243.4z"/>
		<path class="st21" d="M416.1,246.3c-0.6,0-1.2-0.5-1.2-1.2v-18.5c0-0.6,0.5-1.2,1.2-1.2s1.2,0.5,1.2,1.2v18.5
			C417.2,245.7,416.7,246.3,416.1,246.3z"/>
		<path class="st21" d="M410,243.4c-0.6,0-1.2-0.5-1.2-1.2v-12.7c0-0.6,0.5-1.2,1.2-1.2s1.2,0.5,1.2,1.2v12.7
			C411.2,242.9,410.7,243.4,410,243.4z"/>
		<path class="st21" d="M422.1,243.4c-0.6,0-1.2-0.5-1.2-1.2v-12.7c0-0.6,0.5-1.2,1.2-1.2c0.6,0,1.2,0.5,1.2,1.2v12.7
			C423.3,242.9,422.7,243.4,422.1,243.4z"/>
		<path class="st21" d="M428.2,240.8c-0.6,0-1.2-0.5-1.2-1.2v-7.5c0-0.6,0.5-1.2,1.2-1.2c0.6,0,1.2,0.5,1.2,1.2v7.5
			C429.3,240.3,428.8,240.8,428.2,240.8z"/>
		<path class="st21" d="M440.1,246.3c-0.6,0-1.2-0.5-1.2-1.2v-18.5c0-0.6,0.5-1.2,1.2-1.2c0.6,0,1.2,0.5,1.2,1.2v18.5
			C441.3,245.7,440.7,246.3,440.1,246.3z"/>
		<path class="st21" d="M434.1,243.4c-0.6,0-1.2-0.5-1.2-1.2v-12.7c0-0.6,0.5-1.2,1.2-1.2c0.6,0,1.2,0.5,1.2,1.2v12.7
			C435.2,242.9,434.7,243.4,434.1,243.4z"/>
		<path class="st21" d="M446.2,243.4c-0.6,0-1.2-0.5-1.2-1.2v-12.7c0-0.6,0.5-1.2,1.2-1.2s1.2,0.5,1.2,1.2v12.7
			C447.3,242.9,446.8,243.4,446.2,243.4z"/>
		<path class="st21" d="M452.2,240.8c-0.6,0-1.2-0.5-1.2-1.2v-7.5c0-0.6,0.5-1.2,1.2-1.2c0.6,0,1.2,0.5,1.2,1.2v7.5
			C453.4,240.3,452.9,240.8,452.2,240.8z"/>
		<path class="st21" d="M457.7,239.7c-0.6,0-1.2-0.5-1.2-1.2v-4.1c0-0.6,0.5-1.2,1.2-1.2s1.2,0.5,1.2,1.2v4.2
			C458.8,239.2,458.3,239.7,457.7,239.7z"/>
		<path class="st21" d="M367.6,246.1c-0.6,0-1.2-0.5-1.2-1.2v-18.2c0-0.6,0.5-1.2,1.2-1.2s1.2,0.5,1.2,1.2V245
			C368.8,245.6,368.3,246.1,367.6,246.1C367.6,246.1,367.6,246.1,367.6,246.1z"/>
		<path class="st21" d="M349.4,249c-0.6,0-1.2-0.5-1.2-1.2v-23.9c0-0.6,0.5-1.2,1.2-1.2s1.2,0.5,1.2,1.2l0,0v23.9
			C350.6,248.5,350.1,249,349.4,249z"/>
		<path class="st21" d="M355.5,253.8c-0.6,0-1.2-0.5-1.2-1.2v-33.6c0-0.6,0.5-1.2,1.2-1.2c0.6,0,1.2,0.5,1.2,1.2l0,0v33.6
			C356.6,253.3,356.1,253.8,355.5,253.8z"/>
		<path class="st21" d="M361.6,249c-0.6,0-1.2-0.5-1.2-1.2v-23.9c0-0.6,0.5-1.2,1.2-1.2c0.6,0,1.2,0.5,1.2,1.2l0,0v23.9
			C362.7,248.5,362.2,249,361.6,249z"/>
		<path class="st21" d="M379.7,246.3c-0.6,0-1.2-0.5-1.2-1.2v-18.5c0-0.6,0.5-1.2,1.2-1.2c0.6,0,1.2,0.5,1.2,1.2v18.5
			C380.9,245.7,380.4,246.3,379.7,246.3z"/>
		<path class="st21" d="M373.7,243.4c-0.6,0-1.2-0.5-1.2-1.2v-12.7c0-0.6,0.5-1.2,1.2-1.2c0.6,0,1.2,0.5,1.2,1.2v12.7
			C374.8,242.9,374.3,243.4,373.7,243.4z"/>
		<path class="st21" d="M403.9,246.1c-0.6,0-1.2-0.5-1.2-1.2v-18.2c0-0.6,0.5-1.2,1.2-1.2c0.6,0,1.2,0.5,1.2,1.2V245
			C405.1,245.6,404.6,246.1,403.9,246.1C404,246.1,403.9,246.1,403.9,246.1z"/>
		<path class="st21" d="M385.8,249c-0.6,0-1.2-0.5-1.2-1.2v-23.9c0-0.6,0.5-1.2,1.2-1.2s1.2,0.5,1.2,1.2l0,0v23.9
			C386.9,248.5,386.4,249,385.8,249z"/>
		<path class="st21" d="M391.8,253.8c-0.6,0-1.2-0.5-1.2-1.2v-33.6c0-0.6,0.5-1.2,1.2-1.2s1.2,0.5,1.2,1.2l0,0v33.6
			C393,253.3,392.5,253.8,391.8,253.8z"/>
		<path class="st21" d="M397.9,249c-0.6,0-1.2-0.5-1.2-1.2v-23.9c0-0.6,0.5-1.2,1.2-1.2c0.6,0,1.2,0.5,1.2,1.2l0,0v23.9
			C399,248.5,398.5,249,397.9,249z"/>
		<path class="st21" d="M331.3,241.5c-0.6,0-1.2-0.5-1.2-1.2v-9c0-0.6,0.5-1.2,1.2-1.2c0.6,0,1.2,0.5,1.2,1.2v9
			C332.4,241,331.9,241.5,331.3,241.5C331.3,241.5,331.3,241.5,331.3,241.5z"/>
	</g>
</g>
<g id="freepik--speech-bubble--inject-7">
	<circle class="st7" cx="283.1" cy="144.4" r="32.8"/>
	<path class="st22" d="M274,144.1v-9.6c0-1.8,1.5-3.2,3.2-3.2c0.6,0,1.1,0.2,1.6,0.4l8.3,4.8l8.3,4.8c1.5,0.9,2.1,2.9,1.2,4.4
		c-0.3,0.5-0.7,0.9-1.2,1.2l-8.3,4.8l-8.3,4.8c-1.5,0.9-3.5,0.4-4.4-1.2c-0.3-0.5-0.4-1-0.4-1.6V144.1z"/>
	<circle class="st18" cx="301.1" cy="119.3" r="9.2"/>
	<polygon class="st19" points="295.7,117.3 301.1,123.3 313.3,108.9 312.8,108.4 301.1,118.6 298,115.2 	"/>
</g>
<g id="freepik--paper-plane--inject-7">
	<polygon class="st18" points="372.5,56 372.5,71.7 415.6,38.5 	"/>
	<polygon class="st18" points="372.5,56 416.6,37.9 356.3,44.2 	"/>
	<polygon class="st18" points="377.7,59.2 398.5,74.6 416.6,37.9 	"/>
	<polygon class="st18" points="377.7,59.2 372.5,71.7 383.5,63.6 	"/>
	<path class="st4" d="M207.1,191.5c0.1-0.3,0.2-0.6,0.3-0.9"/>
	<path class="st23" d="M208.7,186.8c9.3-27.8,7.6-44.5,22.7-71.4c3-5.4,18.2-31.2,39.8-40.4c11.2-4.8,18.4,2.3,15.5,7.4
		c-6.5,11.2-30.1-2.2-6.5-15.5c21.9-12.3,68.6,11.7,90.5,4.8"/>
	<path class="st4" d="M372.5,71.1c0.3-0.1,0.6-0.3,0.9-0.4"/>
</g>
</svg>
