<?xml version="1.0" encoding="utf-8"?>
<!-- Generator: Adobe Illustrator 22.0.0, SVG Export Plug-In . SVG Version: 6.00 Build 0)  -->
<svg version="1.1" id="Capa_1" xmlns="http://www.w3.org/2000/svg" xmlns:xlink="http://www.w3.org/1999/xlink" x="0px" y="0px"
	 viewBox="0 0 1080 1080" style="enable-background:new 0 0 1080 1080;" xml:space="preserve">
<style type="text/css">
	.st0{fill:#9ACDA3;stroke:#363636;stroke-width:30;stroke-miterlimit:10;}
	.st1{fill:#C2D562;}
	.st2{fill:#353535;stroke:#353535;stroke-width:10;stroke-miterlimit:10;}
	.st3{fill:none;stroke:#363636;stroke-width:30;stroke-miterlimit:10;}
	.st4{fill:#C2D562;stroke:#353535;stroke-width:30;stroke-miterlimit:10;}
	.st5{fill:#363636;}
	.st6{fill:#353535;stroke:#353535;stroke-width:5;stroke-miterlimit:10;}
</style>
<g>
	<circle class="st0" cx="540" cy="540" r="450"/>
	<path class="st1" d="M681.6,592.8c0,78.2-63.4,141.6-141.6,141.6S398.4,671,398.4,592.8H681.6z"/>
	<g>
		<g>
			<path class="st2" d="M531.4,923h17.3c6.6,0,12-5.4,12-12V798.1c0-6.6-5.4-12-12-12h-17.3c-6.6,0-12,5.4-12,12V911
				C519.4,917.6,524.8,923,531.4,923z"/>
			<path class="st3" d="M710.1,598.3c6.8,0,12.2,5.8,11.7,12.5c-6.4,94.8-85.4,169.7-181.8,169.7s-175.4-74.9-181.8-169.7
				c-0.5-6.8,4.9-12.5,11.7-12.5H710.1z"/>
		</g>
		<path class="st4" d="M658.7,540H421.3c-6.6,0-12-5.4-12-12V324.7c0-44,36-80,80-80h101.4c44,0,80,36,80,80V528
			C670.7,534.6,665.3,540,658.7,540z"/>
		<path class="st2" d="M380,413.9h17.3c6.6,0,12-5.4,12-12v-44.5c0-6.6-5.4-12-12-12H380c-6.6,0-12,5.4-12,12v44.5
			C368,408.5,373.4,413.9,380,413.9z"/>
		<path class="st2" d="M682.7,413.9H700c6.6,0,12-5.4,12-12v-44.5c0-6.6-5.4-12-12-12h-17.3c-6.6,0-12,5.4-12,12v44.5
			C670.7,408.5,676.1,413.9,682.7,413.9z"/>
		<g>
			<g>
				<g>
					<g>
						<path class="st5" d="M445.8,380.7c0-21.2,17.2-38.4,38.4-38.4s38.4,17.2,38.4,38.4"/>
					</g>
				</g>
			</g>
			<g>
				<g>
					<g>
						<path class="st5" d="M557.3,380.7c0-21.2,17.2-38.4,38.4-38.4s38.4,17.2,38.4,38.4"/>
					</g>
				</g>
			</g>
		</g>
		<path class="st6" d="M537.9,253.2h4.1c6.6,0,12-5.4,12-12v-44.5c0-6.6-5.4-12-12-12h-4.1c-6.6,0-12,5.4-12,12v44.5
			C525.9,247.8,531.3,253.2,537.9,253.2z"/>
		<g>
			<g>
				<g>
					<circle class="st5" cx="538.7" cy="184.7" r="27.7"/>
				</g>
			</g>
		</g>
	</g>
</g>
</svg>
