<?xml version="1.0" encoding="utf-8"?>
<!-- Generator: Adobe Illustrator 22.0.0, SVG Export Plug-In . SVG Version: 6.00 Build 0)  -->
<svg version="1.1" id="Capa_1" xmlns="http://www.w3.org/2000/svg" xmlns:xlink="http://www.w3.org/1999/xlink" x="0px" y="0px"
	 viewBox="0 0 500 500" style="enable-background:new 0 0 500 500;" xml:space="preserve">
<style type="text/css">
	.st0{fill:#92E3A9;}
	.st1{opacity:0.8;fill:#FFFFFF;enable-background:new    ;}
	.st2{fill:none;stroke:#000000;stroke-miterlimit:10;stroke-dasharray:2;}
	.st3{fill:#263238;stroke:#263238;stroke-miterlimit:10;}
	.st4{opacity:0.3;}
	.st5{fill:none;stroke:#000000;stroke-linecap:round;stroke-miterlimit:10;}
	.st6{opacity:0.3;fill:none;stroke:#000000;stroke-linecap:round;stroke-miterlimit:10;enable-background:new    ;}
	.st7{fill:#FAFAFA;}
	.st8{fill:#263238;}
	.st9{fill:#455A64;}
	.st10{fill:#FFFFFF;}
	.st11{fill:#FFFFFF;stroke:#263238;stroke-miterlimit:10;}
	.st12{fill:#92E3A9;stroke:#263238;stroke-miterlimit:10;}
	.st13{fill:none;stroke:#263238;stroke-miterlimit:10;}
	.st14{fill:none;stroke:#263238;stroke-linecap:round;stroke-linejoin:round;}
	.st15{fill:#E0E0E0;}
	.st16{fill:#C2FA6B;}
</style>
<g id="freepik--background-simple--inject-233">
	<path class="st0" d="M30.6,158.9c0,0,19.2-81.4,95.1-120.9s166.3-22.7,240-11.1s120.5,68,115.5,135.6s-64.4,74-109.8,141.8
		s-47.7,93-120.8,124.2s-166.9-20.1-203-111S30.6,158.9,30.6,158.9z"/>
	<path class="st1" d="M30.6,158.9c0,0,19.2-81.4,95.1-120.9s166.3-22.7,240-11.1s120.5,68,115.5,135.6s-64.4,74-109.8,141.8
		s-47.7,93-120.8,124.2s-166.9-20.1-203-111S30.6,158.9,30.6,158.9z"/>
</g>
<g id="freepik--Graphics--inject-233">
	<polyline class="st2" points="89,199 244,220 130,100 	"/>
	<line class="st2" x1="245.1" y1="215.7" x2="375" y2="185"/>
	<path class="st3" d="M411,109.2L411,109.2c-11.6,0-21-9.4-21-21l0,0c0-11.6,9.4-21,21-21l0,0l0,0c11.6,0,21,9.4,21,21l0,0l0,0
		C432,99.8,422.6,109.2,411,109.2L411,109.2z"/>
	<path class="st0" d="M423,87.8c-0.2-6.2-5.4-11.1-11.6-10.9c-5.9,0.2-10.6,4.8-10.9,10.7c0,0.2,0,0.3,0,0.5c0,2,0.6,4,1.6,5.8l-2,6
		l6.3-2c5.5,3,12.3,1,15.3-4.4c0.9-1.6,1.4-3.5,1.4-5.4L423,87.8z M411.8,97.5c-1.9,0-3.7-0.5-5.2-1.6l-3.6,1.2l1.2-3.5
		c-1.2-1.6-1.8-3.5-1.8-5.5c0-0.3,0-0.6,0-0.9c0.5-5.2,5.2-9,10.4-8.5c4.6,0.5,8.1,4.1,8.5,8.7c0,0.2,0,0.5,0,0.7
		C421.2,93.3,417,97.5,411.8,97.5L411.8,97.5z"/>
	<path class="st0" d="M416.9,90.3c-0.3-0.1-1.6-0.8-1.9-0.9s-0.4-0.1-0.6,0.1c-0.3,0.4-0.6,0.7-0.9,1.1c-0.2,0.2-0.3,0.2-0.6,0.1
		c-0.8-0.3-1.6-0.8-2.2-1.4c-0.6-0.6-1.1-1.2-1.5-1.9c-0.2-0.3,0-0.4,0.1-0.6s0.3-0.3,0.4-0.5l0.1-0.1c0.1-0.1,0.1-0.2,0.2-0.3
		c0.1-0.1,0.1-0.3,0-0.5c-0.1-0.1-0.6-1.5-0.9-2s-0.5-0.4-0.6-0.4s-0.3,0-0.5,0c-0.3,0-0.5,0.1-0.7,0.3c-0.6,0.6-1,1.4-1,2.3
		c0,0.3,0.1,0.6,0.1,0.9c0.2,0.7,0.6,1.3,1,1.9c1.2,1.8,2.8,3.2,4.7,4.2c2.8,1.1,2.8,0.7,3.3,0.7c0.8-0.1,1.5-0.6,1.9-1.3
		c0.2-0.4,0.2-0.9,0.2-1.3C417.4,90.5,417.2,90.4,416.9,90.3z"/>
	<path class="st0" d="M427.3,254.4c0,0.8-0.6,1.4-1.4,1.4c-0.8,0-1.4-0.6-1.4-1.4c0-0.8,0.6-1.4,1.4-1.4S427.3,253.7,427.3,254.4
		C427.3,254.4,427.3,254.4,427.3,254.4"/>
	<g class="st4">
		<line class="st5" x1="50.8" y1="133.2" x2="50.8" y2="137.8"/>
		<line class="st5" x1="50.8" y1="140.2" x2="50.8" y2="144.8"/>
		<line class="st5" x1="45" y1="139" x2="49.6" y2="139"/>
		<line class="st5" x1="52" y1="139" x2="56.6" y2="139"/>
	</g>
	<g class="st4">
		<line class="st5" x1="174.8" y1="45.8" x2="174.8" y2="50.3"/>
		<line class="st5" x1="174.8" y1="52.8" x2="174.8" y2="57.3"/>
		<line class="st5" x1="169" y1="51.5" x2="173.6" y2="51.5"/>
		<line class="st5" x1="176" y1="51.5" x2="180.6" y2="51.5"/>
	</g>
	<g class="st4">
		<line class="st5" x1="340.3" y1="214.2" x2="340.3" y2="218.8"/>
		<line class="st5" x1="340.3" y1="221.2" x2="340.3" y2="225.8"/>
		<line class="st5" x1="334.5" y1="220" x2="339.1" y2="220"/>
		<line class="st5" x1="341.5" y1="220" x2="346.1" y2="220"/>
	</g>
	<g class="st4">
		<line class="st5" x1="449.1" y1="106.1" x2="449.1" y2="110.7"/>
		<line class="st5" x1="449.1" y1="113.1" x2="449.1" y2="117.7"/>
		<line class="st5" x1="443.4" y1="111.9" x2="447.9" y2="111.9"/>
		<line class="st5" x1="450.4" y1="111.9" x2="454.9" y2="111.9"/>
	</g>
	<g class="st4">
		<line class="st5" x1="141.3" y1="317.1" x2="141.3" y2="321.7"/>
		<line class="st5" x1="141.3" y1="324.1" x2="141.3" y2="328.7"/>
		<line class="st5" x1="135.5" y1="322.9" x2="140.1" y2="322.9"/>
		<line class="st5" x1="142.5" y1="322.9" x2="147.1" y2="322.9"/>
	</g>
	<path class="st6" d="M147,162.6c0,1.7-1.3,3-3,3s-3-1.3-3-3s1.3-3,3-3S147,161,147,162.6z"/>
	<path class="st6" d="M188,94.8c0,1.7-1.3,3-3,3s-3-1.3-3-3s1.3-3,3-3S188,93.1,188,94.8z"/>
	<path class="st6" d="M383.3,249.1c0,1.7-1.3,3-3,3s-3-1.3-3-3s1.3-3,3-3S383.3,247.4,383.3,249.1z"/>
	<path class="st6" d="M156.6,270.7c0,1.7-1.3,3-3,3s-3-1.3-3-3s1.3-3,3-3S156.6,269,156.6,270.7z"/>
	<path class="st6" d="M126.1,325.9c0,1.7-1.3,3-3,3s-3-1.3-3-3s1.3-3,3-3S126.1,324.2,126.1,325.9z"/>
	<circle class="st6" cx="429.5" cy="122.4" r="3"/>
	<path class="st6" d="M376.6,24c0,1.7-1.3,3-3,3s-3-1.3-3-3s1.3-3,3-3S376.6,22.3,376.6,24z"/>
	<path class="st3" d="M117.9,109.2L117.9,109.2c-11.6,0-21-9.4-21-21l0,0c0-11.6,9.4-21,21-21l0,0l0,0c11.6,0,21,9.4,21,21l0,0l0,0
		C138.9,99.8,129.5,109.2,117.9,109.2L117.9,109.2z"/>
	<path class="st0" d="M129.9,87.7c-0.2-6.2-5.4-11.1-11.6-10.9c-5.9,0.2-10.6,4.8-10.9,10.7c0,0.2,0,0.3,0,0.5c0,2,0.6,4,1.6,5.8
		l-2,6l6.3-2c5.5,3,12.3,1,15.3-4.4c0.9-1.6,1.4-3.5,1.4-5.4L129.9,87.7z M118.6,97.4c-1.9,0-3.7-0.5-5.2-1.6l-3.6,1.2l1.2-3.5
		c-1.2-1.6-1.8-3.5-1.8-5.5c0-0.3,0-0.6,0-0.9c0.5-5.2,5.2-9,10.4-8.5c4.6,0.5,8.1,4.1,8.5,8.7c0,0.2,0,0.5,0,0.7
		C128.1,93.2,123.8,97.4,118.6,97.4L118.6,97.4z"/>
	<path class="st0" d="M123.8,90.3c-0.3-0.1-1.6-0.8-1.9-0.9s-0.4-0.1-0.6,0.1c-0.3,0.4-0.6,0.7-0.9,1.1c-0.2,0.2-0.3,0.2-0.6,0.1
		c-0.8-0.3-1.6-0.8-2.2-1.4c-0.6-0.6-1.1-1.2-1.5-1.9c-0.2-0.3,0-0.4,0.1-0.6s0.3-0.3,0.4-0.5l0.1-0.1c0.1-0.1,0.1-0.2,0.2-0.3
		c0.1-0.1,0.1-0.3,0-0.5c-0.1-0.1-0.6-1.5-0.9-2s-0.5-0.4-0.6-0.4s-0.3,0-0.5,0c-0.3,0-0.5,0.1-0.7,0.3c-0.6,0.6-1,1.4-1,2.3
		c0,0.3,0.1,0.6,0.1,0.9c0.2,0.7,0.6,1.3,1,1.9c1.2,1.8,2.8,3.2,4.7,4.2c2.8,1.1,2.8,0.7,3.3,0.7c0.8-0.1,1.5-0.6,1.9-1.3
		c0.2-0.4,0.2-0.9,0.2-1.3C124.3,90.5,124.1,90.4,123.8,90.3z"/>
	<path class="st3" d="M75.2,219.3L75.2,219.3c-11.6,0-21-9.4-21-21l0,0c0-11.6,9.4-21,21-21l0,0l0,0c11.6,0,21,9.4,21,21l0,0l0,0
		C96.2,209.9,86.8,219.3,75.2,219.3L75.2,219.3z"/>
	<path class="st0" d="M87.3,197.9c-0.2-6.2-5.4-11.1-11.6-10.9c-5.9,0.2-10.6,4.8-10.9,10.7c0,0.2,0,0.3,0,0.5c0,2,0.6,4,1.6,5.8
		l-2,6l6.3-2c5.5,3,12.3,1,15.3-4.4c0.9-1.6,1.4-3.5,1.4-5.4L87.3,197.9z M76,207.6c-1.9,0-3.7-0.5-5.2-1.6l-3.6,1.2l1.2-3.5
		c-1.2-1.6-1.8-3.5-1.8-5.5c0-0.3,0-0.6,0-0.9c0.5-5.2,5.2-9,10.4-8.5c4.6,0.5,8.1,4.1,8.5,8.7c0,0.2,0,0.5,0,0.7
		C85.4,203.3,81.2,207.6,76,207.6L76,207.6z"/>
	<path class="st0" d="M81.2,200.4c-0.3-0.1-1.6-0.8-1.9-0.9c-0.3-0.1-0.4-0.1-0.6,0.1c-0.3,0.4-0.6,0.7-0.9,1.1
		c-0.2,0.2-0.3,0.2-0.6,0.1c-0.8-0.3-1.6-0.8-2.2-1.4c-0.6-0.6-1.1-1.2-1.5-1.9c-0.2-0.3,0-0.4,0.1-0.6s0.3-0.3,0.4-0.5l0.1-0.1
		c0.1-0.1,0.1-0.2,0.2-0.3c0.1-0.1,0.1-0.3,0-0.5c-0.1-0.1-0.6-1.5-0.9-2c-0.2-0.5-0.5-0.4-0.6-0.4s-0.3,0-0.5,0
		c-0.3,0-0.5,0.1-0.7,0.3c-0.6,0.6-1,1.4-1,2.3c0,0.3,0.1,0.6,0.1,0.9c0.2,0.7,0.6,1.3,1,1.9c1.2,1.8,2.8,3.2,4.7,4.1
		c2.8,1.1,2.8,0.7,3.3,0.7c0.8-0.1,1.5-0.6,1.9-1.3c0.2-0.4,0.2-0.9,0.2-1.3C81.6,200.6,81.5,200.5,81.2,200.4z"/>
	<path class="st3" d="M393.9,313.3L393.9,313.3c-11.6,0-21-9.4-21-21l0,0c0-11.6,9.4-21,21-21l0,0l0,0c11.6,0,21,9.4,21,21l0,0l0,0
		C414.9,303.9,405.5,313.3,393.9,313.3L393.9,313.3z"/>
	<path class="st0" d="M405.9,291.9c-0.2-6.2-5.4-11.1-11.6-10.9c-5.9,0.2-10.6,4.8-10.9,10.7c0,0.2,0,0.3,0,0.5c0,2,0.6,4,1.6,5.8
		l-2,6l6.3-2c5.5,3,12.3,1,15.3-4.4c0.9-1.6,1.4-3.5,1.4-5.4L405.9,291.9z M394.6,301.6c-1.9,0-3.7-0.5-5.2-1.6l-3.6,1.2l1.2-3.5
		c-1.2-1.6-1.8-3.5-1.8-5.5c0-0.3,0-0.6,0-0.9c0.5-5.2,5.2-9,10.4-8.5c4.6,0.5,8.1,4.1,8.5,8.7c0,0.2,0,0.5,0,0.7
		C404.1,297.4,399.8,301.6,394.6,301.6L394.6,301.6z"/>
	<path class="st0" d="M399.8,294.4c-0.3-0.1-1.6-0.8-1.9-0.9s-0.4-0.1-0.6,0.1c-0.3,0.4-0.6,0.7-0.9,1.1c-0.2,0.2-0.3,0.2-0.6,0.1
		c-0.8-0.3-1.6-0.8-2.2-1.4c-0.6-0.6-1.1-1.2-1.5-1.9c-0.2-0.3,0-0.4,0.1-0.6c0.1-0.1,0.3-0.3,0.4-0.5l0.1-0.1
		c0.1-0.1,0.1-0.2,0.2-0.3c0.1-0.1,0.1-0.3,0-0.5c-0.1-0.1-0.6-1.5-0.9-2c-0.2-0.5-0.5-0.5-0.6-0.5s-0.3,0-0.5,0
		c-0.3,0-0.5,0.1-0.7,0.3c-0.6,0.6-1,1.4-1,2.3c0,0.3,0.1,0.6,0.1,0.9c0.2,0.7,0.6,1.3,1,1.9c1.2,1.8,2.8,3.2,4.7,4.1
		c2.8,1.1,2.8,0.7,3.3,0.7c0.8-0.1,1.5-0.6,1.9-1.3c0.2-0.4,0.2-0.9,0.2-1.3C400.3,294.6,400.1,294.5,399.8,294.4z"/>
	<g>
		<path class="st7" d="M352,161.1h96.7c8.7,0,15.7,7,15.7,15.7v1.7c0,8.7-7,15.7-15.7,15.7H352c-8.7,0-15.7-7-15.7-15.7v-1.7
			C336.3,168.2,343.3,161.1,352,161.1z"/>
		<path class="st8" d="M448.7,194.5H352c-8.8,0-16-7.2-16-16v-1.7c0-8.8,7.2-16,16-16h96.7c8.8,0,16,7.2,16,16v1.7
			C464.7,187.4,457.5,194.5,448.7,194.5z M352,161.4c-8.5,0-15.5,6.9-15.5,15.5v1.7c0,8.5,6.9,15.5,15.5,15.5h96.7
			c8.5,0,15.5-6.9,15.5-15.5v-1.7c0-8.5-6.9-15.5-15.5-15.5H352z"/>
		<circle class="st9" cx="352.2" cy="177.7" r="11.2"/>
		<path class="st10" d="M349.3,178v-3.2c0-0.6,0.5-1.1,1.1-1.1c0.2,0,0.4,0.1,0.6,0.1l2.8,1.6l2.8,1.6c0.5,0.3,0.7,1,0.4,1.5
			c-0.1,0.2-0.2,0.3-0.4,0.4l-2.8,1.6l-2.8,1.6c-0.5,0.3-1.2,0.1-1.5-0.4c-0.1-0.2-0.2-0.4-0.1-0.6V178z"/>
		<path class="st9" d="M375.6,185.1c-0.4,0-0.8-0.4-0.8-0.8v-12.6c0-0.4,0.4-0.8,0.8-0.8s0.8,0.4,0.8,0.8v12.6
			C376.4,184.7,376,185.1,375.6,185.1z"/>
		<path class="st9" d="M371.4,183.1c-0.4,0-0.8-0.4-0.8-0.8v-8.7c0-0.4,0.4-0.8,0.8-0.8c0.4,0,0.8,0.4,0.8,0.8v8.7
			C372.2,182.7,371.9,183.1,371.4,183.1z"/>
		<path class="st9" d="M425.3,185.1c-0.4,0-0.8-0.4-0.8-0.8v-12.6c0-0.4,0.4-0.8,0.8-0.8c0.4,0,0.8,0.4,0.8,0.8v12.6
			C426.1,184.7,425.8,185.1,425.3,185.1z"/>
		<path class="st9" d="M421.2,183.1c-0.4,0-0.8-0.4-0.8-0.8v-8.7c0-0.4,0.4-0.8,0.8-0.8c0.4,0,0.8,0.4,0.8,0.8v8.7
			C422,182.7,421.6,183.1,421.2,183.1z"/>
		<path class="st9" d="M429.5,183.1c-0.4,0-0.8-0.4-0.8-0.8v-8.7c0-0.4,0.4-0.8,0.8-0.8s0.8,0.4,0.8,0.8v8.7
			C430.3,182.7,429.9,183.1,429.5,183.1z"/>
		<path class="st9" d="M433.6,181.3c-0.4,0-0.8-0.4-0.8-0.8v-5.1c0-0.4,0.4-0.8,0.8-0.8c0.4,0,0.8,0.4,0.8,0.8v5.1
			C434.4,181,434,181.3,433.6,181.3z"/>
		<path class="st9" d="M441.8,185.1c-0.4,0-0.8-0.4-0.8-0.8v-12.6c0-0.4,0.4-0.8,0.8-0.8c0.4,0,0.8,0.4,0.8,0.8v12.6
			C442.6,184.7,442.2,185.1,441.8,185.1z"/>
		<path class="st9" d="M437.6,183.1c-0.4,0-0.8-0.4-0.8-0.8v-8.7c0-0.4,0.4-0.8,0.8-0.8c0.4,0,0.8,0.4,0.8,0.8v8.7
			C438.4,182.7,438.1,183.1,437.6,183.1z"/>
		<path class="st9" d="M445.9,183.1c-0.4,0-0.8-0.4-0.8-0.8v-8.7c0-0.4,0.4-0.8,0.8-0.8c0.4,0,0.8,0.4,0.8,0.8v8.7
			C446.7,182.7,446.4,183.1,445.9,183.1z"/>
		<path class="st9" d="M450.1,181.3c-0.4,0-0.8-0.4-0.8-0.8v-5.1c0-0.4,0.4-0.8,0.8-0.8s0.8,0.4,0.8,0.8v5.1
			C450.9,181,450.5,181.3,450.1,181.3z"/>
		<path class="st9" d="M453.8,180.6c-0.4,0-0.8-0.4-0.8-0.8V177c0-0.4,0.4-0.8,0.8-0.8c0.4,0,0.8,0.4,0.8,0.8v2.8
			C454.6,180.3,454.3,180.6,453.8,180.6z"/>
		<path class="st9" d="M392.2,185c-0.4,0-0.8-0.4-0.8-0.8v-12.5c0-0.4,0.4-0.8,0.8-0.8c0.4,0,0.8,0.4,0.8,0.8v12.4
			C393,184.6,392.6,185,392.2,185C392.2,185,392.2,185,392.2,185z"/>
		<path class="st9" d="M379.7,186.9c-0.4,0-0.8-0.4-0.8-0.8v-16.4c0-0.4,0.4-0.8,0.8-0.8c0.4,0,0.8,0.4,0.8,0.8l0,0v16.4
			C380.5,186.6,380.2,186.9,379.7,186.9z"/>
		<path class="st9" d="M383.9,190.3c-0.4,0-0.8-0.4-0.8-0.8v-23c0-0.4,0.4-0.8,0.8-0.8c0.4,0,0.8,0.4,0.8,0.8l0,0v23
			C384.7,189.9,384.3,190.3,383.9,190.3z"/>
		<path class="st9" d="M388,186.9c-0.4,0-0.8-0.4-0.8-0.8v-16.4c0-0.4,0.4-0.8,0.8-0.8c0.4,0,0.8,0.4,0.8,0.8l0,0v16.4
			C388.8,186.6,388.5,186.9,388,186.9z"/>
		<path class="st9" d="M400.5,185.1c-0.4,0-0.8-0.4-0.8-0.8v-12.6c0-0.4,0.4-0.8,0.8-0.8c0.4,0,0.8,0.4,0.8,0.8v12.6
			C401.2,184.7,400.9,185.1,400.5,185.1z"/>
		<path class="st9" d="M396.3,183.1c-0.4,0-0.8-0.4-0.8-0.8v-8.7c0-0.4,0.4-0.8,0.8-0.8c0.4,0,0.8,0.4,0.8,0.8v8.7
			C397.1,182.7,396.7,183.1,396.3,183.1z"/>
		<path class="st9" d="M417,185c-0.4,0-0.8-0.4-0.8-0.8v-12.5c0-0.4,0.4-0.8,0.8-0.8c0.4,0,0.8,0.4,0.8,0.8v12.4
			C417.8,184.6,417.5,185,417,185C417,185,417,185,417,185z"/>
		<path class="st9" d="M404.6,186.9c-0.4,0-0.8-0.4-0.8-0.8v-16.4c0-0.4,0.4-0.8,0.8-0.8c0.4,0,0.8,0.4,0.8,0.8l0,0v16.4
			C405.4,186.6,405,186.9,404.6,186.9z"/>
		<path class="st9" d="M408.7,190.3c-0.4,0-0.8-0.4-0.8-0.8v-23c0-0.4,0.4-0.8,0.8-0.8c0.4,0,0.8,0.4,0.8,0.8l0,0v23
			C409.5,189.9,409.2,190.3,408.7,190.3z"/>
		<path class="st9" d="M412.9,186.9c-0.4,0-0.8-0.4-0.8-0.8v-16.4c0-0.4,0.4-0.8,0.8-0.8c0.4,0,0.8,0.4,0.8,0.8l0,0v16.4
			C413.7,186.6,413.3,186.9,412.9,186.9z"/>
		<path class="st9" d="M367.3,181.8c-0.4,0-0.8-0.4-0.8-0.8v-6.2c0-0.4,0.4-0.8,0.8-0.8c0.4,0,0.8,0.4,0.8,0.8v6.2
			C368.1,181.5,367.7,181.8,367.3,181.8C367.3,181.8,367.3,181.8,367.3,181.8z"/>
	</g>
</g>
<g id="freepik--Character--inject-233">
	<path class="st3" d="M211.5,283.5c0,0,4,79,6.5,109.5s7.5,50.5,7.5,50.5s-5,2-4.5,5l1,6c0,0-18,10.5-16,14.5
		c1.2,2.4,3.1,4.3,5.5,5.5H249c0,0,3-5,2.5-9.5s-4.5-14-4.5-17s4-2.5,2.5-6.5s-3.5-7-3.5-8.5s-3.5-128.5-3.5-128.5h9.5l15,132
		c-0.9,1.2-1.4,2.6-1.5,4c0,2,1.5,6,1.5,6v3l3.5,24.7h27c0.5-3.6,0-7.4-1.5-10.7c-2-3.7-4.6-7-7.5-10L286,444v-10c0,0,1-4,1.5-6.5
		s1-9,0-11s-0.5-86-0.5-86l0.5-45l-46-14.5L211.5,283.5z"/>
	<path class="st11" d="M242,144c0,0-11.5,1-20,12.5s-11,129-11,129h76.5c0,0-13.5-106.5-19.5-127S242,144,242,144z"/>
	<polygon class="st3" points="264.5,184.7 271.8,284.9 277.1,284.9 	"/>
	<ellipse class="st11" cx="243.8" cy="151.6" rx="14.8" ry="13.4"/>
	<path class="st3" d="M223.8,136.2c1,5,2.2,10,3.5,12.9c3.3,7.3,14.3,8.7,19.7,6s7.3-9.3,8.7-16c0.2-0.8,0.3-1.8,0.5-2.9H223.8z"/>
	<path class="st12" d="M224.3,186c0,0-3.7,67.7-4.3,86.3s-2.3,47-2.3,47c-8.9-0.9-17.7-3.2-26-6.7c-13-5.7-14.7-7-14.7-7l16.7-81
		l-24.3-2.7c4.8-13.6,11.1-26.7,18.7-39c12.3-19.7,22.3-27.3,29-31s11.3-6.3,11.3-6.3L224.3,186z"/>
	<path class="st12" d="M257,143c0,0,3.3,22,6.3,39S277,317.7,277,317.7l31.7-1c0.8-25.4-0.7-50.8-4.3-76c-6-40-13.7-62-19-74.3
		s-18.7-21.7-22.7-23.3S257,143,257,143z"/>
	<path class="st3" d="M287.5,201c0,0,8.5,40.5,9.5,56.5s1.7,27.5,1.7,27.5s4.3-21,2.3-39.5S287.5,201,287.5,201z"/>
	<path class="st3" d="M225.8,147.1c-2,1.1-5.1,2.9-8.8,4.9c-3.5,2-6.8,4.3-9.8,7c2.5,6.2,9.7,22.4,17.1,27l1.5-24.9V147.1z"/>
	<polygon class="st3" points="214,235.6 188.8,251.1 190.8,240.1 	"/>
	<line class="st13" x1="206.1" y1="189.4" x2="207" y2="185"/>
	<line class="st13" x1="201.3" y1="213.7" x2="205.2" y2="194.1"/>
	<path class="st11" d="M264,186c0,0,1.7-14,7-25.3s8.7-16.7,3-25.7s-22.7-19.7-40.3-15.3s-25,24-22.7,34s13.3,32.3,13.3,32.3
		s2.7-23.3,6-34.7s9.7-12,19.7-10s8.3,13.3,8.3,13.3L264,186z"/>
	<path class="st3" d="M218.1,115.9h5.2c1.3,0,2.3,1,2.3,2.3V133c0,1.3-1,2.3-2.3,2.3h-5.2c-1.3,0-2.3-1-2.3-2.3v-14.8
		C215.7,116.9,216.8,115.9,218.1,115.9z"/>
	<rect x="219.4" y="115.9" class="st11" width="2.6" height="19.5"/>
	<path class="st3" d="M261.9,115.9h5.2c1.3,0,2.3,1,2.3,2.3V133c0,1.3-1,2.3-2.3,2.3h-5.2c-1.3,0-2.3-1-2.3-2.3v-14.8
		C259.6,116.9,260.6,115.9,261.9,115.9z"/>
	<rect x="263.2" y="115.9" class="st11" width="2.6" height="19.5"/>
	<path class="st11" d="M224.3,117.7c0,0,2.7,20.7,6,28s14.3,8.7,19.7,6s7.3-9.3,8.7-16s1.7-23.3,1.7-23.3L228,113L224.3,117.7z"/>
	<polyline class="st13" points="245.8,126 246.6,138.2 240.4,138.4 	"/>
	<path class="st13" d="M237,140.3c0,0,6,3.4,14.3-0.5"/>
	<path class="st3" d="M225.3,96.5c0,0-4.4,1.7-5.8,9.9s4.3,16,4.3,16l8.9-3.9l-9.7,8.3c5.3,2.7,11.4,3.4,17.2,1.9
		c5.6-1.3,10.9-4,15.3-7.8l-1.2,5.8c3-0.1,5.8-1.9,7-4.6c2.4-4.8,5.3-14.3,1-23.5s-17.4-10.4-26.1-9c-5.3,1-10.3,3.6-14,7.5
		L225.3,96.5z"/>
	<path class="st3" d="M231.4,177.7h13.8c1.1,0,1.9,0.9,1.9,1.9v34.1c0,1.1-0.9,1.9-1.9,1.9h-13.8c-1.1,0-1.9-0.9-1.9-1.9v-34.1
		C229.4,178.6,230.3,177.7,231.4,177.7z"/>
	<path class="st11" d="M243.2,198.8c-3,0-5.9,0.3-5.9,0.3c1-0.8,2.1-1.5,3.3-2.1c2-0.9,4-1.5,6.1-1.8c1.4-0.2,2.4-1.4,2.2-2.8
		c0-0.4-0.2-0.7-0.4-1c-1-2-9.8-1.1-15,2.7c-1.5,1.1-2.9,2.5-4.1,4l-0.3-8.5c0,0-3.1,3.1-3.7,5.2c-0.5,1.6-1.5,8.7-1.9,11.9
		c-0.6,1-1.2,1.9-1.7,2.6c-2.7,4-10.7,3.8-10.7,3.8l-0.3,16.2l15.3-11c0,0,8.3-0.7,11.3-2s7.7-3,9-4.7s0.4-3.4,1-4.3
		c0.4-1.1,0.7-2.2,0.7-3.3c0.8-1.4,1.1-3,1-4.7C249,197,246.2,198.8,243.2,198.8z"/>
	<path class="st14" d="M248.3,204c0,0-3,0.7-6.7,1.3"/>
	<path class="st14" d="M247.7,207.3c0,0-4.8,2.3-6.3,3.2"/>
	<path class="st12" d="M183,216.3l33-5l1.3,23.7c0,0-24.3,8.7-36,10.7S163,238,165,229.3s12-25.3,12-25.3"/>
	<circle class="st3" cx="369.8" cy="409.8" r="64.8"/>
	<circle class="st11" cx="369.8" cy="409.8" r="55.3"/>
	<circle class="st11" cx="369.8" cy="409.8" r="6.8"/>
	<circle class="st3" cx="152.8" cy="409.8" r="64.8"/>
	<circle class="st11" cx="152.8" cy="409.8" r="55.3"/>
	<circle class="st11" cx="152.8" cy="409.8" r="6.8"/>
	<path class="st11" d="M285.5,378.5L285.5,378.5c1,0,1.8,0.8,1.9,1.8l1.6,35.5c0.1,1.9-1.4,3.5-3.3,3.6c-0.1,0-0.1,0-0.2,0l0,0
		c-1.9,0-3.5-1.5-3.5-3.5c0-0.1,0-0.1,0-0.2l1.6-35.5C283.7,379.3,284.5,378.5,285.5,378.5z"/>
	<rect x="275.6" y="375.6" class="st3" width="21.4" height="4.7"/>
	<circle class="st11" cx="286.3" cy="416.3" r="16.8"/>
	<path class="st11" d="M287.8,420.4l-115.7-81.2c-1.1-0.8-1.4-2.4-0.6-3.5c0.8-1.1,2.4-1.4,3.5-0.6l109.7,77l25.9-106.7
		c0.3-1.3,1.7-2.2,3-1.8s2.2,1.7,1.8,3L287.8,420.4z"/>
	<path class="st11" d="M287.5,419c-1.4,0.1-2.5-1-2.6-2.4s1-2.5,2.4-2.6l82.3-6.8c1.4-0.1,2.6,0.9,2.7,2.3c0.1,1.4-0.9,2.6-2.3,2.7
		l-82.2,6.8H287.5z"/>
	<path class="st11" d="M369.8,412.3c-0.8,0-1.5-0.4-2-1l-57.9-77.8c-1.7-2.2-4.2-3.6-7-3.7L177.9,325c-1.4-0.1-2.5-1.2-2.4-2.6
		c0.1-1.4,1.2-2.5,2.6-2.4l126.6,4.9c3.2,0.1,6.2,1.7,8.2,4.3l58.9,79.1c0.8,1.1,0.6,2.6-0.5,3.5c0,0,0,0,0,0
		C370.8,412.1,370.3,412.3,369.8,412.3z"/>
	<path class="st11" d="M152.9,411.8c-0.2,0-0.5,0-0.7-0.1c-1.3-0.4-2.1-1.7-1.7-3.1c0,0,0,0,0,0l29.8-107.7l-17.4-4.8
		c-1.3-0.3-2.2-1.7-1.9-3c0.3-1.3,1.6-2.2,2.9-1.9c0.1,0,0.1,0,0.2,0l18.4,5.1c2.2,0.6,3.5,2.9,2.9,5.1l-30,108.5
		C155,411,154,411.8,152.9,411.8z"/>
	<path class="st3" d="M166.3,292.5c0-3-2.4-5.4-5.4-5.4s-5.4,2.4-5.4,5.4c0,3,2.4,5.4,5.4,5.4C163.9,297.9,166.3,295.5,166.3,292.5
		L166.3,292.5z"/>
	<path class="st11" d="M186.8,300.7c0-3-2.4-5.4-5.4-5.4s-5.4,2.4-5.4,5.4c0,3,2.4,5.4,5.4,5.4C184.4,306.1,186.8,303.6,186.8,300.7
		L186.8,300.7z"/>
	<path class="st3" d="M309.5,297.3c0,0-24,2.7-25.5,6.7s2,5,4,5.5s27.7,1.2,39,0c4-0.4,9.5-11,9.5-16.5s-8.5-1-13,0.5
		S309.5,297.3,309.5,297.3z"/>
	<circle class="st11" cx="285.9" cy="416.3" r="6.8"/>
	<path class="st11" d="M285.5,454.9L285.5,454.9c-1,0-1.8-0.8-1.9-1.8l-1.6-35.5c-0.1-1.9,1.4-3.5,3.3-3.6c0.1,0,0.1,0,0.2,0l0,0
		c1.9,0,3.5,1.5,3.5,3.5c0,0.1,0,0.1,0,0.2l-1.6,35.5C287.4,454.1,286.5,454.9,285.5,454.9z"/>
	<rect x="274.1" y="453.1" class="st3" width="21.4" height="4.7"/>
	<path class="st11" d="M299.7,284c0,0-4,5-6.5,6.8c-2,1.4-3.3,3.6-3.4,6.1c0,1.9-0.6,9.9-0.6,10.4s0.5,1.1,2,1.2c1,0.1,2-0.1,3-0.5
		c0,0,3.4,0.9,5,1.2s3-0.5,4.4-1.9s5-6.4,8.1-10.4s3.7-10.3,3.7-10.3l-15.1-4.4L299.7,284z"/>
	<path class="st13" d="M294.1,308.1c0,0,0.3-4.8,0.6-7.3s2.6-6.8,2.6-6.8"/>
	<path class="st13" d="M296.7,308.7c0,0,1.7-6.8,2.2-9.2c0.4-1.7,1.2-3.3,2.2-4.8"/>
	<path class="st13" d="M299.1,309.3c0,0,2.8-4.7,3.7-6.8s2.8-6.4,2.8-6.4"/>
	<path class="st12" d="M286.3,196.3c0,0,14.3,52.3,14,66c-0.1,7.6-0.7,15.1-1.7,22.7c0,0,2.6-0.1,10,2.3c8.2,2.7,11,5,11,5
		s7.7-11.7,8-23.7s-6-39.3-13-56.7s-27.3-49.3-34-54"/>
</g>
<g id="freepik--Floor--inject-233">
	<line class="st13" x1="13" y1="474.5" x2="488" y2="474.5"/>
</g>
<g id="freepik--Device--inject-21">
	<path class="st8" d="M408.3,964.6l-140.7-0.6c-17-0.1-30.6-14-30.5-31c0,0,0,0,0,0l1.5-354.9c0-17,13.8-30.7,30.8-30.7c0,0,0,0,0,0
		l140.7,0.7c17,0.1,30.6,14,30.5,31c0,0,0,0,0,0l-1.5,354.9C439.1,950.9,425.3,964.6,408.3,964.6z"/>
	<path class="st10" d="M409.9,560.3l-27.3-0.1l-79.6-0.4h-9.6l-23.9-0.1c-11.9,0-21.5,9.6-21.6,21.5l-1.5,346.4
		c-0.1,11.9,9.5,21.6,21.4,21.7l140.4,0.6c11.9,0,21.5-9.6,21.6-21.5c0,0,0,0,0,0l1.5-346.4C431.4,570.1,421.8,560.4,409.9,560.3
		C409.9,560.3,409.9,560.3,409.9,560.3z"/>
	<path class="st15" d="M413.6,586.4c0,1-0.8,1.7-1.7,1.7c-1,0-1.7-0.8-1.7-1.7c0-1,0.8-1.7,1.7-1.7
		C412.9,584.7,413.6,585.4,413.6,586.4z"/>
	<path class="st15" d="M413.6,592.7c0,1-0.8,1.7-1.7,1.7c-1,0-1.7-0.8-1.7-1.7l0,0c0-1,0.8-1.7,1.7-1.7
		C412.8,590.9,413.6,591.7,413.6,592.7z"/>
	<path class="st15" d="M413.6,598.9c0,1-0.8,1.7-1.7,1.7c-1,0-1.7-0.8-1.7-1.7c0-1,0.8-1.7,1.7-1.7c0,0,0,0,0,0
		C412.8,597.2,413.6,598,413.6,598.9z"/>
	
		<ellipse transform="matrix(0.2309 -0.973 0.973 0.2309 -364.1278 722.6287)" class="st15" cx="275" cy="591.6" rx="11.5" ry="11.5"/>
	<path class="st15" d="M314.4,590.3h60.2c1.8,0,3.2,1.4,3.2,3.2v1.5c0,1.8-1.4,3.2-3.2,3.2h-60.2c-1.8,0-3.2-1.4-3.2-3.2v-1.5
		C311.2,591.8,312.6,590.3,314.4,590.3z"/>
</g>
<g id="freepik--voice-chat--inject-21">
	<path class="st7" d="M211.5,638h183.7c16.5,0,29.9,13.4,29.9,29.9v3.2c0,16.5-13.4,29.9-29.9,29.9H211.5
		c-16.5,0-29.9-13.4-29.9-29.9V668C181.5,651.4,194.9,638,211.5,638z"/>
	<path class="st8" d="M395.1,701.5H211.5c-16.8,0-30.4-13.6-30.4-30.4V668c0-16.8,13.6-30.4,30.4-30.4h183.7
		c16.8,0,30.4,13.6,30.4,30.4v3.2C425.5,687.9,411.9,701.5,395.1,701.5z M211.5,638.5c-16.2,0-29.4,13.2-29.4,29.4v3.2
		c0,16.2,13.2,29.4,29.4,29.4h183.7c16.2,0,29.4-13.2,29.4-29.4V668c0-16.2-13.2-29.4-29.4-29.4H211.5z"/>
	<path class="st16" d="M256.4,683c-0.8,0-1.5-0.7-1.5-1.5v-23c0-0.8,0.7-1.5,1.5-1.5s1.5,0.7,1.5,1.5v23
		C257.9,682.4,257.3,683,256.4,683z"/>
	<path class="st16" d="M249,679.5c-0.8,0-1.5-0.7-1.5-1.5v-15.8c0-0.8,0.7-1.5,1.5-1.5s1.5,0.7,1.5,1.5V678
		C250.5,678.8,249.8,679.5,249,679.5z"/>
	<path class="st16" d="M263.9,679.5c-0.8,0-1.5-0.7-1.5-1.5v-15.8c0-0.8,0.7-1.5,1.5-1.5s1.5,0.7,1.5,1.5V678
		C265.4,678.8,264.7,679.5,263.9,679.5z"/>
	<path class="st16" d="M271.4,676.2c-0.8,0-1.5-0.7-1.5-1.5v-9.3c0-0.8,0.7-1.5,1.5-1.5s1.5,0.7,1.5,1.5v9.3
		C272.9,675.5,272.2,676.2,271.4,676.2z"/>
	<path class="st16" d="M390.9,683c-0.8,0-1.5-0.7-1.5-1.5v-23c0-0.8,0.7-1.5,1.5-1.5s1.5,0.7,1.5,1.5v23
		C392.4,682.4,391.7,683,390.9,683z"/>
	<path class="st16" d="M383.4,679.5c-0.8,0-1.5-0.7-1.5-1.5v-15.8c0-0.8,0.7-1.5,1.5-1.5s1.5,0.7,1.5,1.5V678
		C384.9,678.8,384.2,679.5,383.4,679.5z"/>
	<path class="st16" d="M398.3,679.5c-0.8,0-1.5-0.7-1.5-1.5v-15.8c0-0.8,0.7-1.5,1.5-1.5s1.5,0.7,1.5,1.5V678
		C399.8,678.8,399.2,679.5,398.3,679.5z"/>
	<path class="st16" d="M405.8,676.2c-0.8,0-1.5-0.7-1.5-1.5v-9.3c0-0.8,0.7-1.5,1.5-1.5s1.5,0.7,1.5,1.5v9.3
		C407.3,675.5,406.6,676.2,405.8,676.2z"/>
	<path class="st16" d="M278.8,679.2c-0.8,0-1.5-0.7-1.5-1.5v-15.2c0-0.8,0.7-1.5,1.5-1.5s1.5,0.7,1.5,1.5v15.2
		C280.3,678.5,279.7,679.2,278.8,679.2z"/>
	<path class="st16" d="M286.3,682.5c-0.8,0-1.5-0.7-1.5-1.5v-21.8c0-0.8,0.7-1.5,1.5-1.5s1.5,0.7,1.5,1.5V681
		C287.8,681.8,287.1,682.5,286.3,682.5z"/>
	<path class="st16" d="M293.8,686.5c-0.8,0-1.5-0.7-1.5-1.5v-29.8c0-0.8,0.7-1.5,1.5-1.5s1.5,0.7,1.5,1.5V685
		C295.3,685.8,294.6,686.5,293.8,686.5z"/>
	<path class="st16" d="M301.2,682.7c-0.8,0-1.5-0.7-1.5-1.5V659c0-0.8,0.7-1.5,1.5-1.5s1.5,0.7,1.5,1.5v22.2
		C302.8,682,302.1,682.6,301.2,682.7C301.3,682.7,301.2,682.7,301.2,682.7z"/>
	<path class="st16" d="M308.7,679.1c-0.8,0-1.5-0.7-1.5-1.5v-15c0-0.8,0.7-1.5,1.5-1.5s1.5,0.7,1.5,1.5v15
		C310.2,678.4,309.5,679.1,308.7,679.1z"/>
	<path class="st16" d="M316.2,677.2c-0.8,0-1.5-0.7-1.5-1.5v-11.2c0-0.8,0.7-1.5,1.5-1.5s1.5,0.7,1.5,1.5v11.2
		C317.7,676.5,317,677.2,316.2,677.2C316.2,677.2,316.2,677.2,316.2,677.2z"/>
	<path class="st16" d="M323.6,682.9c-0.8,0-1.5-0.7-1.5-1.5v-22.7c0-0.8,0.7-1.5,1.5-1.5s1.5,0.7,1.5,1.5v22.7
		C325.1,682.2,324.5,682.9,323.6,682.9z"/>
	<path class="st16" d="M353.5,682.9c-0.8,0-1.5-0.7-1.5-1.5v-22.7c0-0.8,0.7-1.5,1.5-1.5s1.5,0.7,1.5,1.5v22.7
		C355,682.2,354.4,682.9,353.5,682.9z"/>
	<path class="st16" d="M331.1,686.5c-0.8,0-1.5-0.7-1.5-1.5v-29.8c0-0.8,0.7-1.5,1.5-1.5s1.5,0.7,1.5,1.5V685
		C332.6,685.8,331.9,686.5,331.1,686.5z"/>
	<path class="st16" d="M338.6,692.5c-0.8,0-1.5-0.7-1.5-1.5v-41.8c0-0.8,0.7-1.5,1.5-1.5s1.5,0.7,1.5,1.5V691
		C340.1,691.8,339.4,692.5,338.6,692.5z"/>
	<path class="st16" d="M346,686.5c-0.8,0-1.5-0.7-1.5-1.5v-29.8c0-0.8,0.7-1.5,1.5-1.5s1.5,0.7,1.5,1.5V685
		C347.5,685.8,346.9,686.5,346,686.5z"/>
	<path class="st16" d="M361,677.2c-0.8,0-1.5-0.7-1.5-1.5v-11.2c0-0.8,0.7-1.5,1.5-1.5s1.5,0.7,1.5,1.5v11.2
		C362.5,676.5,361.9,677.2,361,677.2C361,677.2,361,677.2,361,677.2z"/>
	<path class="st16" d="M375.9,677.2c-0.8,0-1.5-0.7-1.5-1.5v-11.2c0-0.8,0.7-1.5,1.5-1.5s1.5,0.7,1.5,1.5v11.2
		C377.4,676.5,376.8,677.2,375.9,677.2C375.9,677.2,375.9,677.2,375.9,677.2z"/>
	<path class="st16" d="M368.5,675.3c-0.8,0-1.5-0.7-1.5-1.5v-7.5c0-0.8,0.7-1.5,1.5-1.5s1.5,0.7,1.5,1.5v7.5
		C370,674.6,369.3,675.3,368.5,675.3z"/>
	<path class="st16" d="M241.5,677.2c-0.8,0-1.5-0.7-1.5-1.5v-11.2c0-0.8,0.7-1.5,1.5-1.5s1.5,0.7,1.5,1.5v11.2
		C243,676.5,242.4,677.2,241.5,677.2C241.5,677.2,241.5,677.2,241.5,677.2z"/>
	
		<ellipse transform="matrix(0.1602 -0.9871 0.9871 0.1602 -482.897 771.2426)" class="st16" cx="211.8" cy="669.4" rx="21.2" ry="21.2"/>
	<path class="st10" d="M206.2,670.1v-6.2c0-1.2,0.9-2.1,2.1-2.1c0.4,0,0.7,0.1,1,0.3l5.4,3.1l5.4,3.1c1,0.6,1.3,1.8,0.8,2.8
		c-0.2,0.3-0.5,0.6-0.8,0.8l-5.4,3.1l-5.4,3.1c-1,0.6-2.3,0.2-2.9-0.8c-0.2-0.3-0.3-0.7-0.3-1L206.2,670.1z"/>
	<path class="st7" d="M224,814.3h183.7c16.5,0,29.9,13.4,29.9,29.9v3.2c0,16.5-13.4,29.9-29.9,29.9H224c-16.5,0-29.9-13.4-29.9-29.9
		v-3.2C194,827.7,207.4,814.3,224,814.3z"/>
	<path class="st8" d="M407.6,877.8H224c-16.8,0-30.4-13.6-30.4-30.4v-3.2c0-16.8,13.6-30.4,30.4-30.4h183.7
		c16.8,0,30.4,13.6,30.4,30.4v3.2C438,864.2,424.4,877.8,407.6,877.8z M224,814.8c-16.2,0-29.4,13.2-29.4,29.4v3.2
		c0,16.2,13.2,29.4,29.4,29.4h183.7c16.2,0,29.4-13.2,29.4-29.4v-3.2c0-16.2-13.2-29.4-29.4-29.4H224z"/>
	<path class="st16" d="M268.9,859.3c-0.8,0-1.5-0.7-1.5-1.5v-23c0-0.8,0.7-1.5,1.5-1.5s1.5,0.7,1.5,1.5v23
		C270.4,858.6,269.8,859.3,268.9,859.3z"/>
	<path class="st16" d="M261.5,855.7c-0.8,0-1.5-0.7-1.5-1.5v-15.8c0-0.8,0.7-1.5,1.5-1.5s1.5,0.7,1.5,1.5v15.8
		C263,855.1,262.3,855.7,261.5,855.7z"/>
	<path class="st16" d="M276.4,855.7c-0.8,0-1.5-0.7-1.5-1.5v-15.8c0-0.8,0.7-1.5,1.5-1.5s1.5,0.7,1.5,1.5v15.8
		C277.9,855.1,277.2,855.7,276.4,855.7z"/>
	<path class="st16" d="M283.9,852.5c-0.8,0-1.5-0.7-1.5-1.5v-9.4c0-0.8,0.7-1.5,1.5-1.5s1.5,0.7,1.5,1.5v9.3
		C285.4,851.8,284.7,852.5,283.9,852.5C283.9,852.5,283.9,852.5,283.9,852.5z"/>
	<path class="st15" d="M403.4,859.3c-0.8,0-1.5-0.7-1.5-1.5v-23c0-0.8,0.7-1.5,1.5-1.5s1.5,0.7,1.5,1.5v23
		C404.9,858.6,404.2,859.3,403.4,859.3z"/>
	<path class="st15" d="M395.9,855.7c-0.8,0-1.5-0.7-1.5-1.5v-15.8c0-0.8,0.7-1.5,1.5-1.5s1.5,0.7,1.5,1.5v15.8
		C397.4,855.1,396.7,855.7,395.9,855.7z"/>
	<path class="st15" d="M410.8,855.7c-0.8,0-1.5-0.7-1.5-1.5v-15.8c0-0.8,0.7-1.5,1.5-1.5s1.5,0.7,1.5,1.5v15.8
		C412.3,855.1,411.7,855.7,410.8,855.7z"/>
	<path class="st15" d="M418.3,852.5c-0.8,0-1.5-0.7-1.5-1.5v-9.4c0-0.8,0.7-1.5,1.5-1.5s1.5,0.7,1.5,1.5v9.3
		C419.8,851.8,419.2,852.5,418.3,852.5C418.3,852.5,418.3,852.5,418.3,852.5z"/>
	<path class="st16" d="M291.3,855.4c-0.8,0-1.5-0.7-1.5-1.5v-15.2c0-0.8,0.7-1.5,1.5-1.5s1.5,0.7,1.5,1.5v15.2
		C292.8,854.8,292.2,855.4,291.3,855.4z"/>
	<path class="st16" d="M298.8,858.8c-0.8,0-1.5-0.7-1.5-1.5v-21.8c0-0.8,0.7-1.5,1.5-1.5s1.5,0.7,1.5,1.5v21.8
		C300.3,858.1,299.6,858.8,298.8,858.8z"/>
	<path class="st16" d="M306.3,862.7c-0.8,0-1.5-0.7-1.5-1.5v-29.8c0-0.8,0.7-1.5,1.5-1.5s1.5,0.7,1.5,1.5v29.8
		C307.8,862.1,307.1,862.7,306.3,862.7z"/>
	<path class="st15" d="M313.7,858.9c-0.8,0-1.5-0.7-1.5-1.5v-22.2c0-0.8,0.7-1.5,1.5-1.5s1.5,0.7,1.5,1.5v22.2
		C315.2,858.2,314.6,858.9,313.7,858.9z"/>
	<path class="st15" d="M321.2,855.4c-0.8,0-1.5-0.7-1.5-1.5v-15c0-0.8,0.7-1.5,1.5-1.5s1.5,0.7,1.5,1.5v15
		C322.7,854.7,322,855.4,321.2,855.4z"/>
	<path class="st15" d="M328.7,853.4c-0.8,0-1.5-0.7-1.5-1.5v-11.2c0-0.8,0.7-1.5,1.5-1.5s1.5,0.7,1.5,1.5v11.2
		C330.2,852.8,329.5,853.4,328.7,853.4z"/>
	<path class="st15" d="M336.2,859.2c-0.8,0-1.5-0.7-1.5-1.5V835c0-0.8,0.7-1.5,1.5-1.5s1.5,0.7,1.5,1.5v22.6
		C337.7,858.5,337,859.2,336.2,859.2C336.2,859.2,336.2,859.2,336.2,859.2z"/>
	<path class="st15" d="M366,859.2c-0.8,0-1.5-0.7-1.5-1.5V835c0-0.8,0.7-1.5,1.5-1.5s1.5,0.7,1.5,1.5v22.6
		C367.5,858.5,366.9,859.2,366,859.2C366,859.2,366,859.2,366,859.2z"/>
	<path class="st15" d="M343.6,862.7c-0.8,0-1.5-0.7-1.5-1.5v-29.8c0-0.8,0.7-1.5,1.5-1.5s1.5,0.7,1.5,1.5v29.8
		C345.1,862.1,344.5,862.7,343.6,862.7z"/>
	<path class="st15" d="M351.1,868.8c-0.8,0-1.5-0.7-1.5-1.5v-41.8c0-0.8,0.7-1.5,1.5-1.5s1.5,0.7,1.5,1.5v41.8
		C352.6,868.1,351.9,868.8,351.1,868.8z"/>
	<path class="st15" d="M358.6,862.7c-0.8,0-1.5-0.7-1.5-1.5v-29.8c0-0.8,0.7-1.5,1.5-1.5s1.5,0.7,1.5,1.5v29.8
		C360.1,862.1,359.4,862.7,358.6,862.7z"/>
	<path class="st15" d="M373.5,853.4c-0.8,0-1.5-0.7-1.5-1.5v-11.2c0-0.8,0.7-1.5,1.5-1.5s1.5,0.7,1.5,1.5v11.2
		C375,852.8,374.3,853.4,373.5,853.4z"/>
	<path class="st15" d="M388.4,853.4c-0.8,0-1.5-0.7-1.5-1.5v-11.2c0-0.8,0.7-1.5,1.5-1.5s1.5,0.7,1.5,1.5v11.2
		C389.9,852.8,389.3,853.4,388.4,853.4z"/>
	<path class="st15" d="M381,851.6c-0.8,0-1.5-0.7-1.5-1.5v-7.4c0-0.8,0.7-1.5,1.5-1.5s1.5,0.7,1.5,1.5v7.5
		C382.4,850.9,381.8,851.6,381,851.6z"/>
	<path class="st16" d="M254,853.4c-0.8,0-1.5-0.7-1.5-1.5v-11.2c0-0.8,0.7-1.5,1.5-1.5s1.5,0.7,1.5,1.5v11.2
		C255.5,852.8,254.9,853.4,254,853.4z"/>
	<circle class="st16" cx="224.3" cy="845.7" r="21.2"/>
	<path class="st10" d="M218.7,846.3v-6.2c0-1.1,0.9-2.1,2.1-2.1c0.4,0,0.7,0.1,1.1,0.3l5.4,3.1l5.3,3.1c1,0.6,1.3,1.9,0.8,2.9
		c-0.2,0.3-0.4,0.6-0.8,0.8l-5.3,3.1l-5.4,3.1c-1,0.6-2.3,0.2-2.8-0.7c-0.2-0.3-0.3-0.7-0.3-1.1V846.3z"/>
</g>
</svg>
