<svg class="ani" id="freepik_stories-voice-chat" xmlns="http://www.w3.org/2000/svg" viewBox="0 0 750 500" version="1.1" xmlns:xlink="http://www.w3.org/1999/xlink" xmlns:svgjs="http://svgjs.com/svgjs"><style>svg#freepik_stories-voice-chat:not(.animated) .animable {opacity: 0;}svg#freepik_stories-voice-chat.animated #freepik--audio-file--inject-2 {animation: 1s 1 forwards cubic-bezier(.36,-0.01,.5,1.38) slideRight;animation-delay: 0s;}            @keyframes slideRight {                0% {                    opacity: 0;                    transform: translateX(30px);                }                100% {                    opacity: 1;                    transform: translateX(0);                }            }        </style><g id="freepik--background-simple--inject-2" class="animable" style="transform-origin: 366.233px 242.74px;"><path d="M648.44,196.17c-25.63-40.94-60.84-76.72-97.79-104.38-37.39-28-81.78-49-128.84-52.34A271.74,271.74,0,0,0,285.75,64.87C255,79.54,227.52,100,207.13,127.49c-3.27,4.41-5.29,8.9-7.49,14q-.57,1.34-1.11,2.67a234.92,234.92,0,0,0-12.48,41.5c-1.63,8.08-2.32,16.81-5.49,24.49-9.36,22.67-39.13,29.21-58,41.61C77.52,281.39,36.07,332.8,44.83,390l0,.2c8,51.22,29.93,56.55,29.93,56.55H662.16s27.94-43.24,26.61-124.4C688,277.22,672.21,234.16,648.44,196.17Z" style="fill: rgb(146, 227, 169); transform-origin: 366.233px 242.74px;" id="el7bym9bk0x" class="animable"></path><g id="ele7p1493fa4h"><path d="M648.44,196.17c-25.63-40.94-60.84-76.72-97.79-104.38-37.39-28-81.78-49-128.84-52.34A271.74,271.74,0,0,0,285.75,64.87C255,79.54,227.52,100,207.13,127.49c-3.27,4.41-5.29,8.9-7.49,14q-.57,1.34-1.11,2.67a234.92,234.92,0,0,0-12.48,41.5c-1.63,8.08-2.32,16.81-5.49,24.49-9.36,22.67-39.13,29.21-58,41.61C77.52,281.39,36.07,332.8,44.83,390l0,.2c8,51.22,29.93,56.55,29.93,56.55H662.16s27.94-43.24,26.61-124.4C688,277.22,672.21,234.16,648.44,196.17Z" style="fill: rgb(255, 255, 255); opacity: 0.7; transform-origin: 366.233px 242.74px;" class="animable"></path></g></g><g id="freepik--Icons--inject-2" class="animable" style="transform-origin: 369.615px 243.815px;"><polygon points="287.65 93.93 265.09 80.91 265.09 106.96 287.65 93.93" style="fill: none; stroke: rgb(38, 50, 56); stroke-miterlimit: 10; transform-origin: 276.37px 93.935px;" id="elcf0ufmw8sf" class="animable"></polygon><path d="M302.77,93.66a4.3,4.3,0,0,0-.19,1.25c0,.14,0,.28,0,.42h-7.52V93.66Z" style="fill: none; stroke: rgb(38, 50, 56); stroke-miterlimit: 10; transform-origin: 298.915px 94.495px;" id="elyb6u9usxwec" class="animable"></path><path d="M393.48,93.66v1.67H310.9c0-.14,0-.28,0-.42a4.3,4.3,0,0,0-.19-1.25Z" style="fill: none; stroke: rgb(38, 50, 56); stroke-miterlimit: 10; transform-origin: 352.095px 94.495px;" id="elbajxo1s6d74" class="animable"></path><path d="M310.92,94.91c0,.14,0,.28,0,.42a4.17,4.17,0,0,1-8.3,0c0-.14,0-.28,0-.42a4.3,4.3,0,0,1,.19-1.25,4.17,4.17,0,0,1,8,0A4.3,4.3,0,0,1,310.92,94.91Z" style="fill: none; stroke: rgb(38, 50, 56); stroke-miterlimit: 10; transform-origin: 306.774px 94.8802px;" id="el0ze6nymsp21n" class="animable"></path><polygon points="78.45 384.54 78.45 412.92 66.24 404.05 60.41 404.05 60.41 393.41 66.24 393.41 78.45 384.54" style="fill: none; stroke: rgb(38, 50, 56); stroke-miterlimit: 10; transform-origin: 69.43px 398.73px;" id="ele5mvsd9wspf" class="animable"></polygon><path d="M89.13,387.29a14.22,14.22,0,0,1-1,22.32" style="fill: none; stroke: rgb(38, 50, 56); stroke-linecap: round; stroke-linejoin: round; transform-origin: 91.0952px 398.45px;" id="el027fauz2n9zm" class="animable"></path><path d="M82.67,391.39a7.23,7.23,0,0,1,0,13.32" style="fill: none; stroke: rgb(38, 50, 56); stroke-linecap: round; stroke-linejoin: round; transform-origin: 84.8781px 398.05px;" id="elwip6cigrfcq" class="animable"></path><path d="M383.53,417.41a5.65,5.65,0,0,0,5.65-5.66V393.83a5.66,5.66,0,1,0-11.31,0v17.92A5.66,5.66,0,0,0,383.53,417.41Z" style="fill: none; stroke: rgb(38, 50, 56); stroke-miterlimit: 10; transform-origin: 383.525px 402.671px;" id="elzapgnfrkmu" class="animable"></path><path d="M393.57,411.48v-8.41a1,1,0,1,0-2.07,0v8.41a7.93,7.93,0,1,1-15.86,0v-8.41a1,1,0,1,0-2.06,0v8.41a10,10,0,0,0,9,9.94v9.29h-5.86a1,1,0,1,0,0,2.07h13.79a1,1,0,0,0,0-2.07h-5.86v-9.29A10,10,0,0,0,393.57,411.48Z" style="fill: none; stroke: rgb(38, 50, 56); stroke-miterlimit: 10; transform-origin: 383.575px 417.408px;" id="ellmibvg7d4z" class="animable"></path><path d="M482.1,77.13a22.28,22.28,0,1,1-22.28-22.28A22.26,22.26,0,0,1,482.1,77.13Z" style="fill: none; stroke: rgb(38, 50, 56); stroke-miterlimit: 10; transform-origin: 459.82px 77.13px;" id="ellh60yfk89sb" class="animable"></path><circle cx="459.82" cy="71.4" r="9.18" style="fill: none; stroke: rgb(38, 50, 56); stroke-miterlimit: 10; transform-origin: 459.82px 71.4px;" id="el1s92buzn2pa" class="animable"></circle><path d="M473.62,94.63a22.26,22.26,0,0,1-27.6,0,13.93,13.93,0,0,1,27.6,0Z" style="fill: none; stroke: rgb(38, 50, 56); stroke-miterlimit: 10; transform-origin: 459.82px 91.0111px;" id="elu098oy522x" class="animable"></path><path d="M626,398.81a19.44,19.44,0,1,1-19.43-19.43A19.4,19.4,0,0,1,626,398.81Z" style="fill: none; stroke: rgb(38, 50, 56); stroke-miterlimit: 10; transform-origin: 606.56px 398.82px;" id="els6kdmtiyti7" class="animable"></path><g id="elwi1gvkwcvha"><circle cx="606.54" cy="393.81" r="8" style="fill: none; stroke: rgb(38, 50, 56); stroke-miterlimit: 10; transform-origin: 606.54px 393.81px; transform: rotate(-45deg);" class="animable"></circle></g><path d="M618.58,414.07a19.43,19.43,0,0,1-24.08,0,12.16,12.16,0,0,1,24.08,0Z" style="fill: none; stroke: rgb(38, 50, 56); stroke-miterlimit: 10; transform-origin: 606.54px 410.932px;" id="ele8eb8sbq8y5" class="animable"></path><path d="M678.82,398.81a19.44,19.44,0,1,1-19.43-19.43A19.4,19.4,0,0,1,678.82,398.81Z" style="fill: none; stroke: rgb(38, 50, 56); stroke-miterlimit: 10; transform-origin: 659.38px 398.82px;" id="elfwian3fude5" class="animable"></path><g id="el9dt2g7pmr9m"><circle cx="659.39" cy="393.81" r="8" style="fill: none; stroke: rgb(38, 50, 56); stroke-miterlimit: 10; transform-origin: 659.39px 393.81px; transform: rotate(-76.67deg);" class="animable"></circle></g><path d="M671.43,414.07a19.43,19.43,0,0,1-24.08,0,12.16,12.16,0,0,1,24.08,0Z" style="fill: none; stroke: rgb(38, 50, 56); stroke-miterlimit: 10; transform-origin: 659.39px 410.932px;" id="eliqgd0ffuffq" class="animable"></path><path d="M104.59,186.34A19.43,19.43,0,1,1,85.16,166.9,19.41,19.41,0,0,1,104.59,186.34Z" style="fill: none; stroke: rgb(38, 50, 56); stroke-miterlimit: 10; transform-origin: 85.16px 186.33px;" id="el67o7qdnqnxo" class="animable"></path><g id="ellj6i52vrtgd"><circle cx="85.16" cy="181.34" r="8" style="fill: none; stroke: rgb(38, 50, 56); stroke-miterlimit: 10; transform-origin: 85.16px 181.34px; transform: rotate(-80.78deg);" class="animable"></circle></g><path d="M97.2,201.6a19.41,19.41,0,0,1-24.08,0,12.16,12.16,0,0,1,24.08,0Z" style="fill: none; stroke: rgb(38, 50, 56); stroke-miterlimit: 10; transform-origin: 85.16px 198.465px;" id="elzb7ofgt6qvs" class="animable"></path></g><g id="freepik--Floor--inject-2" class="animable" style="transform-origin: 372.54px 446.78px;"><line x1="683.23" y1="446.78" x2="709.02" y2="446.78" style="fill: none; stroke: rgb(38, 50, 56); stroke-miterlimit: 10; transform-origin: 696.125px 446.78px;" id="el0aoivz1lsxet" class="animable"></line><line x1="211.11" y1="446.78" x2="674.42" y2="446.78" style="fill: none; stroke: rgb(38, 50, 56); stroke-miterlimit: 10; transform-origin: 442.765px 446.78px;" id="el4m6ga1opgxi" class="animable"></line><line x1="36.06" y1="446.78" x2="200.54" y2="446.78" style="fill: none; stroke: rgb(38, 50, 56); stroke-miterlimit: 10; transform-origin: 118.3px 446.78px;" id="elra5mf5wiu3h" class="animable"></line></g><g id="freepik--Plants--inject-2" class="animable" style="transform-origin: 386.68px 298.223px;"><path d="M318.61,176.27c4.51,2,15.53,1.72,15.53,1.72s-2.36-7.22-2.57-7.65c-2.42-5.06-10.07-13.41-16.29-12.57-4.48.6-7,5.09-6,9.31S314.77,174.59,318.61,176.27Z" style="fill: rgb(38, 50, 56); transform-origin: 321.601px 167.857px;" id="elfifbdjj613b" class="animable"></path><path d="M322.41,208.19c4.68.68,14.51-2.17,15.29-2.41a133.23,133.23,0,0,0,6,16.51c1.35,3.13,2.81,6.24,4.31,9.34-.89-1.31-1.71-2.48-1.84-2.63-3.66-4.24-13.24-10.27-19-7.82-4.17,1.77-5.38,6.75-3.29,10.55s7.24,5.81,11.38,6.41,12.64-1.65,14.87-2.28c.58,1.19,1.16,2.38,1.75,3.56,2.85,5.67,5.72,11.31,8.36,16.94.93,2,1.78,4,2.63,5.95-.8-1.17-1.48-2.14-1.6-2.28-3.67-4.24-13.25-10.28-19-7.82a7.43,7.43,0,0,0-3.29,10.55c2.14,3.89,7.25,5.81,11.39,6.41s11.82-1.43,14.46-2.17c.81,2.06,1.63,4.12,2.32,6.15.45,1.4,1,2.71,1.34,4.14s.78,2.8,1.16,4.18c.64,2.68,1.33,5.44,1.89,8.08.4,1.82.75,3.57,1.11,5.34-.9-2-2.75-5.83-2.95-6.14-3-4.74-11.53-12.16-17.62-10.61a7.43,7.43,0,0,0-4.85,9.93c1.52,4.17,6.28,6.84,10.29,8.06,4.41,1.35,14.17.12,15.38,0,.59,2.91,1.13,5.76,1.6,8.45q.52,3,1,5.74h3.91c-.37-2-.77-4.19-1.22-6.43-.58-3-1.26-6.12-2-9.35a80.49,80.49,0,0,0,8.59-4c3.21,3.48,11.44,7.56,12.51,8.07-1.12,2.76-2.24,5.43-3.33,7.93-.58,1.33-1.14,2.58-1.7,3.82h4.14l1-2.37c1.15-2.8,2.32-5.8,3.49-8.9,1.18.24,10.85,2.21,15.35,1.19,4.08-.92,9-3.23,10.86-7.27s.19-8.83-4.1-10.27c-5.95-2-15,4.76-18.36,9.27-.2.27-2,3.39-3.12,5.38.48-1.27,1-2.49,1.42-3.81.95-2.58,1.82-5.2,2.77-8l1.24-4.16c.45-1.38.74-2.89,1.12-4.35.81-3.39,1.47-6.88,2.05-10.4,2.27.83,10.37,3.64,14.56,3.35s9.42-1.83,11.84-5.54,1.52-8.7-2.5-10.78c-5.58-2.87-15.58,2.43-19.56,6.39-.24.24-2.78,3.4-4.13,5.16.33-2.12.67-4.23.94-6.39.77-6.22,1.36-12.55,2-18.85.18-1.94.39-3.86.6-5.79.8.31,10.35,3.86,15,3.53,4.18-.29,9.42-1.82,11.84-5.54a7.43,7.43,0,0,0-2.5-10.77c-5.58-2.88-15.58,2.43-19.55,6.38-.3.3-3.94,4.85-4.81,6,.45-4.24.94-8.46,1.58-12.6A132.6,132.6,0,0,1,419,204.61c.38.14,10.33,3.9,15.15,3.56,4.17-.29,9.41-1.83,11.83-5.54s1.52-8.7-2.5-10.77c-5.58-2.88-15.58,2.42-19.55,6.38-.31.31-4.22,5.21-4.87,6.14.09-.31.15-.65.25-1a95.05,95.05,0,0,1,6.57-15.69c1.43-2.79,3-5.38,4.48-7.87,1.79.89,10,4.87,14.34,5,4.19.17,9.56-.78,12.37-4.21a7.43,7.43,0,0,0-1.29-11c-5.23-3.47-15.76.71-20.14,4.2-.24.19-2.45,2.39-4,4,.71-1.11,1.43-2.27,2.13-3.32,2.62-4,5.27-7.41,7.64-10.46,1.37-1.72,2.63-3.25,3.83-4.67,2.2,0,11.09-.31,15-2.13s8.13-5.1,9-9.44-1.71-8.66-6.21-9.14c-6.24-.67-13.66,7.88-15.94,13-.2.44-2.48,7.72-2.37,7.72h.14c-1.19,1.34-2.44,2.79-3.77,4.4-2.44,3-5.18,6.41-7.9,10.33a131.81,131.81,0,0,0-8.18,13,97.07,97.07,0,0,0-7,15.74c0,.07,0,.14-.05.2,0-1.84-.05-7-.1-7.38-.72-5.56-5.38-15.88-11.56-17-4.45-.82-8.21,2.66-8.57,7s2.84,8.84,6,11.63c3.52,3.14,13.29,6.19,14.07,6.43a133.45,133.45,0,0,0-4.13,17c-.6,3.36-1.09,6.77-1.55,10.18,0-1.59-.06-3-.08-3.21-.73-5.56-5.38-15.88-11.56-17-4.45-.82-8.21,2.66-8.57,7s2.84,8.84,6,11.63,11.45,5.59,13.65,6.29c-.16,1.32-.34,2.63-.5,3.94-.75,6.3-1.47,12.59-2.37,18.74-.32,2.16-.71,4.29-1.09,6.41,0-1.41-.05-2.6-.08-2.78-.72-5.56-5.38-15.88-11.55-17a7.43,7.43,0,0,0-8.57,7c-.36,4.41,2.84,8.83,6,11.62s10.65,5.32,13.26,6.17c-.46,2.17-.91,4.33-1.45,6.41-.41,1.41-.69,2.79-1.18,4.19s-.89,2.76-1.33,4.12c-.94,2.6-1.9,5.28-2.88,7.78-.67,1.75-1.34,3.4-2,5.07.34-2.15.92-6.38.93-6.74a28.92,28.92,0,0,0-3.87-14,9.14,9.14,0,0,0-.1-1.65,7.44,7.44,0,0,0-9.09-6.3c-6.06,1.62-9.91,12.27-10.2,17.86,0,.33.2,3.94.37,6.21-.3-1.32-.58-2.6-.91-4-.64-2.68-1.35-5.34-2.11-8.21-.41-1.37-.83-2.75-1.26-4.15s-1-2.81-1.46-4.24c-1.2-3.28-2.58-6.55-4-9.81,2.35-.56,10.66-2.68,14-5.24s6.84-6.72,6.81-11.15a7.43,7.43,0,0,0-8-7.61c-6.24.68-11.66,10.62-12.79,16.12-.07.34-.44,4.37-.6,6.59-.9-2-1.78-3.91-2.74-5.85-2.79-5.62-5.79-11.22-8.76-16.82-.91-1.72-1.79-3.44-2.69-5.15.84-.2,10.77-2.5,14.51-5.37,3.32-2.55,6.85-6.72,6.81-11.15a7.42,7.42,0,0,0-8-7.6c-6.24.67-11.66,10.62-12.79,16.11-.08.41-.61,6.21-.67,7.69-2-3.78-3.89-7.57-5.63-11.38a129.24,129.24,0,0,1-6.13-15.83c.39-.09,10.76-2.45,14.59-5.38,3.33-2.55,6.85-6.72,6.82-11.15s-3.53-8.1-8-7.61c-6.24.68-11.66,10.62-12.79,16.11-.09.43-.65,6.67-.67,7.81-.09-.31-.23-.63-.32-.94a95.94,95.94,0,0,1-3.18-16.71c-.35-3.12-.51-6.12-.6-9,2-.24,11-1.44,14.74-3.7,3.58-2.17,7.54-5.93,8-10.34a7.43,7.43,0,0,0-7.14-8.44c-6.28,0-12.75,9.28-14.48,14.61-.1.29-.73,3.34-1.15,5.57,0-1.32-.07-2.68-.06-3.94,0-4.75.3-9.1.6-12.94.19-2.19.4-4.16.62-6,1.82-1.25,9.08-6.37,11.31-10s4-8.73,2.33-12.85-6.21-6.28-10.22-4.21c-5.58,2.89-7.05,14.11-6.12,19.64.08.48,2.18,7.81,2.28,7.75l.11-.08c-.25,1.77-.49,3.68-.71,5.76-.39,3.85-.78,8.2-.89,13a131,131,0,0,0,.36,15.4,97.3,97.3,0,0,0,2.86,17,1.39,1.39,0,0,0,.06.19c-1-1.55-3.9-5.8-4.16-6.1-3.66-4.24-13.24-10.27-19-7.82-4.16,1.77-5.38,6.75-3.29,10.56S318.27,207.58,322.41,208.19Z" style="fill: rgb(38, 50, 56); transform-origin: 389.878px 218.032px;" id="elrode3un3gpk" class="animable"></path><path d="M430.07,178.69c.1.06,2-7.32,2.07-7.8.77-5.55-1-16.74-6.65-19.47-4.07-2-8.62.4-10.11,4.48s.41,9.27,2.68,12.79C420.73,172.81,430.06,178.69,430.07,178.69Z" style="fill: rgb(38, 50, 56); transform-origin: 423.581px 164.696px;" id="el8mx601k7ouf" class="animable"></path><path d="M553.36,384c-3.64.75-10.34,5.7-10.34,5.71s4.6,3.42,4.92,3.6c3.7,2.07,12.06,3.9,15.54.67a5.62,5.62,0,0,0-.37-8.35C560.59,383.42,556.47,383.37,553.36,384Z" style="fill: rgb(38, 50, 56); transform-origin: 554.09px 389.694px;" id="el2an9zmjtzqr" class="animable"></path><path d="M537.11,365.94c-3.19,1.61-8,7.66-8.4,8.14a100.64,100.64,0,0,0-10.88-7.6c-2.2-1.34-4.46-2.63-6.74-3.89,1.13.42,2.14.79,2.29.83,4.11,1,12.66.57,15.16-3.46a5.63,5.63,0,0,0-2.56-8c-3-1.47-7-.43-9.83,1s-7.09,6.52-8.19,7.88c-.88-.48-1.75-1-2.64-1.43-4.23-2.26-8.46-4.5-12.54-6.83-1.44-.82-2.83-1.68-4.22-2.53,1,.37,1.85.68,2,.71,4.12,1,12.67.58,15.17-3.45a5.62,5.62,0,0,0-2.57-8c-3-1.47-7-.43-9.83,1s-6.67,6-8,7.64c-1.39-.91-2.8-1.83-4.11-2.78-.88-.67-1.78-1.26-2.63-2L476,341.21c-1.56-1.38-3.19-2.79-4.68-4.17-1.05-1-2-1.88-3-2.82,1.43.84,4.25,2.4,4.5,2.51,3.91,1.63,12.42,2.49,15.51-1.12a5.62,5.62,0,0,0-1.33-8.25c-2.76-1.91-6.86-1.49-9.87-.5-3.31,1.09-8.8,6.1-9.49,6.73-1.63-1.55-3.2-3.07-4.66-4.53-1.09-1.07-2.12-2.12-3.1-3.12l-2.42,1.7q1.68,1.65,3.56,3.44c1.65,1.58,3.44,3.23,5.3,4.91a61.79,61.79,0,0,0-3.54,6.24c-3.5-.75-10.36.32-11.25.46-.51-2.19-1-4.33-1.39-6.35-.23-1.07-.43-2.09-.62-3.1L447,335c.14.63.28,1.25.43,1.9.5,2.23,1.09,4.6,1.71,7-.83.37-7.66,3.36-10,6-2.12,2.35-4.17,5.94-3.54,9.23a5.62,5.62,0,0,0,7,4.55c4.55-1.35,7.21-9.49,7.3-13.72,0-.25-.23-3-.42-4.68.26,1,.51,1.95.79,3,.54,2,1.14,4,1.77,6.15.35,1,.69,2.06,1.05,3.11s.8,2.11,1.2,3.17c1,2.45,2.09,4.89,3.27,7.32-1.76.48-8,2.27-10.46,4.28s-5,5.23-4.9,8.58a5.62,5.62,0,0,0,6.24,5.57c4.7-.66,8.57-8.29,9.3-12.47,0-.26.24-3.31.31-5,.71,1.45,1.42,2.91,2.2,4.36,2.23,4.18,4.63,8.34,7,12.51.73,1.27,1.44,2.55,2.15,3.83-.63.16-8.08,2.13-10.84,4.38-2.45,2-5,5.23-4.9,8.58a5.62,5.62,0,0,0,6.24,5.57c4.7-.65,8.57-8.29,9.3-12.46.05-.32.32-4.71.33-5.84,1.57,2.82,3.11,5.64,4.52,8.48a98.83,98.83,0,0,1,5,11.82c-.29.08-8.08,2.09-10.9,4.4-2.46,2-5,5.23-4.9,8.58a5.62,5.62,0,0,0,6.23,5.57c4.71-.66,8.57-8.29,9.31-12.47.05-.32.34-5.05.33-5.91.08.23.18.47.26.7a72.73,72.73,0,0,1,2.78,12.56c.33,2.34.52,4.61.66,6.81-1.49.23-8.29,1.34-11.06,3.14s-5.57,4.64-5.81,8a5.61,5.61,0,0,0,5.59,6.21c4.74-.13,9.42-7.29,10.61-11.36.07-.22.47-2.55.74-4.24,0,1,.12,2,.14,3,.1,3.59,0,6.88-.17,9.79-.09,1.66-.2,3.15-.33,4.55-1.34,1-6.71,5-8.32,7.84s-2.8,6.69-1.47,9.77a5.61,5.61,0,0,0,7.82,2.95c4.15-2.31,5-10.82,4.18-15-.07-.36-1.83-5.85-1.9-5.8l-.08.06c.15-1.35.29-2.79.41-4.37.2-2.91.4-6.21.38-9.82a99.79,99.79,0,0,0-.62-11.62,73.39,73.39,0,0,0-2.54-12.77.88.88,0,0,1-.05-.15c.78,1.15,3.07,4.29,3.27,4.51,2.87,3.12,10.24,7.47,14.56,5.49a5.63,5.63,0,0,0,2.25-8.05c-1.7-2.89-5.61-4.23-8.75-4.59-3.55-.41-10.92,2-11.5,2.16a101,101,0,0,0-4.88-12.34c-1.1-2.33-2.27-4.65-3.48-7,.71,1,1.35,1.83,1.46,1.94,2.86,3.13,10.24,7.47,14.55,5.49a5.62,5.62,0,0,0,2.25-8c-1.7-2.89-5.61-4.23-8.75-4.59s-9.51,1.53-11.18,2.06c-.47-.88-.93-1.77-1.41-2.65-2.28-4.22-4.57-8.42-6.7-12.61-.75-1.48-1.43-3-2.12-4.44.63.86,1.17,1.59,1.26,1.69,2.87,3.12,10.24,7.46,14.56,5.48a5.63,5.63,0,0,0,2.25-8.05c-1.7-2.89-5.61-4.22-8.75-4.59s-8.9,1.35-10.88,2c-.66-1.54-1.33-3.08-1.9-4.6-.36-1-.79-2-1.1-3.09s-.65-2.1-1-3.13c-.55-2-1.13-4.09-1.61-6.07-.35-1.37-.65-2.68-1-4,.73,1.48,2.21,4.35,2.36,4.57a21.89,21.89,0,0,0,8.51,7,7.2,7.2,0,0,0,.78,1,5.62,5.62,0,0,0,8.36-.07c3-3.64.78-11.89-1.48-15.48-.14-.21-1.84-2.34-2.94-3.67l2.29,2.05c1.57,1.38,3.17,2.71,4.88,4.15l2.59,2c.84.69,1.83,1.31,2.75,2,2.17,1.5,4.44,2.92,6.77,4.3-1.21,1.37-5.42,6.3-6.37,9.34s-1.3,7.13.65,9.85a5.62,5.62,0,0,0,8.27,1.21c3.56-3.14,2.58-11.64.89-15.53-.11-.24-1.64-2.89-2.5-4.33,1.4.81,2.79,1.64,4.24,2.42,4.17,2.26,8.46,4.41,12.73,6.58,1.31.66,2.61,1.34,3.91,2-.44.48-5.57,6.23-6.63,9.63-.94,3-1.3,7.14.65,9.86a5.61,5.61,0,0,0,8.27,1.2c3.56-3.13,2.58-11.64.89-15.52-.13-.3-2.34-4.11-2.94-5.05,2.86,1.48,5.7,3,8.44,4.58a99.53,99.53,0,0,1,10.68,7.11c-.2.22-5.59,6.2-6.67,9.68-.94,3-1.3,7.14.65,9.86a5.61,5.61,0,0,0,8.27,1.2c3.56-3.13,2.57-11.64.88-15.52-.13-.31-2.51-4.41-3-5.12.2.15.42.29.61.44a72.17,72.17,0,0,1,9.24,8.94c1.58,1.77,3,3.56,4.31,5.32-1.11,1-6.17,5.69-7.49,8.72s-2.08,6.94-.44,9.87a5.61,5.61,0,0,0,8.09,2.1c3.89-2.73,3.84-11.29,2.59-15.34-.07-.22-1-2.38-1.72-3.94.58.81,1.21,1.63,1.75,2.41,2.07,2.94,3.78,5.75,5.27,8.26.84,1.43,1.56,2.74,2.23,4-.58,1.56-2.83,7.89-2.61,11.13s1.36,7.12,4.16,9a5.62,5.62,0,0,0,8.15-1.86c2.19-4.21-1.8-11.79-4.78-14.8-.26-.26-4.75-3.87-4.78-3.79l0,.09c-.62-1.2-1.3-2.48-2.07-3.86-1.44-2.55-3.09-5.41-5.09-8.4a99,99,0,0,0-6.94-9.35,73.28,73.28,0,0,0-9.16-9.26l-.13-.09c1.29.53,4.94,1.89,5.23,2,4.11,1,12.66.57,15.16-3.46a5.61,5.61,0,0,0-2.56-7.95C543.92,363.47,539.93,364.51,537.11,365.94Z" style="fill: rgb(38, 50, 56); transform-origin: 499.087px 398.342px;" id="el1n0dor25koo" class="animable"></path><path d="M483.44,431.07c-.08,0,2,5.39,2.12,5.72,1.94,3.77,7.91,9.9,12.59,9.13a5.62,5.62,0,0,0,4.3-7.17c-.88-3.23-4.29-5.56-7.23-6.74C491.77,430.63,483.45,431.07,483.44,431.07Z" style="fill: rgb(38, 50, 56); transform-origin: 493.068px 438.495px;" id="eltqvsaoelylb" class="animable"></path><path d="M220,384c3.64.75,10.34,5.7,10.35,5.71s-4.61,3.42-4.93,3.6c-3.7,2.07-12.06,3.9-15.54.67a5.62,5.62,0,0,1,.37-8.35C212.72,383.42,216.85,383.37,220,384Z" style="fill: rgb(38, 50, 56); transform-origin: 219.274px 389.694px;" id="el7tofxb4byae" class="animable"></path><path d="M236.21,365.94c3.18,1.61,8,7.66,8.4,8.14a99.53,99.53,0,0,1,10.87-7.6c2.2-1.34,4.46-2.63,6.74-3.89-1.13.42-2.14.79-2.28.83-4.12,1-12.67.57-15.17-3.46a5.62,5.62,0,0,1,2.57-8c3-1.47,7-.43,9.83,1s7.09,6.52,8.19,7.88l2.63-1.43c4.23-2.26,8.46-4.5,12.54-6.83,1.44-.82,2.83-1.68,4.22-2.53-1,.37-1.85.68-2,.71-4.11,1-12.66.58-15.16-3.45a5.61,5.61,0,0,1,2.56-8c3-1.47,7-.43,9.83,1s6.67,6,8,7.64c1.4-.91,2.8-1.83,4.11-2.78.89-.67,1.78-1.26,2.63-2l2.54-2.07c1.57-1.38,3.19-2.79,4.68-4.17,1.05-1,2-1.88,3-2.82-1.42.84-4.24,2.4-4.49,2.51-3.91,1.63-12.43,2.49-15.51-1.12a5.6,5.6,0,0,1,1.33-8.25c2.75-1.91,6.85-1.49,9.86-.5,3.31,1.09,8.81,6.1,9.49,6.73,1.63-1.55,3.2-3.07,4.67-4.53,1.08-1.07,2.11-2.12,3.09-3.12l2.42,1.7q-1.68,1.65-3.55,3.44c-1.65,1.58-3.45,3.23-5.31,4.91a61.14,61.14,0,0,1,3.55,6.24c3.5-.75,10.36.32,11.24.46.51-2.19,1-4.33,1.4-6.35.22-1.07.42-2.09.62-3.1l2.55,1.8c-.14.63-.27,1.25-.42,1.9-.51,2.23-1.1,4.6-1.72,7,.84.37,7.66,3.36,10,6,2.12,2.35,4.17,5.94,3.54,9.23a5.61,5.61,0,0,1-7,4.55c-4.54-1.35-7.21-9.49-7.3-13.72,0-.25.24-3,.42-4.68-.26,1-.5,1.95-.78,3-.54,2-1.14,4-1.78,6.15l-1,3.11c-.33,1-.81,2.11-1.21,3.17-1,2.45-2.09,4.89-3.27,7.32,1.77.48,8,2.27,10.46,4.28s5,5.23,4.9,8.58a5.62,5.62,0,0,1-6.24,5.57c-4.7-.66-8.57-8.29-9.3-12.47,0-.26-.23-3.31-.3-5-.72,1.45-1.43,2.91-2.21,4.36-2.23,4.18-4.62,8.34-7,12.51-.73,1.27-1.43,2.55-2.15,3.83.63.16,8.08,2.13,10.84,4.38,2.46,2,5,5.23,4.9,8.58a5.62,5.62,0,0,1-6.23,5.57c-4.7-.65-8.57-8.29-9.31-12.46-.05-.32-.32-4.71-.33-5.84-1.57,2.82-3.11,5.64-4.51,8.48a97.31,97.31,0,0,0-5,11.82c.29.08,8.08,2.09,10.91,4.4,2.45,2,5,5.23,4.89,8.58a5.61,5.61,0,0,1-6.23,5.57c-4.7-.66-8.57-8.29-9.3-12.47-.06-.32-.34-5.05-.33-5.91-.08.23-.19.47-.27.7a72.73,72.73,0,0,0-2.78,12.56c-.33,2.34-.52,4.61-.65,6.81,1.49.23,8.28,1.34,11,3.14s5.57,4.64,5.81,8a5.61,5.61,0,0,1-5.58,6.21c-4.75-.13-9.43-7.29-10.62-11.36-.06-.22-.47-2.55-.74-4.24,0,1-.11,2-.14,3-.1,3.59,0,6.88.17,9.79.09,1.66.21,3.15.33,4.55,1.35,1,6.72,5,8.32,7.84s2.8,6.69,1.48,9.77a5.62,5.62,0,0,1-7.83,2.95c-4.15-2.31-5-10.82-4.18-15,.07-.36,1.83-5.85,1.9-5.8l.08.06c-.15-1.35-.29-2.79-.41-4.37-.2-2.91-.4-6.21-.38-9.82a99.9,99.9,0,0,1,.63-11.62A72.47,72.47,0,0,1,293,410.77a.88.88,0,0,1,0-.15c-.78,1.15-3.08,4.29-3.28,4.51-2.87,3.12-10.24,7.47-14.55,5.49a5.61,5.61,0,0,1-2.25-8.05c1.7-2.89,5.6-4.23,8.75-4.59,3.54-.41,10.91,2,11.5,2.16a97.84,97.84,0,0,1,4.88-12.34c1.09-2.33,2.26-4.65,3.47-7-.71,1-1.35,1.83-1.45,1.94-2.87,3.13-10.24,7.47-14.56,5.49a5.63,5.63,0,0,1-2.25-8c1.71-2.89,5.61-4.23,8.76-4.59s9.51,1.53,11.17,2.06c.48-.88.94-1.77,1.41-2.65,2.28-4.22,4.58-8.42,6.7-12.61.75-1.48,1.43-3,2.12-4.44-.63.86-1.17,1.59-1.26,1.69-2.87,3.12-10.24,7.46-14.55,5.48a5.61,5.61,0,0,1-2.25-8.05c1.7-2.89,5.6-4.22,8.75-4.59s8.89,1.35,10.88,2c.66-1.54,1.32-3.08,1.89-4.6.37-1,.79-2,1.1-3.09s.65-2.1,1-3.13c.54-2,1.12-4.09,1.6-6.07.35-1.37.65-2.68,1-4-.73,1.48-2.22,4.35-2.37,4.57a21.86,21.86,0,0,1-8.5,7,7.2,7.2,0,0,1-.78,1,5.62,5.62,0,0,1-8.36-.07c-3.05-3.64-.78-11.89,1.48-15.48.13-.21,1.83-2.34,2.93-3.67L303.66,339c-1.56,1.38-3.16,2.71-4.88,4.15l-2.58,2c-.85.69-1.84,1.31-2.76,2-2.17,1.5-4.44,2.92-6.76,4.3,1.2,1.37,5.42,6.3,6.36,9.34s1.3,7.13-.65,9.85a5.61,5.61,0,0,1-8.27,1.21c-3.56-3.14-2.57-11.64-.88-15.53.1-.24,1.63-2.89,2.5-4.33-1.4.81-2.8,1.64-4.24,2.42-4.18,2.26-8.47,4.41-12.74,6.58-1.31.66-2.61,1.34-3.91,2,.44.48,5.57,6.23,6.63,9.63.94,3,1.3,7.14-.65,9.86a5.61,5.61,0,0,1-8.27,1.2c-3.56-3.13-2.57-11.64-.88-15.52.13-.3,2.33-4.11,2.94-5.05-2.87,1.48-5.71,3-8.45,4.58a99.53,99.53,0,0,0-10.68,7.11c.21.22,5.59,6.2,6.68,9.68.94,3,1.3,7.14-.65,9.86a5.61,5.61,0,0,1-8.27,1.2c-3.57-3.13-2.58-11.64-.89-15.52.14-.31,2.51-4.41,3-5.12-.19.15-.41.29-.61.44a72.17,72.17,0,0,0-9.24,8.94c-1.58,1.77-3,3.56-4.31,5.32,1.12,1,6.17,5.69,7.49,8.72s2.08,6.94.44,9.87a5.61,5.61,0,0,1-8.09,2.1c-3.88-2.73-3.84-11.29-2.58-15.34.07-.22,1-2.38,1.72-3.94-.59.81-1.21,1.63-1.76,2.41-2.06,2.94-3.77,5.75-5.26,8.26-.84,1.43-1.57,2.74-2.24,4,.58,1.56,2.83,7.89,2.62,11.13s-1.36,7.12-4.16,9a5.62,5.62,0,0,1-8.15-1.86c-2.19-4.21,1.79-11.79,4.77-14.8.26-.26,4.75-3.87,4.79-3.79l0,.09c.62-1.2,1.3-2.48,2.07-3.86,1.44-2.55,3.09-5.41,5.1-8.4a98.77,98.77,0,0,1,6.93-9.35,74,74,0,0,1,9.16-9.26l.13-.09c-1.29.53-4.93,1.89-5.22,2-4.12,1-12.67.57-15.17-3.46a5.61,5.61,0,0,1,2.57-7.95C229.39,363.47,233.38,364.51,236.21,365.94Z" style="fill: rgb(38, 50, 56); transform-origin: 274.207px 398.252px;" id="el9tktd0z2ld" class="animable"></path><path d="M289.87,431.07c.09,0-1.95,5.39-2.12,5.72-1.94,3.77-7.91,9.9-12.59,9.13a5.62,5.62,0,0,1-4.3-7.17c.88-3.23,4.3-5.56,7.23-6.74C281.54,430.63,289.86,431.07,289.87,431.07Z" style="fill: rgb(38, 50, 56); transform-origin: 280.242px 438.495px;" id="elkr0gpfmhdf" class="animable"></path></g><g id="freepik--speech-bubble-2--inject-2" class="animable" style="transform-origin: 681.764px 105.56px;"><path d="M659.9,123.18a28.63,28.63,0,1,1,5.64,5.28l-12.75,6.18Z" style="fill: rgb(255, 255, 255); stroke: rgb(38, 50, 56); stroke-miterlimit: 10; transform-origin: 681.764px 105.56px;" id="elbrepev4727d" class="animable"></path><g id="ell6zjjq1ey4k"><rect x="663.67" y="100.12" width="7.32" height="10.64" style="fill: rgb(38, 50, 56); transform-origin: 667.33px 105.44px; transform: rotate(180deg);" class="animable"></rect></g><polygon points="669.5 110.77 681.72 119.64 681.72 91.25 669.5 100.12 669.5 110.77" style="fill: rgb(38, 50, 56); transform-origin: 675.61px 105.445px;" id="elpmawg2bid4" class="animable"></polygon><path d="M692.39,94a14.2,14.2,0,0,1-1,22.32" style="fill: none; stroke: rgb(38, 50, 56); stroke-linecap: round; stroke-linejoin: round; transform-origin: 694.361px 105.16px;" id="el0hwy7q8b8xgg" class="animable"></path><path d="M685.93,98.11a7.23,7.23,0,0,1,0,13.32" style="fill: none; stroke: rgb(38, 50, 56); stroke-linecap: round; stroke-linejoin: round; transform-origin: 688.138px 104.77px;" id="el62ssr01twdd" class="animable"></path></g><g id="freepik--speech-bubble-1--inject-2" class="animable" style="transform-origin: 130.824px 106.729px;"><path d="M152.63,124.28a28.56,28.56,0,1,0-5.63,5.28l12.75,6.18Z" style="fill: rgb(255, 255, 255); stroke: rgb(38, 50, 56); stroke-miterlimit: 10; transform-origin: 130.824px 106.729px;" id="el4bca3x1g33h" class="animable"></path><path d="M130.43,113h0a5.49,5.49,0,0,1-5.48-5.48V90.19a5.48,5.48,0,0,1,5.48-5.47h0a5.47,5.47,0,0,1,5.47,5.47v17.36A5.48,5.48,0,0,1,130.43,113Z" style="fill: rgb(38, 50, 56); transform-origin: 130.425px 98.86px;" id="el8iqzlax2au" class="animable"></path><path d="M130.47,117a9.69,9.69,0,0,1-9.68-9.68V99.14a1,1,0,0,1,2,0v8.14a7.68,7.68,0,1,0,15.35,0V99.14a1,1,0,0,1,2,0v8.14A9.69,9.69,0,0,1,130.47,117Z" style="fill: rgb(38, 50, 56); transform-origin: 130.465px 107.57px;" id="eld7q6a7iecf" class="animable"></path><path d="M130.47,127.38a1,1,0,0,1-1-1V116a1,1,0,0,1,2,0v10.42A1,1,0,0,1,130.47,127.38Z" style="fill: rgb(38, 50, 56); transform-origin: 130.47px 121.19px;" id="elnu0qckahobs" class="animable"></path><path d="M137.15,127.91H123.8a1,1,0,1,1,0-2h13.35a1,1,0,0,1,0,2Z" style="fill: rgb(38, 50, 56); transform-origin: 130.475px 126.91px;" id="el8p205qwy51i" class="animable"></path></g><g id="freepik--character-2--inject-2" class="animable" style="transform-origin: 567.826px 198.011px;"><path d="M596.43,169.33l5.16-4s.43-9.45,1.29-10.6,5.29-5.72,6-7.3,6,.15,7.16.15,3-.86,2.86,0-.72,2.57-2,3.14-4.58-.28-4.58-.28l-.57,5.58s12.17-3.15,10.45.57-4.58,10.31-6.58,12.31-10.17,3.44-10.17,3.44l-6.87,7.59Z" style="fill: rgb(255, 255, 255); stroke: rgb(38, 50, 56); stroke-miterlimit: 10; transform-origin: 609.398px 163.347px;" id="el2kaht63oi76" class="animable"></path><path d="M625.49,149.29s3.3-.14,3.3,1.15-1.44,2.43-3.3,3.29-3.15.43-3.15,0S625.49,149.29,625.49,149.29Z" style="fill: rgb(255, 255, 255); stroke: rgb(38, 50, 56); stroke-miterlimit: 10; transform-origin: 625.565px 151.756px;" id="el24gy06mxgx" class="animable"></path><path d="M625.49,153.73a3,3,0,0,1,.15,3.87c-1.58,2.14-7.73,1.57-7.73,1.57l4.43-5.44A3.42,3.42,0,0,0,625.49,153.73Z" style="fill: rgb(255, 255, 255); stroke: rgb(38, 50, 56); stroke-miterlimit: 10; transform-origin: 622.093px 156.484px;" id="elakj83rl4bld" class="animable"></path><path d="M624.78,159s-1,2.86-2.15,3.43-6.44-.57-6.44-.57l1.72-2.72S624.06,159.17,624.78,159Z" style="fill: rgb(255, 255, 255); stroke: rgb(38, 50, 56); stroke-miterlimit: 10; transform-origin: 620.485px 160.795px;" id="el30alylgv9no" class="animable"></path><path d="M622.63,162.46a14,14,0,0,1-2.43,3.29c-1,.72-4.44.72-5.16.43s-.43-2.29.58-2.72a26.39,26.39,0,0,1,5-.57Z" style="fill: rgb(255, 255, 255); stroke: rgb(38, 50, 56); stroke-miterlimit: 10; transform-origin: 618.635px 164.411px;" id="el15duk6mh7fbh" class="animable"></path><path d="M629.55,135l-18,22.47a1.13,1.13,0,0,0-.24.81l.55,5.24a1.11,1.11,0,0,0,1.93.63l20.82-22.7a1.13,1.13,0,0,0,.11-1.38l-3.39-5A1.11,1.11,0,0,0,629.55,135Z" style="fill: rgb(38, 50, 56); stroke: rgb(38, 50, 56); stroke-linecap: round; stroke-linejoin: round; transform-origin: 623.105px 149.552px;" id="ele9cjo4aw9as" class="animable"></path><path d="M610.89,158.17s-1.86,4.72-4.15,5.72" style="fill: none; stroke: rgb(38, 50, 56); stroke-miterlimit: 10; transform-origin: 608.815px 161.03px;" id="elmrxxajp0uo" class="animable"></path><polygon points="585.27 173.77 597.44 167.76 600.44 181.22 585.13 193.81 585.27 173.77" style="fill: rgb(146, 227, 169); stroke: rgb(38, 50, 56); stroke-miterlimit: 10; transform-origin: 592.785px 180.785px;" id="elrzu0dqsab3c" class="animable"></polygon><path d="M591,123.89l6.1,6.46-.36,6.64L593,133.22l-6.27,4.3L589,206.41l-19,2.15,11.3-84.67S582.76,118,591,123.89Z" style="fill: rgb(146, 227, 169); stroke: rgb(38, 50, 56); stroke-miterlimit: 10; transform-origin: 583.55px 164.916px;" id="elf29p9f3kd2v" class="animable"></path><path d="M584,131.69a179.51,179.51,0,0,1-1,25.91c-1.58,12.59-5.44,42.37-5.3,44.23s.29,4.72-.43,5.58S567,208.7,567,208.7s8.3-56.54,9.59-66S578,126.82,579.69,127,584,131.69,584,131.69Z" style="fill: rgb(255, 255, 255); stroke: rgb(38, 50, 56); stroke-miterlimit: 10; transform-origin: 575.551px 167.848px;" id="elzhlsz3yfjl" class="animable"></path><path d="M633.35,96.44s-5.39,7.36-6.82,9.15-5.2,3-5.74,4.31-1.79,6.28-2.33,7.71-6.28-.36-6.28-.36-9.51,6.28-11.3,6.64-6.46-4.66-6.46-4.66L588,129.63l-15.43-20.81,9.69-11.12s-1.61-14.71-.54-22.06,10.77-15.25,20.09-18.84c7.15-2.75,19.57,4.93,25,8.67A13.48,13.48,0,0,1,630.88,70c2.3,4.12,6.61,12,8,16C640.88,91.6,638.19,95.19,633.35,96.44Z" style="fill: rgb(255, 255, 255); stroke: rgb(38, 50, 56); stroke-miterlimit: 10; transform-origin: 606.058px 92.9239px;" id="eluwrd0gj1dc" class="animable"></path><polygon points="594.42 119.23 590.65 114.74 589.58 126.94 594.42 119.23" style="fill: rgb(38, 50, 56); stroke: rgb(38, 50, 56); stroke-miterlimit: 10; transform-origin: 592px 120.84px;" id="elqmgefff86q" class="animable"></polygon><path d="M622.94,107.21s.36-4.13-3.59-4.31" style="fill: none; stroke: rgb(38, 50, 56); stroke-miterlimit: 10; transform-origin: 621.149px 105.055px;" id="elp82uhj75mf" class="animable"></path><path d="M617.9,109.28c-1,.72-2.06,1-2.35.57s.3-1.31,1.31-2,2.06-1,2.35-.56S618.91,108.57,617.9,109.28Z" style="fill: rgb(38, 50, 56); transform-origin: 617.38px 108.57px;" id="elquju68m6t7m" class="animable"></path><path d="M605.18,113.31a8.2,8.2,0,0,0,2.33,4.3" style="fill: none; stroke: rgb(38, 50, 56); stroke-miterlimit: 10; transform-origin: 606.345px 115.46px;" id="elnretpip6d4" class="animable"></path><path d="M638.91,86c-1.42-4-5.73-11.92-8-16a13.48,13.48,0,0,0-4.13-4.53c-5.41-3.74-17.83-11.42-25-8.67-9.32,3.59-19,11.48-20.09,18.84s.54,22.06.54,22.06A18.11,18.11,0,0,0,588.14,99a6.25,6.25,0,0,0,5.56-4.49c.36-1.79,8.25-3.77,7.89-2.87a31.62,31.62,0,0,1-1.25,4,1.3,1.3,0,0,0,1.25,2c1.08-.18,4.49-3.41,4.49-3.41s9.15,3,10.22,2.33,2.16-4.84,2.16-4.84.18,6.28,2.69,6.46a13.51,13.51,0,0,0,5.56-1.26s-.9,3.77.9,3.59,5.74-4,5.74-4C638.19,95.19,640.88,91.6,638.91,86Z" style="fill: rgb(38, 50, 56); stroke: rgb(38, 50, 56); stroke-linecap: round; stroke-linejoin: round; transform-origin: 610.438px 78.367px;" id="elid8k2di37vd" class="animable"></path><path d="M600.34,96.44s0-9-2-9.14-5.21,2.15-5.21,6.27a10.32,10.32,0,0,0,2.34,6.64" style="fill: rgb(255, 255, 255); stroke: rgb(38, 50, 56); stroke-miterlimit: 10; transform-origin: 596.735px 93.752px;" id="el7pe5an39vyp" class="animable"></path><path d="M625.43,315l14.07,1.17s14-3.6,14.8-.6-3.8,5.8-7.6,9-16.2,8.8-16.2,8.8-10.4,5.6-14,6.4-7.2-13-7.2-13Z" style="fill: rgb(255, 255, 255); stroke: rgb(38, 50, 56); stroke-miterlimit: 10; transform-origin: 631.846px 327.09px;" id="elnirmcwsxcym" class="animable"></path><path d="M654.3,315.54a1.27,1.27,0,0,0-.76-.78c-2.51,3.8-13.24,12.32-20,14.58-5.52,1.84-15.85,5.8-20.38,7.54,1,1.84,2.21,3.12,3.38,2.86,3.6-.8,14-6.4,14-6.4s12.4-5.6,16.2-8.8S655.1,318.54,654.3,315.54Z" style="fill: rgb(255, 255, 255); stroke: rgb(38, 50, 56); stroke-miterlimit: 10; transform-origin: 633.776px 327.267px;" id="elgv1oimipmhn" class="animable"></path><path d="M563.7,239.94l24-.4s13,69.6,14.8,72.8a13.59,13.59,0,0,0,3.2,4.2s-2,2-1.4,3.8,4.4,5.2,5,6.4,11.8-5,11.8-5l4.33-6.77s-1.4-8.2-2.2-8.8a5.17,5.17,0,0,1-2.2-2.8c-.2-1.2.8-3.2.2-4.8s-2.2-2.6-2.4-4,3.47-64.43.27-69.83-16.6-4-16.6-4-58.8,14-58.4,16.6S563.7,239.94,563.7,239.94Z" style="fill: rgb(38, 50, 56); stroke: rgb(38, 50, 56); stroke-linecap: round; stroke-linejoin: round; transform-origin: 584.764px 273.735px;" id="elf7zlyiex139" class="animable"></path><path d="M601.22,305.39s2.52,2.52,4,3.79,11.91,7.4,12.09,8.48-.9,4.51-2.17,5.23-14.25-.72-17.32-1.08-13.18-6.14-16.43-7.94-6.85-5.23-6.85-6.32,9.38-16.6,9.38-16.6l17.69,11.91Z" style="fill: rgb(255, 255, 255); stroke: rgb(38, 50, 56); stroke-miterlimit: 10; transform-origin: 595.935px 307.019px;" id="elhdqsqrp4uzu" class="animable"></path><path d="M610.78,320.91c-5.23-.72-14.26-1.27-19.49-4.69-4-2.61-12.14-8.25-15.81-10.8a9.78,9.78,0,0,0-1,2.13c0,1.09,3.61,4.51,6.85,6.32s13.36,7.58,16.43,7.94,16.06,1.81,17.32,1.08a3.55,3.55,0,0,0,1.16-1.43C615.28,321.42,613.58,321.29,610.78,320.91Z" style="fill: rgb(255, 255, 255); stroke: rgb(38, 50, 56); stroke-miterlimit: 10; transform-origin: 595.36px 314.256px;" id="elekdsskkizeg" class="animable"></path><path d="M567.3,204.14s27.21-.37,45,1.83,25.62,3.27,32.39,7.57c7.77,4.94-36.6,80.17-36.6,80.17l-3.8,4.8s.8,2.4.2,2.8a41.73,41.73,0,0,0-3.28,4.08L583.9,293.11v-4.2l3.6-1.2a3.85,3.85,0,0,1,.72-4.16,17.52,17.52,0,0,1,3.43-2.71l15-44.94s-32.53,3.44-42.93,4-46.81,0-46.81,0-5.4-1.4-5-11.2,3.8-18.2,10.61-21S567.3,204.14,567.3,204.14Z" style="fill: rgb(38, 50, 56); stroke: rgb(38, 50, 56); stroke-linecap: round; stroke-linejoin: round; transform-origin: 578.746px 254.753px;" id="el4jdqo048pht" class="animable"></path><path d="M604,302.94s2.06-1.37,2.06-2.23-.69-2.41-.35-3.44,13.24-21.48,13.24-21.48" style="fill: none; stroke: rgb(255, 255, 255); stroke-miterlimit: 10; transform-origin: 611.475px 289.365px;" id="elh53021qivfd" class="animable"></path><polyline points="595.35 270.12 606.7 236.78 590.71 239.53" style="fill: none; stroke: rgb(255, 255, 255); stroke-miterlimit: 10; transform-origin: 598.705px 253.45px;" id="el3zqnypuo1vu" class="animable"></polyline><line x1="606.63" y1="235.9" x2="625.23" y2="231.7" style="fill: none; stroke: rgb(255, 255, 255); stroke-miterlimit: 10; transform-origin: 615.93px 233.8px;" id="eler8jj9jbafo" class="animable"></line><path d="M614.43,236.3s10.2-.4,15.2-3.2" style="fill: none; stroke: rgb(255, 255, 255); stroke-miterlimit: 10; transform-origin: 622.03px 234.7px;" id="el3vrbrygs45t" class="animable"></path><path d="M583.12,130.89,570,208.56l-2.51,25.83s-17.22,5.39-33,3.23-20.09-5.74-20.09-5.74,13.46-56,13.46-56.5,7.53-33.73,10.58-40.73,30.68-26.19,30.68-26.19Z" style="fill: rgb(146, 227, 169); stroke: rgb(38, 50, 56); stroke-miterlimit: 10; transform-origin: 548.76px 173.295px;" id="ely4k2x3dtv7" class="animable"></path><polygon points="574.33 103.26 592.27 129.99 583.84 135.19 569.13 108.46 574.33 103.26" style="fill: rgb(255, 255, 255); stroke: rgb(38, 50, 56); stroke-miterlimit: 10; transform-origin: 580.7px 119.225px;" id="eld5g16turt8s" class="animable"></polygon><path d="M504.51,227,501.19,232s-13.2.61-14.25,1.13-5.68,6.21-5.68,6.73,15.21,0,15.21,0l5.33-1.4s-3,1.49-2.36,1.66a43.93,43.93,0,0,0,4.89,0s6.64-2.09,7.6-3.23,2.8-7.25,2.8-7.25Z" style="fill: rgb(255, 255, 255); stroke: rgb(38, 50, 56); stroke-miterlimit: 10; transform-origin: 497.995px 233.594px;" id="eldq5khbxta7b" class="animable"></path><path d="M491.66,239.82s5.85-5.51,6.2-5.77a7.3,7.3,0,0,1,1.93-.44" style="fill: none; stroke: rgb(38, 50, 56); stroke-miterlimit: 10; transform-origin: 495.725px 236.715px;" id="elqmfmgyoh3so" class="animable"></path><path d="M494.63,233.09a7.11,7.11,0,0,0-2.36,1c-.44.52-4.46,5.94-4.46,5.94" style="fill: none; stroke: rgb(38, 50, 56); stroke-miterlimit: 10; transform-origin: 491.22px 236.56px;" id="el9u8mis7xii" class="animable"></path><path d="M490.17,233.44s-1.74.26-2.09.7-3.85,5.68-3.85,5.68" style="fill: none; stroke: rgb(38, 50, 56); stroke-miterlimit: 10; transform-origin: 487.2px 236.63px;" id="el18crf6yy0aw" class="animable"></path><path d="M551.4,129.45S515.72,164,515,166.77s-11.65,61-11.65,61a31.76,31.76,0,0,0,5.28,2,60.28,60.28,0,0,0,8.19,1.09l16.57-50.07S568.15,156,570,154.58s3.28-8.38,3.28-10.75" style="fill: rgb(146, 227, 169); stroke: rgb(38, 50, 56); stroke-miterlimit: 10; transform-origin: 538.315px 180.155px;" id="eldssclsc81mp" class="animable"></path></g><g id="freepik--character-1--inject-2" class="animable" style="transform-origin: 176.977px 277.833px;"><path d="M185.3,114s-15.25,11.88-15.05,18.61,8.71,11.68,9.9,12.48,15.24,12.47,14.06,17.62-12.87,4.16-14.85,10.29,1.78,8.72,7.32,10.1,15.64-4,18.42-3,9.7,5.55,15.24,8.32,9.31,3.36,15.84-2.77,3-12.08,3-12.08,11.69,4.16,14.66-5.94-1.19-17-6.93-18.22a48.39,48.39,0,0,0-8.72-1.19s.4-14.85-3.56-20-14.26-15.84-22.37-18.81S191.43,110,185.3,114Z" style="fill: rgb(38, 50, 56); stroke: rgb(38, 50, 56); stroke-linecap: round; stroke-linejoin: round; transform-origin: 212.537px 149.367px;" id="el8v7j2b89hmb" class="animable"></path><path d="M138.57,229l-3.38-10.26,7.45-3S140.53,226.57,138.57,229Z" style="fill: rgb(38, 50, 56); stroke: rgb(38, 50, 56); stroke-miterlimit: 10; transform-origin: 138.915px 222.37px;" id="el2kfmz4xvrxo" class="animable"></path><path d="M178.46,374.7s4.83,3.83,4.63,6-2.82,8.25-2,12.48,0,9.86-1.61,12.68-3.22,4-3.82,3.42a7,7,0,0,1-1.81-4.23c0-1.81,1.21-32.8,1.21-32.8Z" style="fill: rgb(255, 255, 255); stroke: rgb(38, 50, 56); stroke-miterlimit: 10; transform-origin: 178.473px 390.837px;" id="elifmr6p5oxy" class="animable"></path><path d="M156.52,407.91l1.21,16.1s.6,1.61,5.43,1S174,418.57,174,418.57l-1.41-14.89S162,408.11,156.52,407.91Z" style="fill: rgb(255, 255, 255); stroke: rgb(38, 50, 56); stroke-miterlimit: 10; transform-origin: 165.26px 414.414px;" id="el1dryogavsr6" class="animable"></path><path d="M162.56,420.79s-4.63-8.25-7.24-7.05-1.21,8.25-1.21,9.86-6.24,12.88-8.86,15.3-6.43,4-6.23,6,4.62,2.62,8,2.42,11.47-2.82,14.69-4.63,16.9-11.47,17.7-12.88-.2-6.64-1.61-8.25-4.22-5.83-4.22-6.64,0-1.21-2,.2-4,3.62-4.83,4S162.56,420.79,162.56,420.79Z" style="fill: rgb(255, 255, 255); stroke: rgb(38, 50, 56); stroke-miterlimit: 10; transform-origin: 159.353px 430.488px;" id="eloexd6l9i85" class="animable"></path><path d="M191.94,256.56l-1.41-3.82s-30.38-7.05-44.07-15.1c0,0-19.52,19.93-28.37,32.8s-19.72,42.08-18.92,45.91,46.29,52.12,46.29,52.12,6,27.77,6.84,33.8,7.24,9.46,12.47,9.26,10.67-4.63,11.27-6.24,2.42-39.24,3.22-52.32a355.89,355.89,0,0,1,8.86-55.36C192.54,280.51,195,266.82,191.94,256.56ZM144.85,329l-9.25-13.08,10.66-19.54Z" style="fill: rgb(146, 227, 169); stroke: rgb(38, 50, 56); stroke-miterlimit: 10; transform-origin: 146.214px 324.589px;" id="elcy1v19dazbj" class="animable"></path><path d="M146.26,296.4s1.41-26.76,2.82-32.8" style="fill: none; stroke: rgb(38, 50, 56); stroke-miterlimit: 10; transform-origin: 147.67px 280px;" id="elqj2hpmwqh" class="animable"></path><path d="M144.85,329s-.2,25.36.61,39.45" style="fill: none; stroke: rgb(38, 50, 56); stroke-miterlimit: 10; transform-origin: 145.144px 348.725px;" id="elf62fpm7o57p" class="animable"></path><path d="M135.6,315.94s-4.83-4-8.46-4.62" style="fill: none; stroke: rgb(38, 50, 56); stroke-miterlimit: 10; transform-origin: 131.37px 313.63px;" id="elommep10oqeg" class="animable"></path><path d="M164.77,256.16s-2.61,17.3-4,27.16" style="fill: none; stroke: rgb(38, 50, 56); stroke-miterlimit: 10; transform-origin: 162.77px 269.74px;" id="el2zhyp4vw16y" class="animable"></path><path d="M167,270.24s.4,16.91.2,17.71" style="fill: none; stroke: rgb(38, 50, 56); stroke-miterlimit: 10; transform-origin: 167.128px 279.095px;" id="elc71rcs6z74h" class="animable"></path><path d="M145.66,245.69s-9.06,11.07-13.28,17.71" style="fill: none; stroke: rgb(38, 50, 56); stroke-miterlimit: 10; transform-origin: 139.02px 254.545px;" id="elxe0hjxz0sir" class="animable"></path><line x1="147.87" y1="246.9" x2="141.63" y2="259.98" style="fill: none; stroke: rgb(38, 50, 56); stroke-miterlimit: 10; transform-origin: 144.75px 253.44px;" id="elwsmumr6geah" class="animable"></line><path d="M191.63,178.1s-19.8,3.76-22,5.74-27.52,23.37-27.52,23.37L138.57,229l10.49-3.76s-7.92,8.91-7.52,10.49,8.31,9.11,13.66,12.48,31.88,8.91,38.41,9.3,5.94-7.13,6.34-8.51,4.35-16.24,4.35-16.24L235.19,225s-5.14-40.59-10.09-47.52-10.7-5.55-15.25-4S191.63,178.1,191.63,178.1Z" style="fill: rgb(204, 204, 204); stroke: rgb(38, 50, 56); stroke-miterlimit: 10; transform-origin: 186.88px 214.872px;" id="el5b3w6af6ev" class="animable"></path><line x1="206.48" y1="188.4" x2="208.46" y2="227.01" style="fill: none; stroke: rgb(38, 50, 56); stroke-miterlimit: 10; transform-origin: 207.47px 207.705px;" id="elrt7jpc68hk" class="animable"></line><path d="M180.54,134.94s-1.18,9.3-1.18,15.05,3.16,14.85,6.53,18.41,4.75,3.76,7.13,3l-3.76,17.42s13.66-8.51,16.23-10.49a21.38,21.38,0,0,0,4.36-4.75l2.38-13.07a27.27,27.27,0,0,0,3.16-5.74c1-2.77,1.59-6.54-1-8.32s-4.55-3.36-11.68-11.28-7.33-8.91-7.33-8.91Z" style="fill: rgb(255, 255, 255); stroke: rgb(38, 50, 56); stroke-miterlimit: 10; transform-origin: 197.8px 157.54px;" id="els6ef7jjqn6m" class="animable"></path><path d="M210.44,150.38s4.16-8.31,6.74-4,1.38,7.72-.4,9.9-5.74,1.59-5.74,1.59" style="fill: rgb(255, 255, 255); stroke: rgb(38, 50, 56); stroke-miterlimit: 10; transform-origin: 214.554px 151.541px;" id="elirvugs2rez" class="animable"></path><polygon points="193.02 171.37 199.95 168.4 191.63 178.1 193.02 171.37" style="fill: rgb(38, 50, 56); stroke: rgb(38, 50, 56); stroke-linecap: round; stroke-linejoin: round; transform-origin: 195.79px 173.25px;" id="elaidu3mqngzg" class="animable"></polygon><path d="M187.87,142.26s-1.58,5.55-2.57,7.73-3.17,3-2,3.56a6.86,6.86,0,0,0,4.35.79" style="fill: none; stroke: rgb(38, 50, 56); stroke-linecap: round; stroke-linejoin: round; transform-origin: 185.417px 148.338px;" id="elhn6llru5h1g" class="animable"></path><path d="M185.69,158.7a13,13,0,0,0,9.51-2.77s-1.59,5.94-4.16,6.93S185.69,158.7,185.69,158.7Z" style="fill: none; stroke: rgb(38, 50, 56); stroke-linecap: round; stroke-linejoin: round; transform-origin: 190.445px 159.458px;" id="elaufot1ytvy" class="animable"></path><path d="M193,136.92s2.37-1.78,5.94,1" style="fill: none; stroke: rgb(38, 50, 56); stroke-linecap: round; stroke-linejoin: round; transform-origin: 195.97px 137.139px;" id="eln7f72rrwuob" class="animable"></path><path d="M187.47,137.31a3.42,3.42,0,0,0-4.95-.39" style="fill: none; stroke: rgb(38, 50, 56); stroke-linecap: round; stroke-linejoin: round; transform-origin: 184.995px 136.675px;" id="elq68hygo3z4n" class="animable"></path><path d="M196.58,144.05c0,1.2-.53,2.17-1.19,2.17s-1.18-1-1.18-2.17.53-2.18,1.18-2.18S196.58,142.84,196.58,144.05Z" style="fill: rgb(38, 50, 56); transform-origin: 195.395px 144.045px;" id="el8uivmezjpqg" class="animable"></path><path d="M185.49,142.26c0,1.21-.53,2.18-1.18,2.18s-1.19-1-1.19-2.18.53-2.17,1.19-2.17S185.49,141.06,185.49,142.26Z" style="fill: rgb(38, 50, 56); transform-origin: 184.305px 142.265px;" id="elr4jti6a093" class="animable"></path><line x1="149.06" y1="225.23" x2="166.29" y2="195.73" style="fill: none; stroke: rgb(38, 50, 56); stroke-miterlimit: 10; transform-origin: 157.675px 210.48px;" id="elcow4s4gf2ru" class="animable"></line><path d="M145.56,154.06l14.6,29a2,2,0,0,0,1.89,1.11l12.2-.59a2,2,0,0,0,1.74-2.82l-13.44-30.38a2,2,0,0,0-2.13-1.17l-13.35,1.95A2,2,0,0,0,145.56,154.06Z" style="fill: rgb(38, 50, 56); stroke: rgb(38, 50, 56); stroke-miterlimit: 10; transform-origin: 160.752px 166.68px;" id="elq6gv9b05e7c" class="animable"></path><path d="M146.09,170.18s7.13,15.64,6.93,16.44-29.5,25.34-29.7,27.92,1.78,10.29,4.75,11.48,7.13-1,8.32-2,22.18-30.3,23.36-31.68,1.39-5.35,1.39-5.35a49.72,49.72,0,0,1,6.53-6.33c3.17-2.38,2-3.77-.19-2.78a37.13,37.13,0,0,0-4.76,2.78c-1.37,1-1.59-1.46,3.32-5.16,4.3-3.24,3.38-4.59,3.61-5.14.6-1.39-1.78-.4-1.78-.4s.6-1.86-.19-2.26a2.17,2.17,0,0,0-1.76.13l-10.52,5.5L152,171.77s7.33-5.15,9.7-6.14,3.37-3.76,1-3.17S147.68,168,146.09,170.18Z" style="fill: rgb(255, 255, 255); stroke: rgb(38, 50, 56); stroke-miterlimit: 10; transform-origin: 146.527px 194.372px;" id="ellgc81mflrzc" class="animable"></path><path d="M167.87,170s-10.29,6.54-11.09,7.73a8.07,8.07,0,0,0-.79,3.56" style="fill: none; stroke: rgb(38, 50, 56); stroke-miterlimit: 10; transform-origin: 161.93px 175.645px;" id="elourvfiogc4" class="animable"></path><path d="M155.4,173.35s-3.37,1.58-3.57,3" style="fill: none; stroke: rgb(38, 50, 56); stroke-miterlimit: 10; transform-origin: 153.615px 174.85px;" id="elrp34usp28nj" class="animable"></path><path d="M234.4,220.34S171.82,232,170.61,233.42,162,257.16,162.16,259s4.63,8.25,5.63,9.26,3.22,1.41,4.63,1.81,6.64-1.21,5.84-2.82-4-1.2-4-1.2l-2-4.83a24.45,24.45,0,0,0,1.81-8.25c0-4,1-12.68,1-12.68H234.2s2.62-.81,2.82-2.21S234.4,220.34,234.4,220.34Z" style="fill: rgb(255, 255, 255); stroke: rgb(38, 50, 56); stroke-miterlimit: 10; transform-origin: 199.594px 245.236px;" id="elrzb85m3oywi" class="animable"></path><path d="M168.2,260.58s2.21,6,2.61,6.85,1.61,2.61,1.61,2.61" style="fill: none; stroke: rgb(38, 50, 56); stroke-miterlimit: 10; transform-origin: 170.31px 265.31px;" id="el728p2ifm6bx" class="animable"></path><line x1="164.98" y1="261.19" x2="167.79" y2="268.23" style="fill: none; stroke: rgb(38, 50, 56); stroke-miterlimit: 10; transform-origin: 166.385px 264.71px;" id="el8vm2qw53j95" class="animable"></line></g><g id="freepik--audio-file--inject-2" class="animable animator-active" style="transform-origin: 386.265px 311.21px;"><rect x="186.73" y="245.32" width="392.87" height="136.95" rx="8.68" style="fill: rgb(38, 50, 56); stroke: rgb(38, 50, 56); stroke-linecap: round; stroke-linejoin: round; transform-origin: 383.165px 313.795px;" id="el6dc9uxtme62" class="animable"></rect><rect x="192.93" y="240.15" width="392.87" height="136.95" rx="8.68" style="fill: rgb(255, 255, 255); stroke: rgb(38, 50, 56); stroke-miterlimit: 10; transform-origin: 389.365px 308.625px;" id="elccqpcgm1hrc" class="animable"></rect><path d="M324,293.42a2.37,2.37,0,0,0-2.37,2.37v22.54a2.38,2.38,0,1,0,4.75,0V295.79A2.38,2.38,0,0,0,324,293.42Z" style="fill: rgb(38, 50, 56); transform-origin: 324.005px 307.142px;" id="el3mmt887al6t" class="animable"></path><path d="M353,293.42a2.38,2.38,0,0,0-2.38,2.37v22.54a2.38,2.38,0,1,0,4.75,0V295.79A2.37,2.37,0,0,0,353,293.42Z" style="fill: rgb(38, 50, 56); transform-origin: 352.995px 307.142px;" id="elo2oifiosypo" class="animable"></path><path d="M374.69,293.42a2.37,2.37,0,0,0-2.37,2.37v22.54a2.37,2.37,0,1,0,4.74,0V295.79A2.37,2.37,0,0,0,374.69,293.42Z" style="fill: rgb(38, 50, 56); transform-origin: 374.69px 307.06px;" id="ely9qk1gdvids" class="animable"></path><path d="M389.17,293.42a2.37,2.37,0,0,0-2.37,2.37v22.54a2.37,2.37,0,1,0,4.74,0V295.79A2.37,2.37,0,0,0,389.17,293.42Z" style="fill: rgb(38, 50, 56); transform-origin: 389.17px 307.065px;" id="el40pf69va8fx" class="animable"></path><path d="M396.41,293.42a2.37,2.37,0,0,0-2.37,2.37v22.54a2.38,2.38,0,1,0,4.75,0V295.79A2.38,2.38,0,0,0,396.41,293.42Z" style="fill: rgb(38, 50, 56); transform-origin: 396.415px 307.142px;" id="eli6vz5kxqbwj" class="animable"></path><path d="M432.62,293.42a2.38,2.38,0,0,0-2.38,2.37v22.54a2.38,2.38,0,1,0,4.75,0V295.79A2.37,2.37,0,0,0,432.62,293.42Z" style="fill: rgb(38, 50, 56); transform-origin: 432.615px 307.142px;" id="eli02u4zgngx" class="animable"></path><path d="M476.06,293.42a2.37,2.37,0,0,0-2.37,2.37v22.54a2.37,2.37,0,1,0,4.74,0V295.79A2.37,2.37,0,0,0,476.06,293.42Z" style="fill: rgb(38, 50, 56); transform-origin: 476.06px 307.065px;" id="el2w3jdp2uww3" class="animable"></path><path d="M497.78,293.42a2.37,2.37,0,0,0-2.37,2.37v22.54a2.38,2.38,0,1,0,4.75,0V295.79A2.38,2.38,0,0,0,497.78,293.42Z" style="fill: rgb(38, 50, 56); transform-origin: 497.785px 307.142px;" id="el3kgfd35kw8" class="animable"></path><path d="M505,293.42a2.37,2.37,0,0,0-2.38,2.37v22.54a2.38,2.38,0,1,0,4.75,0V295.79A2.37,2.37,0,0,0,505,293.42Z" style="fill: rgb(38, 50, 56); transform-origin: 504.995px 307.142px;" id="elc93uh3op6xf" class="animable"></path><path d="M534,293.42a2.37,2.37,0,0,0-2.37,2.37v22.54a2.37,2.37,0,1,0,4.74,0V295.79A2.37,2.37,0,0,0,534,293.42Z" style="fill: rgb(38, 50, 56); transform-origin: 534px 307.06px;" id="el2yqswi6ujak" class="animable"></path><path d="M541.23,293.42a2.37,2.37,0,0,0-2.37,2.37v22.54a2.37,2.37,0,1,0,4.74,0V295.79A2.37,2.37,0,0,0,541.23,293.42Z" style="fill: rgb(38, 50, 56); transform-origin: 541.23px 307.06px;" id="el8l2fveuvvyt" class="animable"></path><path d="M548.47,293.42a2.37,2.37,0,0,0-2.37,2.37v22.54a2.37,2.37,0,1,0,4.74,0V295.79A2.37,2.37,0,0,0,548.47,293.42Z" style="fill: rgb(38, 50, 56); transform-origin: 548.47px 307.065px;" id="elg7rwe3rxe6l" class="animable"></path><path d="M555.71,293.42a2.37,2.37,0,0,0-2.37,2.37v22.54a2.37,2.37,0,1,0,4.74,0V295.79A2.37,2.37,0,0,0,555.71,293.42Z" style="fill: rgb(38, 50, 56); transform-origin: 555.71px 307.065px;" id="elgzc998asl9u" class="animable"></path><path d="M302.49,293.42a2.37,2.37,0,0,0-2.37,2.37v22.54a2.37,2.37,0,1,0,4.74,0V295.79A2.37,2.37,0,0,0,302.49,293.42Z" style="fill: rgb(38, 50, 56); transform-origin: 302.49px 307.06px;" id="elo0r8kclgg3c" class="animable"></path><path d="M309.73,293.42a2.37,2.37,0,0,0-2.37,2.37v22.54a2.38,2.38,0,1,0,4.75,0V295.79A2.38,2.38,0,0,0,309.73,293.42Z" style="fill: rgb(38, 50, 56); transform-origin: 309.735px 307.142px;" id="el5d6prz3juic" class="animable"></path><path d="M317,293.42a2.37,2.37,0,0,0-2.37,2.37v22.54a2.38,2.38,0,1,0,4.75,0V295.79A2.38,2.38,0,0,0,317,293.42Z" style="fill: rgb(38, 50, 56); transform-origin: 317.005px 307.142px;" id="eld5gw1ox1xns" class="animable"></path><path d="M439.86,293.42a2.38,2.38,0,0,0-2.38,2.37v22.54a2.38,2.38,0,1,0,4.75,0V295.79A2.37,2.37,0,0,0,439.86,293.42Z" style="fill: rgb(38, 50, 56); transform-origin: 439.855px 307.142px;" id="elrfhg6fk70xo" class="animable"></path><path d="M403.65,293.42a2.37,2.37,0,0,0-2.37,2.37v22.54a2.38,2.38,0,1,0,4.75,0V295.79A2.38,2.38,0,0,0,403.65,293.42Z" style="fill: rgb(38, 50, 56); transform-origin: 403.655px 307.142px;" id="el106n7muxjfvq" class="animable"></path><rect x="328.87" y="283.42" width="4.75" height="47.29" rx="2.37" style="fill: rgb(38, 50, 56); transform-origin: 331.245px 307.065px;" id="elhdwkup48mqp" class="animable"></rect><path d="M345.73,283.42a2.38,2.38,0,0,0-2.38,2.37v42.54a2.38,2.38,0,1,0,4.75,0V285.79A2.37,2.37,0,0,0,345.73,283.42Z" style="fill: rgb(38, 50, 56); transform-origin: 345.725px 307.142px;" id="elqpjmgvou3zb" class="animable"></path><path d="M367.45,283.42a2.37,2.37,0,0,0-2.37,2.37v42.54a2.37,2.37,0,1,0,4.74,0V285.79A2.37,2.37,0,0,0,367.45,283.42Z" style="fill: rgb(38, 50, 56); transform-origin: 367.45px 307.06px;" id="elylv75moqmz8" class="animable"></path><path d="M381.93,283.42a2.37,2.37,0,0,0-2.37,2.37v42.54a2.37,2.37,0,1,0,4.74,0V285.79A2.37,2.37,0,0,0,381.93,283.42Z" style="fill: rgb(38, 50, 56); transform-origin: 381.93px 307.06px;" id="el3l2h4luj2f8" class="animable"></path><path d="M410.89,283.42a2.37,2.37,0,0,0-2.37,2.37v42.54a2.38,2.38,0,1,0,4.75,0V285.79A2.38,2.38,0,0,0,410.89,283.42Z" style="fill: rgb(38, 50, 56); transform-origin: 410.895px 307.142px;" id="el1fcd89bug9h" class="animable"></path><path d="M447.1,283.42a2.37,2.37,0,0,0-2.37,2.37v42.54a2.37,2.37,0,1,0,4.74,0V285.79A2.37,2.37,0,0,0,447.1,283.42Z" style="fill: rgb(38, 50, 56); transform-origin: 447.1px 307.065px;" id="el8xxa78t4r63" class="animable"></path><rect x="451.97" y="283.42" width="4.75" height="47.29" rx="2.37" style="fill: rgb(38, 50, 56); transform-origin: 454.345px 307.065px;" id="elwnfd4lpicnr" class="animable"></rect><path d="M461.58,283.42a2.37,2.37,0,0,0-2.37,2.37v42.54a2.37,2.37,0,1,0,4.74,0V285.79A2.37,2.37,0,0,0,461.58,283.42Z" style="fill: rgb(38, 50, 56); transform-origin: 461.58px 307.065px;" id="elp75op3eh0i" class="animable"></path><path d="M468.82,283.42a2.37,2.37,0,0,0-2.37,2.37v42.54a2.37,2.37,0,1,0,4.74,0V285.79A2.37,2.37,0,0,0,468.82,283.42Z" style="fill: rgb(38, 50, 56); transform-origin: 468.82px 307.06px;" id="el54fup8ufcb5" class="animable"></path><rect x="509.89" y="283.42" width="4.75" height="47.29" rx="2.37" style="fill: rgb(38, 50, 56); transform-origin: 512.265px 307.065px;" id="el5b91wasvn4s" class="animable"></rect><path d="M526.75,283.42a2.38,2.38,0,0,0-2.38,2.37v42.54a2.38,2.38,0,1,0,4.75,0V285.79A2.37,2.37,0,0,0,526.75,283.42Z" style="fill: rgb(38, 50, 56); transform-origin: 526.745px 307.142px;" id="ely9ikgcj2m1l" class="animable"></path><path d="M338.49,273.42a2.38,2.38,0,0,0-2.38,2.37v62.54a2.38,2.38,0,1,0,4.75,0V275.79A2.37,2.37,0,0,0,338.49,273.42Z" style="fill: rgb(38, 50, 56); transform-origin: 338.485px 307.142px;" id="elofldmgqq71" class="animable"></path><path d="M360.21,273.42a2.37,2.37,0,0,0-2.37,2.37v62.54a2.37,2.37,0,1,0,4.74,0V275.79A2.37,2.37,0,0,0,360.21,273.42Z" style="fill: rgb(38, 50, 56); transform-origin: 360.21px 307.06px;" id="elo5xjsnwdye" class="animable"></path><path d="M418.13,273.42a2.37,2.37,0,0,0-2.37,2.37v62.54a2.38,2.38,0,1,0,4.75,0V275.79A2.37,2.37,0,0,0,418.13,273.42Z" style="fill: rgb(38, 50, 56); transform-origin: 418.135px 307.142px;" id="el18phk8y8l2c" class="animable"></path><path d="M425.38,273.42a2.38,2.38,0,0,0-2.38,2.37v62.54a2.38,2.38,0,1,0,4.75,0V275.79A2.37,2.37,0,0,0,425.38,273.42Z" style="fill: rgb(38, 50, 56); transform-origin: 425.375px 307.142px;" id="eldrbddausb2g" class="animable"></path><path d="M483.3,273.42a2.37,2.37,0,0,0-2.37,2.37v62.54a2.38,2.38,0,1,0,4.75,0V275.79A2.38,2.38,0,0,0,483.3,273.42Z" style="fill: rgb(38, 50, 56); transform-origin: 483.305px 307.142px;" id="elf8vbwiyrjgc" class="animable"></path><path d="M490.54,273.42a2.37,2.37,0,0,0-2.37,2.37v62.54a2.38,2.38,0,1,0,4.75,0V275.79A2.38,2.38,0,0,0,490.54,273.42Z" style="fill: rgb(38, 50, 56); transform-origin: 490.545px 307.142px;" id="el3u196qwog2u" class="animable"></path><path d="M519.51,273.42a2.38,2.38,0,0,0-2.38,2.37v62.54a2.38,2.38,0,1,0,4.75,0V275.79A2.37,2.37,0,0,0,519.51,273.42Z" style="fill: rgb(38, 50, 56); transform-origin: 519.505px 307.142px;" id="elgfbpcy8p96" class="animable"></path><g id="elm62wke259q"><circle cx="248.27" cy="309.85" r="35.52" style="fill: rgb(38, 50, 56); transform-origin: 248.27px 309.85px; transform: rotate(-45deg);" class="animable"></circle></g><polygon points="274.59 309.85 232.12 285.33 232.12 334.37 274.59 309.85" style="fill: rgb(146, 227, 169); stroke: rgb(38, 50, 56); stroke-miterlimit: 10; transform-origin: 253.355px 309.85px;" id="elkbl6vncxgdr" class="animable"></polygon></g><defs>     <filter id="active" height="200%">         <feMorphology in="SourceAlpha" result="DILATED" operator="dilate" radius="2"></feMorphology>                <feFlood flood-color="#32DFEC" flood-opacity="1" result="PINK"></feFlood>        <feComposite in="PINK" in2="DILATED" operator="in" result="OUTLINE"></feComposite>        <feMerge>            <feMergeNode in="OUTLINE"></feMergeNode>            <feMergeNode in="SourceGraphic"></feMergeNode>        </feMerge>    </filter>    <filter id="hover" height="200%">        <feMorphology in="SourceAlpha" result="DILATED" operator="dilate" radius="2"></feMorphology>                <feFlood flood-color="#ff0000" flood-opacity="0.5" result="PINK"></feFlood>        <feComposite in="PINK" in2="DILATED" operator="in" result="OUTLINE"></feComposite>        <feMerge>            <feMergeNode in="OUTLINE"></feMergeNode>            <feMergeNode in="SourceGraphic"></feMergeNode>        </feMerge>            <feColorMatrix type="matrix" values="0   0   0   0   0                0   1   0   0   0                0   0   0   0   0                0   0   0   1   0 "></feColorMatrix>    </filter></defs></svg>