<svg xmlns="http://www.w3.org/2000/svg" viewBox="0 0 750 500"><g id="freepik--background-complete--inject-21"><circle cx="231.9" cy="88.26" r="32.87" transform="matrix(0.23, -0.97, 0.97, 0.23, 93.4, 294.14)" style="fill:#ebebeb"></circle><path d="M223.21,89.26V79.68a3.24,3.24,0,0,1,4.86-2.8l8.29,4.79,8.29,4.79a3.24,3.24,0,0,1,0,5.61l-8.29,4.78-8.29,4.79a3.24,3.24,0,0,1-4.86-2.8Z" style="fill:#fff"></path><path d="M518.48,101.09h0a18.54,18.54,0,0,1-18.54-18.53V60.79a18.53,18.53,0,0,1,18.54-18.53h0A18.53,18.53,0,0,1,537,60.79V82.56A18.53,18.53,0,0,1,518.48,101.09Z" style="fill:#ebebeb"></path><path d="M518.48,112.38A27.39,27.39,0,0,1,491.12,85h2.65a24.74,24.74,0,0,0,24.7,24.71c14.55,0,24.71-10.18,24.71-24.71h2.65C545.83,101.11,534.58,112.36,518.48,112.38Z" style="fill:#ebebeb"></path><rect x="517.15" y="111.03" width="2.65" height="13.39" style="fill:#ebebeb"></rect><rect x="502.3" y="122.52" width="32.35" height="2.65" style="fill:#ebebeb"></rect><path d="M491.16,54.38c-1,0-2.45-.53-4.78-1.52-3.95-1.68-5.27-2.53-4.81-3.94l.19-.55.62-.32c1.38-.62,4.88.81,5.57,1.1s4.15,1.83,4.66,3.25l.2.55-.27.63h0A1.41,1.41,0,0,1,491.16,54.38Z" style="fill:#ebebeb"></path><path d="M501.74,40.51c-.84,0-2.12-.94-4.79-4.56-3.16-4.29-3-5.33-2.94-5.67l.08-.55L495,29l.64.06c.34.05,1.38.21,4.54,4.5,3.69,5,3.26,6,2.38,6.62h0A1.31,1.31,0,0,1,501.74,40.51Z" style="fill:#ebebeb"></path><path d="M518.06,35.49l-.5-.43c-.25-.24-1-1-1-6s.83-5.76,1.09-6l.42-.39h.67c.81.06,1.92.15,1.85,6.42s-1.18,6.32-2,6.37Z" style="fill:#ebebeb"></path><path d="M534.32,39.09l-.55-.44c-1.17-1.07-.12-2.59,2.17-5.63s3.45-4.47,4.82-3.65l.51.29.18.7c.32,1.57-2,4.72-2.29,5.08s-2.65,3.47-4.24,3.6Z" style="fill:#ebebeb"></path><path d="M546.31,54.18a1.31,1.31,0,0,1-1.27-.75c-.71-1.25.66-2.31,1.32-2.83a26.81,26.81,0,0,1,3-2c4.92-2.8,5.82-2.17,6.33-1.28.7,1.24-.66,2.31-1.32,2.82a26.34,26.34,0,0,1-3,2C548.68,53.67,547.19,54.18,546.31,54.18Z" style="fill:#ebebeb"></path><path d="M406.35,430.3a3,3,0,0,1-3-3V383.67a3,3,0,0,1,6.05,0v43.61A3,3,0,0,1,406.35,430.3Z" style="fill:#e0e0e0"></path><path d="M392.17,423.48a3,3,0,0,1-3-3v-30a3,3,0,0,1,6.05,0v30A3,3,0,0,1,392.17,423.48Z" style="fill:#e0e0e0"></path><path d="M420.54,423.48a3,3,0,0,1-3-3v-30a3,3,0,0,1,6.05,0v30A3,3,0,0,1,420.54,423.48Z" style="fill:#e0e0e0"></path><path d="M434.72,417.36a3,3,0,0,1-3-3V396.61a3,3,0,0,1,6.05,0v17.73A3,3,0,0,1,434.72,417.36Z" style="fill:#e0e0e0"></path><path d="M661.62,430.3a3,3,0,0,1-3-3V383.67a3,3,0,0,1,6,0v43.61A3,3,0,0,1,661.62,430.3Z" style="fill:#e0e0e0"></path><path d="M647.44,423.48a3,3,0,0,1-3-3v-30a3,3,0,0,1,6.05,0v30A3,3,0,0,1,647.44,423.48Z" style="fill:#e0e0e0"></path><path d="M675.81,423.48a3,3,0,0,1-3-3v-30a3,3,0,0,1,6.05,0v30A3,3,0,0,1,675.81,423.48Z" style="fill:#e0e0e0"></path><path d="M690,417.36a3,3,0,0,1-3-3V396.61a3,3,0,0,1,6,0v17.73A3,3,0,0,1,690,417.36Z" style="fill:#e0e0e0"></path><path d="M448.9,422.92a3,3,0,0,1-3-3V391.06a3,3,0,1,1,6.05,0v28.83A3,3,0,0,1,448.9,422.92Z" style="fill:#e0e0e0"></path><path d="M463.08,429.22a3,3,0,0,1-3-3V384.75a3,3,0,0,1,6.05,0v41.44A3,3,0,0,1,463.08,429.22Z" style="fill:#e0e0e0"></path><path d="M477.26,436.77a3,3,0,0,1-3-3V377.2a3,3,0,1,1,6.05,0v56.55A3,3,0,0,1,477.26,436.77Z" style="fill:#e0e0e0"></path><path d="M491.44,429.54a3,3,0,0,1-3-3V384.43a3,3,0,0,1,6.05,0v42.09A3,3,0,0,1,491.44,429.54Z" style="fill:#e0e0e0"></path><path d="M505.63,422.76a3,3,0,0,1-3-3V391.22a3,3,0,1,1,6,0v28.51A3,3,0,0,1,505.63,422.76Z" style="fill:#e0e0e0"></path><path d="M519.81,419.13a3,3,0,0,1-3-3V394.84a3,3,0,0,1,6.05,0v21.27A3,3,0,0,1,519.81,419.13Z" style="fill:#e0e0e0"></path><path d="M534,430a3,3,0,0,1-3-3V384a3,3,0,1,1,6,0v43A3,3,0,0,1,534,430Z" style="fill:#e0e0e0"></path><path d="M590.72,430a3,3,0,0,1-3-3V384a3,3,0,1,1,6,0v43A3,3,0,0,1,590.72,430Z" style="fill:#e0e0e0"></path><path d="M548.17,436.77a3,3,0,0,1-3-3V377.2a3,3,0,1,1,6.05,0v56.55A3,3,0,0,1,548.17,436.77Z" style="fill:#e0e0e0"></path><path d="M562.35,448.21a3,3,0,0,1-3-3V365.76a3,3,0,0,1,6,0v79.43A3,3,0,0,1,562.35,448.21Z" style="fill:#e0e0e0"></path><path d="M576.53,436.77a3,3,0,0,1-3-3V377.2a3,3,0,1,1,6,0v56.55A3,3,0,0,1,576.53,436.77Z" style="fill:#e0e0e0"></path><path d="M604.9,419.13a3,3,0,0,1-3-3V394.84a3,3,0,0,1,6,0v21.27A3,3,0,0,1,604.9,419.13Z" style="fill:#e0e0e0"></path><path d="M633.26,419.13a3,3,0,0,1-3-3V394.84a3,3,0,0,1,6,0v21.27A3,3,0,0,1,633.26,419.13Z" style="fill:#e0e0e0"></path><path d="M619.08,415.58a3,3,0,0,1-3-3V398.39a3,3,0,0,1,6.05,0v14.17A3,3,0,0,1,619.08,415.58Z" style="fill:#e0e0e0"></path><path d="M378,419.13a3,3,0,0,1-3-3V394.84a3,3,0,0,1,6,0v21.27A3,3,0,0,1,378,419.13Z" style="fill:#e0e0e0"></path><path d="M240.09,253.72a2.22,2.22,0,0,1-2.22-2.22v-32a2.22,2.22,0,1,1,4.44,0v32A2.22,2.22,0,0,1,240.09,253.72Z" style="fill:#f5f5f5"></path><path d="M229.68,248.71a2.22,2.22,0,0,1-2.22-2.22v-22a2.22,2.22,0,0,1,4.44,0v22A2.21,2.21,0,0,1,229.68,248.71Z" style="fill:#f5f5f5"></path><path d="M250.5,248.71a2.21,2.21,0,0,1-2.22-2.22v-22a2.22,2.22,0,0,1,4.44,0v22A2.22,2.22,0,0,1,250.5,248.71Z" style="fill:#f5f5f5"></path><path d="M260.9,244.22a2.22,2.22,0,0,1-2.22-2.22V229a2.22,2.22,0,0,1,4.44,0v13A2.21,2.21,0,0,1,260.9,244.22Z" style="fill:#f5f5f5"></path><path d="M427.4,253.72a2.23,2.23,0,0,1-2.22-2.22v-32a2.22,2.22,0,0,1,4.44,0v32A2.22,2.22,0,0,1,427.4,253.72Z" style="fill:#f5f5f5"></path><path d="M417,248.71a2.21,2.21,0,0,1-2.22-2.22v-22a2.22,2.22,0,0,1,4.44,0v22A2.22,2.22,0,0,1,417,248.71Z" style="fill:#f5f5f5"></path><path d="M437.81,248.71a2.21,2.21,0,0,1-2.22-2.22v-22a2.22,2.22,0,1,1,4.44,0v22A2.22,2.22,0,0,1,437.81,248.71Z" style="fill:#f5f5f5"></path><path d="M448.22,244.22A2.21,2.21,0,0,1,446,242V229a2.22,2.22,0,0,1,4.43,0v13A2.21,2.21,0,0,1,448.22,244.22Z" style="fill:#f5f5f5"></path><path d="M271.31,248.3a2.22,2.22,0,0,1-2.22-2.22V224.92a2.22,2.22,0,1,1,4.44,0v21.16A2.23,2.23,0,0,1,271.31,248.3Z" style="fill:#f5f5f5"></path><path d="M281.71,252.92a2.21,2.21,0,0,1-2.21-2.22V220.29a2.22,2.22,0,1,1,4.43,0V250.7A2.21,2.21,0,0,1,281.71,252.92Z" style="fill:#f5f5f5"></path><path d="M292.12,258.46a2.22,2.22,0,0,1-2.22-2.22V214.75a2.22,2.22,0,1,1,4.44,0v41.49A2.21,2.21,0,0,1,292.12,258.46Z" style="fill:#f5f5f5"></path><path d="M302.53,253.16a2.22,2.22,0,0,1-2.22-2.22V220.06a2.22,2.22,0,0,1,4.44,0v30.88A2.23,2.23,0,0,1,302.53,253.16Z" style="fill:#f5f5f5"></path><path d="M312.93,248.18a2.22,2.22,0,0,1-2.22-2.22V225a2.22,2.22,0,1,1,4.44,0V246A2.21,2.21,0,0,1,312.93,248.18Z" style="fill:#f5f5f5"></path><path d="M323.34,245.52a2.21,2.21,0,0,1-2.22-2.22V227.69a2.22,2.22,0,0,1,4.44,0V243.3A2.21,2.21,0,0,1,323.34,245.52Z" style="fill:#f5f5f5"></path><path d="M333.75,253.5a2.21,2.21,0,0,1-2.22-2.22V219.71a2.22,2.22,0,0,1,4.44,0v31.57A2.22,2.22,0,0,1,333.75,253.5Z" style="fill:#f5f5f5"></path><path d="M375.37,253.5a2.21,2.21,0,0,1-2.22-2.22V219.71a2.22,2.22,0,1,1,4.44,0v31.57A2.21,2.21,0,0,1,375.37,253.5Z" style="fill:#f5f5f5"></path><path d="M344.15,258.46a2.22,2.22,0,0,1-2.22-2.22V214.75a2.22,2.22,0,0,1,4.44,0v41.49A2.21,2.21,0,0,1,344.15,258.46Z" style="fill:#f5f5f5"></path><path d="M354.56,266.86a2.22,2.22,0,0,1-2.22-2.22V206.36a2.22,2.22,0,1,1,4.44,0v58.28A2.23,2.23,0,0,1,354.56,266.86Z" style="fill:#f5f5f5"></path><path d="M365,258.46a2.21,2.21,0,0,1-2.21-2.22V214.75a2.22,2.22,0,1,1,4.43,0v41.49A2.21,2.21,0,0,1,365,258.46Z" style="fill:#f5f5f5"></path><path d="M385.78,245.52a2.21,2.21,0,0,1-2.22-2.22V227.69a2.22,2.22,0,0,1,4.44,0V243.3A2.22,2.22,0,0,1,385.78,245.52Z" style="fill:#f5f5f5"></path><path d="M406.59,245.52a2.21,2.21,0,0,1-2.22-2.22V227.69a2.22,2.22,0,0,1,4.44,0V243.3A2.21,2.21,0,0,1,406.59,245.52Z" style="fill:#f5f5f5"></path><path d="M396.18,242.91A2.22,2.22,0,0,1,394,240.7V230.3a2.22,2.22,0,1,1,4.44,0v10.4A2.21,2.21,0,0,1,396.18,242.91Z" style="fill:#f5f5f5"></path><path d="M219.28,245.52a2.21,2.21,0,0,1-2.22-2.22V227.69a2.22,2.22,0,1,1,4.44,0V243.3A2.22,2.22,0,0,1,219.28,245.52Z" style="fill:#f5f5f5"></path><path d="M312.78,253.72a2.23,2.23,0,0,1-2.22-2.22v-32a2.22,2.22,0,0,1,4.44,0v32A2.22,2.22,0,0,1,312.78,253.72Z" style="fill:#f5f5f5"></path><path d="M302.38,248.71a2.21,2.21,0,0,1-2.22-2.22v-22a2.22,2.22,0,0,1,4.44,0v22A2.22,2.22,0,0,1,302.38,248.71Z" style="fill:#f5f5f5"></path><path d="M323.19,248.71a2.21,2.21,0,0,1-2.22-2.22v-22a2.22,2.22,0,0,1,4.44,0v22A2.21,2.21,0,0,1,323.19,248.71Z" style="fill:#f5f5f5"></path><path d="M333.6,244.22a2.21,2.21,0,0,1-2.22-2.22V229a2.22,2.22,0,0,1,4.44,0v13A2.22,2.22,0,0,1,333.6,244.22Z" style="fill:#f5f5f5"></path><path d="M500.1,253.72a2.22,2.22,0,0,1-2.22-2.22v-32a2.22,2.22,0,1,1,4.44,0v32A2.23,2.23,0,0,1,500.1,253.72Z" style="fill:#f5f5f5"></path><path d="M489.69,248.71a2.21,2.21,0,0,1-2.22-2.22v-22a2.22,2.22,0,0,1,4.44,0v22A2.21,2.21,0,0,1,489.69,248.71Z" style="fill:#f5f5f5"></path><path d="M510.5,248.71a2.22,2.22,0,0,1-2.22-2.22v-22a2.22,2.22,0,0,1,4.44,0v22A2.21,2.21,0,0,1,510.5,248.71Z" style="fill:#f5f5f5"></path><path d="M520.91,244.22a2.21,2.21,0,0,1-2.22-2.22V229a2.22,2.22,0,0,1,4.44,0v13A2.22,2.22,0,0,1,520.91,244.22Z" style="fill:#f5f5f5"></path><path d="M344,248.3a2.23,2.23,0,0,1-2.22-2.22V224.92a2.22,2.22,0,0,1,4.44,0v21.16A2.22,2.22,0,0,1,344,248.3Z" style="fill:#f5f5f5"></path><path d="M354.41,252.92a2.21,2.21,0,0,1-2.22-2.22V220.29a2.22,2.22,0,1,1,4.44,0V250.7A2.22,2.22,0,0,1,354.41,252.92Z" style="fill:#f5f5f5"></path><path d="M364.81,258.46a2.21,2.21,0,0,1-2.21-2.22V214.75a2.22,2.22,0,1,1,4.43,0v41.49A2.21,2.21,0,0,1,364.81,258.46Z" style="fill:#f5f5f5"></path><path d="M375.22,253.16a2.22,2.22,0,0,1-2.22-2.22V220.06a2.22,2.22,0,1,1,4.44,0v30.88A2.22,2.22,0,0,1,375.22,253.16Z" style="fill:#f5f5f5"></path><path d="M385.63,248.18a2.21,2.21,0,0,1-2.22-2.22V225a2.22,2.22,0,0,1,4.44,0V246A2.22,2.22,0,0,1,385.63,248.18Z" style="fill:#f5f5f5"></path><path d="M396,245.52a2.22,2.22,0,0,1-2.22-2.22V227.69a2.22,2.22,0,0,1,4.44,0V243.3A2.21,2.21,0,0,1,396,245.52Z" style="fill:#f5f5f5"></path><path d="M406.44,253.5a2.21,2.21,0,0,1-2.22-2.22V219.71a2.22,2.22,0,0,1,4.44,0v31.57A2.21,2.21,0,0,1,406.44,253.5Z" style="fill:#f5f5f5"></path><path d="M448.06,253.5a2.21,2.21,0,0,1-2.21-2.22V219.71a2.22,2.22,0,1,1,4.43,0v31.57A2.21,2.21,0,0,1,448.06,253.5Z" style="fill:#f5f5f5"></path><path d="M416.85,258.46a2.21,2.21,0,0,1-2.22-2.22V214.75a2.22,2.22,0,1,1,4.44,0v41.49A2.22,2.22,0,0,1,416.85,258.46Z" style="fill:#f5f5f5"></path><path d="M427.25,266.86a2.23,2.23,0,0,1-2.22-2.22V206.36a2.22,2.22,0,0,1,4.44,0v58.28A2.22,2.22,0,0,1,427.25,266.86Z" style="fill:#f5f5f5"></path><path d="M437.66,258.46a2.21,2.21,0,0,1-2.22-2.22V214.75a2.22,2.22,0,1,1,4.44,0v41.49A2.22,2.22,0,0,1,437.66,258.46Z" style="fill:#f5f5f5"></path><path d="M458.47,245.52a2.22,2.22,0,0,1-2.22-2.22V227.69a2.22,2.22,0,1,1,4.44,0V243.3A2.21,2.21,0,0,1,458.47,245.52Z" style="fill:#f5f5f5"></path><path d="M479.28,245.52a2.22,2.22,0,0,1-2.22-2.22V227.69a2.22,2.22,0,0,1,4.44,0V243.3A2.21,2.21,0,0,1,479.28,245.52Z" style="fill:#f5f5f5"></path><path d="M468.88,242.91a2.21,2.21,0,0,1-2.22-2.21V230.3a2.22,2.22,0,0,1,4.44,0v10.4A2.22,2.22,0,0,1,468.88,242.91Z" style="fill:#f5f5f5"></path><path d="M292,245.52a2.21,2.21,0,0,1-2.22-2.22V227.69a2.22,2.22,0,1,1,4.44,0V243.3A2.21,2.21,0,0,1,292,245.52Z" style="fill:#f5f5f5"></path><path d="M84.68,430.3a3,3,0,0,1-3-3V383.67a3,3,0,0,1,6,0v43.61A3,3,0,0,1,84.68,430.3Z" style="fill:#e0e0e0"></path><path d="M70.5,423.48a3,3,0,0,1-3-3v-30a3,3,0,0,1,6,0v30A3,3,0,0,1,70.5,423.48Z" style="fill:#e0e0e0"></path><path d="M98.86,423.48a3,3,0,0,1-3-3v-30a3,3,0,0,1,6,0v30A3,3,0,0,1,98.86,423.48Z" style="fill:#e0e0e0"></path><path d="M113,417.36a3,3,0,0,1-3-3V396.61a3,3,0,0,1,6,0v17.73A3,3,0,0,1,113,417.36Z" style="fill:#e0e0e0"></path><path d="M340,430.3a3,3,0,0,1-3-3V383.67a3,3,0,0,1,6.05,0v43.61A3,3,0,0,1,340,430.3Z" style="fill:#e0e0e0"></path><path d="M325.77,423.48a3,3,0,0,1-3-3v-30a3,3,0,0,1,6.05,0v30A3,3,0,0,1,325.77,423.48Z" style="fill:#e0e0e0"></path><path d="M354.13,423.48a3,3,0,0,1-3-3v-30a3,3,0,0,1,6,0v30A3,3,0,0,1,354.13,423.48Z" style="fill:#e0e0e0"></path><path d="M368.31,417.36a3,3,0,0,1-3-3V396.61a3,3,0,0,1,6,0v17.73A3,3,0,0,1,368.31,417.36Z" style="fill:#e0e0e0"></path><path d="M127.22,422.92a3,3,0,0,1-3-3V391.06a3,3,0,1,1,6,0v28.83A3,3,0,0,1,127.22,422.92Z" style="fill:#e0e0e0"></path><path d="M141.4,429.22a3,3,0,0,1-3-3V384.75a3,3,0,0,1,6.05,0v41.44A3,3,0,0,1,141.4,429.22Z" style="fill:#e0e0e0"></path><path d="M155.59,436.77a3,3,0,0,1-3-3V377.2a3,3,0,1,1,6.05,0v56.55A3,3,0,0,1,155.59,436.77Z" style="fill:#e0e0e0"></path><path d="M169.77,429.54a3,3,0,0,1-3-3V384.43a3,3,0,0,1,6,0v42.09A3,3,0,0,1,169.77,429.54Z" style="fill:#e0e0e0"></path><path d="M184,422.76a3,3,0,0,1-3-3V391.22a3,3,0,1,1,6,0v28.51A3,3,0,0,1,184,422.76Z" style="fill:#e0e0e0"></path><path d="M198.13,419.13a3,3,0,0,1-3-3V394.84a3,3,0,0,1,6,0v21.27A3,3,0,0,1,198.13,419.13Z" style="fill:#e0e0e0"></path><path d="M212.31,430a3,3,0,0,1-3-3V384a3,3,0,1,1,6.05,0v43A3,3,0,0,1,212.31,430Z" style="fill:#e0e0e0"></path><path d="M269,430a3,3,0,0,1-3-3V384a3,3,0,1,1,6.05,0v43A3,3,0,0,1,269,430Z" style="fill:#e0e0e0"></path><path d="M226.49,436.77a3,3,0,0,1-3-3V377.2a3,3,0,1,1,6.05,0v56.55A3,3,0,0,1,226.49,436.77Z" style="fill:#e0e0e0"></path><path d="M240.68,448.21a3,3,0,0,1-3-3V365.76a3,3,0,0,1,6,0v79.43A3,3,0,0,1,240.68,448.21Z" style="fill:#e0e0e0"></path><path d="M254.86,436.77a3,3,0,0,1-3-3V377.2a3,3,0,1,1,6,0v56.55A3,3,0,0,1,254.86,436.77Z" style="fill:#e0e0e0"></path><path d="M283.22,419.13a3,3,0,0,1-3-3V394.84a3,3,0,0,1,6.05,0v21.27A3,3,0,0,1,283.22,419.13Z" style="fill:#e0e0e0"></path><path d="M311.58,419.13a3,3,0,0,1-3-3V394.84a3,3,0,0,1,6.05,0v21.27A3,3,0,0,1,311.58,419.13Z" style="fill:#e0e0e0"></path><path d="M297.4,415.58a3,3,0,0,1-3-3V398.39a3,3,0,0,1,6.05,0v14.17A3,3,0,0,1,297.4,415.58Z" style="fill:#e0e0e0"></path><path d="M56.31,419.13a3,3,0,0,1-3-3V394.84a3,3,0,0,1,6.05,0v21.27A3,3,0,0,1,56.31,419.13Z" style="fill:#e0e0e0"></path><rect x="664.69" y="105.92" width="49.63" height="13.13" style="fill:#f5f5f5"></rect><path d="M693.33,132.88a2.07,2.07,0,0,1,0-.23l0-.68q0-.93,0-2.58c0-2.27,0-5.53-.09-9.64l.15.16-49.63.1c.11-.12-.25.25.25-.26h0v13.12l-.25-.24,35.37.11,10.44.07,2.82,0,.74,0h.26s-.07,0-.23,0l-.7,0-2.77,0-10.39.07-35.54.11h-.25V119.76h0l.25-.25,49.63.1h.16v.15c0,4.15-.07,7.44-.09,9.73,0,1.09,0,1.94,0,2.55,0,.26,0,.48,0,.65S693.34,132.89,693.33,132.88Z" style="fill:#e0e0e0"></path><rect x="360.81" y="16.51" width="49.63" height="13.13" style="fill:#f5f5f5"></rect><path d="M389.46,43.47a1.1,1.1,0,0,1,0-.24v-.67c0-.62,0-1.48,0-2.59,0-2.26-.05-5.52-.09-9.63l.16.15-49.63.1.25-.25h0V43.47l-.25-.25,35.37.12,10.44.07,2.83,0h.74l.26,0-.23,0h-.71l-2.77,0-10.38.07-35.55.11h-.25V30.36h0c.51-.51.14-.14.26-.25l49.63.1h.15v.15c0,4.15-.06,7.44-.08,9.73,0,1.09,0,1.94,0,2.55,0,.26,0,.47,0,.64A1.31,1.31,0,0,1,389.46,43.47Z" style="fill:#e0e0e0"></path><rect x="67.66" y="283.78" width="49.63" height="13.13" style="fill:#f5f5f5"></rect><path d="M96.3,310.74s0-.09,0-.24l0-.67,0-2.59c0-2.26,0-5.52-.08-9.63l.15.15-49.63.1.25-.25h0v13.11l-.25-.25L82,310.6l10.44.07,2.82,0H96l.26,0-.23,0h-.71l-2.77,0-10.38.07L46.67,311h-.25V297.63h0l.25-.25,49.63.09h.16v.16c0,4.15-.07,7.44-.09,9.72,0,1.09,0,1.94,0,2.55,0,.27,0,.48,0,.65A.85.85,0,0,1,96.3,310.74Z" style="fill:#e0e0e0"></path><path d="M684.1,281.1a2.07,2.07,0,0,1,0-.23l0-.68q0-.93,0-2.58c0-2.27,0-5.53-.09-9.64l.15.16-49.63.1.25-.26h0V281.1l-.25-.24,35.37.11,10.44.07,2.82,0,.74,0h.26s-.07,0-.23,0l-.7,0-2.77,0-10.39.07-35.54.11h-.25V268h0l.25-.25,49.63.1h.16V268c0,4.15-.07,7.44-.09,9.73,0,1.09,0,1.94,0,2.55l0,.65C684.11,281,684.11,281.11,684.1,281.1Z" style="fill:#e0e0e0"></path><path d="M690.83,268s0-.09,0-.25,0-.41,0-.69c0-.65,0-1.53,0-2.63,0-2.31-.06-5.56-.1-9.56l.18.18L661,255.1c-.22.22.31-.31.25-.26h0v6.76c0,2.19,0,4.32,0,6.36l-.24-.24,21.33.12,6.22.06,1.67,0,.6,0a3.35,3.35,0,0,1-.54,0l-1.62,0-6.16.07-21.5.11h-.24V268c0-2,0-4.17,0-6.36v-6.76h0l.25-.25,29.82.07H691v.18c0,4-.08,7.34-.1,9.67,0,1.09,0,1.95,0,2.59A5,5,0,0,1,690.83,268Z" style="fill:#e0e0e0"></path><path d="M94.24,116.87s0-.09,0-.24,0-.4,0-.67c0-.62,0-1.48,0-2.59,0-2.26-.05-5.52-.09-9.63l.15.15-49.63.1.25-.25h0v13.11l-.25-.25,35.37.12,10.44.07,2.82,0H94a1.33,1.33,0,0,1,.26,0s-.07,0-.23,0h-.7l-2.77,0L80.15,117l-35.54.11h-.25V103.76h0l.25-.25,49.63.1h.16v.15c0,4.15-.07,7.44-.09,9.73,0,1.09,0,1.94,0,2.55,0,.26,0,.47,0,.64S94.25,116.88,94.24,116.87Z" style="fill:#e0e0e0"></path><path d="M101,103.74s0-.09,0-.25,0-.42,0-.7c0-.64,0-1.52,0-2.63,0-2.3-.06-5.55-.1-9.55l.18.18-29.82.07c-.22.23.31-.31.25-.25h0v6.74c0,2.2,0,4.33,0,6.37l-.24-.24,21.33.11,6.22.07,1.67,0,.6,0a3.35,3.35,0,0,1-.54,0l-1.62,0-6.16.07-21.5.11h-.24v-.24c0-2,0-4.17,0-6.37V90.63h0c-.06,0,.48-.48.25-.25l29.82.07h.19v.18c0,4-.08,7.33-.1,9.66,0,1.09,0,2,0,2.59A5.15,5.15,0,0,1,101,103.74Z" style="fill:#e0e0e0"></path></g><g id="freepik--Floor--inject-21"><path d="M675.5,473.34c0,.14-135.93.26-303.56.26s-303.59-.12-303.59-.26,135.9-.26,303.59-.26S675.5,473.19,675.5,473.34Z" style="fill:#263238"></path></g><g id="freepik--Device--inject-21"><path d="M448.32,473.94l-140.69-.65a30.75,30.75,0,0,1-30.51-31l1.5-354.91A30.73,30.73,0,0,1,309.4,56.7l140.69.65a30.75,30.75,0,0,1,30.51,31l-1.49,354.91A30.74,30.74,0,0,1,448.32,473.94Z" style="fill:#263238"></path><path d="M449.89,69.6l-27.27-.12L343,69.11l-9.59,0L309.48,69a21.54,21.54,0,0,0-21.56,21.51l-1.45,346.42a21.54,21.54,0,0,0,21.36,21.69l140.41.65a21.53,21.53,0,0,0,21.56-21.51l1.46-346.42A21.54,21.54,0,0,0,449.89,69.6Z" style="fill:#fff"></path><path d="M453.61,95.75a1.74,1.74,0,1,1-3.48,0,1.74,1.74,0,0,1,3.48,0Z" style="fill:#e0e0e0"></path><path d="M453.59,102a1.74,1.74,0,1,1-3.48,0,1.74,1.74,0,0,1,3.48,0Z" style="fill:#e0e0e0"></path><path d="M453.56,108.27a1.74,1.74,0,1,1-1.73-1.74A1.74,1.74,0,0,1,453.56,108.27Z" style="fill:#e0e0e0"></path><circle cx="315" cy="100.99" r="11.49" transform="translate(144.01 384.16) rotate(-76.65)" style="fill:#e0e0e0"></circle><rect x="351.18" y="99.68" width="66.57" height="7.89" rx="3.2" style="fill:#e0e0e0"></rect></g><g id="freepik--voice-chat--inject-21"><rect x="221.52" y="147.39" width="243.49" height="63" rx="29.91" style="fill:#fafafa"></rect><path d="M435.1,210.89H251.43A30.45,30.45,0,0,1,221,180.47V177.3a30.44,30.44,0,0,1,30.41-30.41H435.1a30.44,30.44,0,0,1,30.41,30.41v3.17A30.45,30.45,0,0,1,435.1,210.89Zm-183.67-63A29.44,29.44,0,0,0,222,177.3v3.17a29.45,29.45,0,0,0,29.41,29.42H435.1a29.45,29.45,0,0,0,29.41-29.42V177.3a29.45,29.45,0,0,0-29.41-29.41Z" style="fill:#263238"></path><path d="M296.4,192.39a1.5,1.5,0,0,1-1.5-1.5v-23a1.5,1.5,0,1,1,3,0v23A1.5,1.5,0,0,1,296.4,192.39Z" style="fill:#C2FA6B"></path><path d="M288.93,188.8a1.5,1.5,0,0,1-1.5-1.5V171.51a1.5,1.5,0,0,1,3,0V187.3A1.5,1.5,0,0,1,288.93,188.8Z" style="fill:#C2FA6B"></path><path d="M303.87,188.8a1.5,1.5,0,0,1-1.5-1.5V171.51a1.5,1.5,0,0,1,3,0V187.3A1.5,1.5,0,0,1,303.87,188.8Z" style="fill:#C2FA6B"></path><path d="M311.34,185.57a1.5,1.5,0,0,1-1.5-1.5v-9.33a1.5,1.5,0,0,1,3,0v9.33A1.5,1.5,0,0,1,311.34,185.57Z" style="fill:#C2FA6B"></path><path d="M430.85,192.39a1.5,1.5,0,0,1-1.5-1.5v-23a1.5,1.5,0,1,1,3,0v23A1.5,1.5,0,0,1,430.85,192.39Z" style="fill:#C2FA6B"></path><path d="M423.38,188.8a1.5,1.5,0,0,1-1.5-1.5V171.51a1.5,1.5,0,0,1,3,0V187.3A1.5,1.5,0,0,1,423.38,188.8Z" style="fill:#C2FA6B"></path><path d="M438.32,188.8a1.5,1.5,0,0,1-1.5-1.5V171.51a1.5,1.5,0,1,1,3,0V187.3A1.5,1.5,0,0,1,438.32,188.8Z" style="fill:#C2FA6B"></path><path d="M445.78,185.57a1.5,1.5,0,0,1-1.5-1.5v-9.33a1.5,1.5,0,0,1,3,0v9.33A1.5,1.5,0,0,1,445.78,185.57Z" style="fill:#C2FA6B"></path><path d="M318.81,188.5a1.5,1.5,0,0,1-1.5-1.5V171.81a1.5,1.5,0,0,1,3,0V187A1.5,1.5,0,0,1,318.81,188.5Z" style="fill:#C2FA6B"></path><path d="M326.28,191.82a1.5,1.5,0,0,1-1.5-1.5V168.49a1.5,1.5,0,0,1,3,0v21.83A1.5,1.5,0,0,1,326.28,191.82Z" style="fill:#C2FA6B"></path><path d="M333.75,195.8a1.5,1.5,0,0,1-1.5-1.5V164.51a1.5,1.5,0,0,1,3,0V194.3A1.5,1.5,0,0,1,333.75,195.8Z" style="fill:#C2FA6B"></path><path d="M341.22,192a1.5,1.5,0,0,1-1.5-1.5V168.32a1.5,1.5,0,0,1,3,0v22.17A1.5,1.5,0,0,1,341.22,192Z" style="fill:#C2FA6B"></path><path d="M348.68,188.42a1.51,1.51,0,0,1-1.5-1.5v-15a1.5,1.5,0,0,1,3,0v15A1.5,1.5,0,0,1,348.68,188.42Z" style="fill:#C2FA6B"></path><path d="M356.15,186.51a1.51,1.51,0,0,1-1.5-1.5v-11.2a1.5,1.5,0,0,1,3,0V185A1.5,1.5,0,0,1,356.15,186.51Z" style="fill:#C2FA6B"></path><path d="M363.62,192.23a1.5,1.5,0,0,1-1.5-1.5V168.08a1.5,1.5,0,0,1,3,0v22.65A1.5,1.5,0,0,1,363.62,192.23Z" style="fill:#C2FA6B"></path><path d="M393.5,192.23a1.5,1.5,0,0,1-1.5-1.5V168.08a1.5,1.5,0,0,1,3,0v22.65A1.5,1.5,0,0,1,393.5,192.23Z" style="fill:#C2FA6B"></path><path d="M371.09,195.8a1.5,1.5,0,0,1-1.5-1.5V164.51a1.5,1.5,0,1,1,3,0V194.3A1.5,1.5,0,0,1,371.09,195.8Z" style="fill:#C2FA6B"></path><path d="M378.56,201.82a1.5,1.5,0,0,1-1.5-1.5V158.49a1.5,1.5,0,1,1,3,0v41.83A1.5,1.5,0,0,1,378.56,201.82Z" style="fill:#C2FA6B"></path><path d="M386,195.8a1.5,1.5,0,0,1-1.5-1.5V164.51a1.5,1.5,0,0,1,3,0V194.3A1.5,1.5,0,0,1,386,195.8Z" style="fill:#C2FA6B"></path><path d="M401,186.51a1.5,1.5,0,0,1-1.5-1.5v-11.2a1.5,1.5,0,1,1,3,0V185A1.5,1.5,0,0,1,401,186.51Z" style="fill:#C2FA6B"></path><path d="M415.91,186.51a1.5,1.5,0,0,1-1.5-1.5v-11.2a1.5,1.5,0,0,1,3,0V185A1.5,1.5,0,0,1,415.91,186.51Z" style="fill:#C2FA6B"></path><path d="M408.44,184.64a1.5,1.5,0,0,1-1.5-1.5v-7.47a1.5,1.5,0,0,1,3,0v7.47A1.5,1.5,0,0,1,408.44,184.64Z" style="fill:#C2FA6B"></path><path d="M281.46,186.51A1.5,1.5,0,0,1,280,185v-11.2a1.5,1.5,0,0,1,3,0V185A1.5,1.5,0,0,1,281.46,186.51Z" style="fill:#C2FA6B"></path><circle cx="251.77" cy="178.76" r="21.19" style="fill:#C2FA6B"></circle><path d="M246.16,179.41v-6.18a2.09,2.09,0,0,1,3.13-1.81l5.35,3.09L260,177.6a2.08,2.08,0,0,1,0,3.61l-5.35,3.09-5.35,3.09a2.09,2.09,0,0,1-3.13-1.81Z" style="fill:#fff"></path><rect x="234.02" y="323.67" width="243.49" height="63" rx="29.91" style="fill:#fafafa"></rect><path d="M447.6,387.17H263.94a30.45,30.45,0,0,1-30.42-30.41v-3.18a30.45,30.45,0,0,1,30.42-30.41H447.6A30.44,30.44,0,0,1,478,353.58v3.18A30.44,30.44,0,0,1,447.6,387.17Zm-183.66-63a29.45,29.45,0,0,0-29.42,29.41v3.18a29.45,29.45,0,0,0,29.42,29.41H447.6A29.44,29.44,0,0,0,477,356.76v-3.18a29.45,29.45,0,0,0-29.41-29.41Z" style="fill:#263238"></path><path d="M308.91,368.67a1.5,1.5,0,0,1-1.5-1.5v-23a1.5,1.5,0,0,1,3,0v23A1.5,1.5,0,0,1,308.91,368.67Z" style="fill:#C2FA6B"></path><path d="M301.44,365.08a1.5,1.5,0,0,1-1.5-1.5V347.8a1.5,1.5,0,0,1,3,0v15.78A1.5,1.5,0,0,1,301.44,365.08Z" style="fill:#C2FA6B"></path><path d="M316.38,365.08a1.5,1.5,0,0,1-1.5-1.5V347.8a1.5,1.5,0,0,1,3,0v15.78A1.5,1.5,0,0,1,316.38,365.08Z" style="fill:#C2FA6B"></path><path d="M323.84,361.86a1.51,1.51,0,0,1-1.5-1.5V351a1.5,1.5,0,0,1,3,0v9.34A1.5,1.5,0,0,1,323.84,361.86Z" style="fill:#C2FA6B"></path><path d="M443.35,368.67a1.5,1.5,0,0,1-1.5-1.5v-23a1.5,1.5,0,1,1,3,0v23A1.5,1.5,0,0,1,443.35,368.67Z" style="fill:#e0e0e0"></path><path d="M435.88,365.08a1.5,1.5,0,0,1-1.5-1.5V347.8a1.5,1.5,0,0,1,3,0v15.78A1.5,1.5,0,0,1,435.88,365.08Z" style="fill:#e0e0e0"></path><path d="M450.82,365.08a1.5,1.5,0,0,1-1.5-1.5V347.8a1.5,1.5,0,0,1,3,0v15.78A1.5,1.5,0,0,1,450.82,365.08Z" style="fill:#e0e0e0"></path><path d="M458.29,361.86a1.5,1.5,0,0,1-1.5-1.5V351a1.5,1.5,0,0,1,3,0v9.34A1.5,1.5,0,0,1,458.29,361.86Z" style="fill:#e0e0e0"></path><path d="M331.31,364.78a1.5,1.5,0,0,1-1.5-1.5V348.1a1.5,1.5,0,0,1,3,0v15.18A1.5,1.5,0,0,1,331.31,364.78Z" style="fill:#C2FA6B"></path><path d="M338.78,368.1a1.5,1.5,0,0,1-1.5-1.5V344.78a1.5,1.5,0,0,1,3,0V366.6A1.5,1.5,0,0,1,338.78,368.1Z" style="fill:#C2FA6B"></path><path d="M346.25,372.08a1.5,1.5,0,0,1-1.5-1.5V340.8a1.5,1.5,0,1,1,3,0v29.78A1.5,1.5,0,0,1,346.25,372.08Z" style="fill:#C2FA6B"></path><path d="M353.72,368.27a1.5,1.5,0,0,1-1.5-1.5V344.61a1.5,1.5,0,0,1,3,0v22.16A1.5,1.5,0,0,1,353.72,368.27Z" style="fill:#e0e0e0"></path><path d="M361.19,364.7a1.5,1.5,0,0,1-1.5-1.5v-15a1.5,1.5,0,0,1,3,0v15A1.5,1.5,0,0,1,361.19,364.7Z" style="fill:#e0e0e0"></path><path d="M368.66,362.79a1.5,1.5,0,0,1-1.5-1.5v-11.2a1.5,1.5,0,0,1,3,0v11.2A1.5,1.5,0,0,1,368.66,362.79Z" style="fill:#e0e0e0"></path><path d="M376.13,368.52a1.5,1.5,0,0,1-1.5-1.5V344.36a1.5,1.5,0,0,1,3,0V367A1.5,1.5,0,0,1,376.13,368.52Z" style="fill:#e0e0e0"></path><path d="M406,368.52a1.5,1.5,0,0,1-1.5-1.5V344.36a1.5,1.5,0,0,1,3,0V367A1.5,1.5,0,0,1,406,368.52Z" style="fill:#e0e0e0"></path><path d="M383.6,372.08a1.5,1.5,0,0,1-1.5-1.5V340.8a1.5,1.5,0,0,1,3,0v29.78A1.5,1.5,0,0,1,383.6,372.08Z" style="fill:#e0e0e0"></path><path d="M391.07,378.11a1.5,1.5,0,0,1-1.5-1.5V334.77a1.5,1.5,0,0,1,3,0v41.84A1.5,1.5,0,0,1,391.07,378.11Z" style="fill:#e0e0e0"></path><path d="M398.54,372.08a1.5,1.5,0,0,1-1.5-1.5V340.8a1.5,1.5,0,0,1,3,0v29.78A1.5,1.5,0,0,1,398.54,372.08Z" style="fill:#e0e0e0"></path><path d="M413.48,362.79a1.5,1.5,0,0,1-1.5-1.5v-11.2a1.5,1.5,0,1,1,3,0v11.2A1.5,1.5,0,0,1,413.48,362.79Z" style="fill:#e0e0e0"></path><path d="M428.41,362.79a1.5,1.5,0,0,1-1.5-1.5v-11.2a1.5,1.5,0,0,1,3,0v11.2A1.5,1.5,0,0,1,428.41,362.79Z" style="fill:#e0e0e0"></path><path d="M420.94,360.92a1.5,1.5,0,0,1-1.5-1.5V352a1.5,1.5,0,0,1,3,0v7.46A1.5,1.5,0,0,1,420.94,360.92Z" style="fill:#e0e0e0"></path><path d="M294,362.79a1.5,1.5,0,0,1-1.5-1.5v-11.2a1.5,1.5,0,1,1,3,0v11.2A1.5,1.5,0,0,1,294,362.79Z" style="fill:#C2FA6B"></path><circle cx="264.27" cy="355.05" r="21.19" transform="translate(-143.3 527.61) rotate(-76.29)" style="fill:#C2FA6B"></circle><path d="M258.67,355.69v-6.17a2.08,2.08,0,0,1,3.13-1.81l5.35,3.08,5.34,3.09a2.09,2.09,0,0,1,0,3.62l-5.34,3.09-5.35,3.08a2.08,2.08,0,0,1-3.13-1.81Z" style="fill:#fff"></path><rect x="299.66" y="238.85" width="243.49" height="63" rx="29.91" style="fill:#fafafa"></rect><path d="M513.23,302.35H329.57a30.44,30.44,0,0,1-30.41-30.41v-3.18a30.44,30.44,0,0,1,30.41-30.41H513.23a30.45,30.45,0,0,1,30.42,30.41v3.18A30.45,30.45,0,0,1,513.23,302.35Zm-183.66-63a29.45,29.45,0,0,0-29.41,29.41v3.18a29.44,29.44,0,0,0,29.41,29.41H513.23a29.45,29.45,0,0,0,29.42-29.41v-3.18a29.45,29.45,0,0,0-29.42-29.41Z" style="fill:#263238"></path><circle cx="329.9" cy="270.22" r="21.19" transform="translate(-81.59 158.3) rotate(-24.1)" style="fill:#455a64"></circle><path d="M324.3,270.87V264.7a2.08,2.08,0,0,1,3.13-1.81l5.35,3.08,5.34,3.09a2.09,2.09,0,0,1,0,3.62l-5.34,3.08-5.35,3.09A2.08,2.08,0,0,1,324.3,277Z" style="fill:#fff"></path><path d="M374.33,284.36a1.5,1.5,0,0,1-1.5-1.5v-24a1.5,1.5,0,0,1,3,0v24A1.5,1.5,0,0,1,374.33,284.36Z" style="fill:#455a64"></path><path d="M366.45,280.61a1.5,1.5,0,0,1-1.5-1.5V262.63a1.5,1.5,0,0,1,3,0v16.48A1.5,1.5,0,0,1,366.45,280.61Z" style="fill:#455a64"></path><path d="M468.85,284.36a1.5,1.5,0,0,1-1.5-1.5v-24a1.5,1.5,0,0,1,3,0v24A1.51,1.51,0,0,1,468.85,284.36Z" style="fill:#455a64"></path><path d="M461,280.61a1.5,1.5,0,0,1-1.5-1.5V262.63a1.5,1.5,0,0,1,3,0v16.48A1.5,1.5,0,0,1,461,280.61Z" style="fill:#455a64"></path><path d="M476.72,280.61a1.5,1.5,0,0,1-1.5-1.5V262.63a1.5,1.5,0,0,1,3,0v16.48A1.5,1.5,0,0,1,476.72,280.61Z" style="fill:#455a64"></path><path d="M484.6,277.24a1.5,1.5,0,0,1-1.5-1.5V266a1.5,1.5,0,0,1,3,0v9.74A1.5,1.5,0,0,1,484.6,277.24Z" style="fill:#455a64"></path><path d="M500.13,284.36a1.5,1.5,0,0,1-1.5-1.5v-24a1.5,1.5,0,0,1,3,0v24A1.5,1.5,0,0,1,500.13,284.36Z" style="fill:#455a64"></path><path d="M492.26,280.61a1.5,1.5,0,0,1-1.5-1.5V262.63a1.5,1.5,0,0,1,3,0v16.48A1.51,1.51,0,0,1,492.26,280.61Z" style="fill:#455a64"></path><path d="M508,280.61a1.5,1.5,0,0,1-1.5-1.5V262.63a1.5,1.5,0,0,1,3,0v16.48A1.5,1.5,0,0,1,508,280.61Z" style="fill:#455a64"></path><path d="M515.88,277.24a1.5,1.5,0,0,1-1.5-1.5V266a1.5,1.5,0,0,1,3,0v9.74A1.5,1.5,0,0,1,515.88,277.24Z" style="fill:#455a64"></path><path d="M523,275.88a1.5,1.5,0,0,1-1.5-1.5V269a1.5,1.5,0,0,1,3,0v5.4A1.5,1.5,0,0,1,523,275.88Z" style="fill:#455a64"></path><path d="M405.83,284.19a1.5,1.5,0,0,1-1.5-1.5V259a1.5,1.5,0,0,1,3,0v23.65A1.5,1.5,0,0,1,405.83,284.19Z" style="fill:#455a64"></path><path d="M382.21,287.91a1.5,1.5,0,0,1-1.5-1.5V255.32a1.5,1.5,0,0,1,3,0v31.09A1.5,1.5,0,0,1,382.21,287.91Z" style="fill:#455a64"></path><path d="M390.08,294.2a1.5,1.5,0,0,1-1.5-1.5V249a1.5,1.5,0,0,1,3,0V292.7A1.5,1.5,0,0,1,390.08,294.2Z" style="fill:#455a64"></path><path d="M398,287.91a1.5,1.5,0,0,1-1.5-1.5V255.32a1.5,1.5,0,0,1,3,0v31.09A1.5,1.5,0,0,1,398,287.91Z" style="fill:#455a64"></path><path d="M421.59,284.36a1.5,1.5,0,0,1-1.5-1.5v-24a1.5,1.5,0,0,1,3,0v24A1.5,1.5,0,0,1,421.59,284.36Z" style="fill:#455a64"></path><path d="M413.71,280.61a1.5,1.5,0,0,1-1.5-1.5V262.63a1.5,1.5,0,0,1,3,0v16.48A1.5,1.5,0,0,1,413.71,280.61Z" style="fill:#455a64"></path><path d="M453.09,284.19a1.5,1.5,0,0,1-1.5-1.5V259a1.5,1.5,0,0,1,3,0v23.65A1.5,1.5,0,0,1,453.09,284.19Z" style="fill:#455a64"></path><path d="M429.46,287.91a1.5,1.5,0,0,1-1.5-1.5V255.32a1.5,1.5,0,0,1,3,0v31.09A1.5,1.5,0,0,1,429.46,287.91Z" style="fill:#455a64"></path><path d="M437.34,294.2a1.5,1.5,0,0,1-1.5-1.5V249a1.5,1.5,0,0,1,3,0V292.7A1.5,1.5,0,0,1,437.34,294.2Z" style="fill:#455a64"></path><path d="M445.22,287.91a1.5,1.5,0,0,1-1.5-1.5V255.32a1.5,1.5,0,1,1,3,0v31.09A1.5,1.5,0,0,1,445.22,287.91Z" style="fill:#455a64"></path><path d="M358.58,278.22a1.5,1.5,0,0,1-1.5-1.5V265a1.5,1.5,0,0,1,3,0v11.7A1.5,1.5,0,0,1,358.58,278.22Z" style="fill:#455a64"></path></g></svg>
