<?xml version="1.0" encoding="utf-8"?>
<!-- Generator: Adobe Illustrator 22.0.0, SVG Export Plug-In . SVG Version: 6.00 Build 0)  -->
<svg version="1.1" id="Capa_1" xmlns="http://www.w3.org/2000/svg" xmlns:xlink="http://www.w3.org/1999/xlink" x="0px" y="0px"
	 viewBox="0 0 750 500" style="enable-background:new 0 0 750 500;" xml:space="preserve">
<style type="text/css">
	.st0{fill:#C2FA6B;}
	.st1{opacity:0.7;fill:#FFFFFF;enable-background:new    ;}
	.st2{fill:none;stroke:#263238;stroke-miterlimit:10;}
	.st3{fill:none;stroke:#263238;stroke-linecap:round;stroke-linejoin:round;}
	.st4{fill:#263238;}
	.st5{fill:#FFFFFF;stroke:#263238;stroke-miterlimit:10;}
	.st6{fill:#263238;stroke:#263238;stroke-linecap:round;stroke-linejoin:round;}
	.st7{fill:#C2FA6B;stroke:#263238;stroke-miterlimit:10;}
	.st8{fill:#263238;stroke:#263238;stroke-miterlimit:10;}
	.st9{fill:none;stroke:#FFFFFF;stroke-miterlimit:10;}
	.st10{fill:#CCCCCC;stroke:#263238;stroke-miterlimit:10;}
	.st11{fill:none;}
	.st12{fill:none;stroke:#263238;stroke-width:3;stroke-linecap:round;stroke-linejoin:round;}
</style>
<g id="freepik--background-simple--inject-162">
	<path class="st0" d="M648.4,196.2c-25.6-40.9-60.8-76.7-97.8-104.4c-37.4-28-81.8-49-128.8-52.3C375,36,328.1,44.8,285.8,64.9
		c-30.8,14.7-58.2,35.1-78.6,62.6c-3.3,4.4-5.3,8.9-7.5,14c-0.4,0.9-0.8,1.8-1.1,2.7c-5.4,13.4-9.6,27.3-12.5,41.5
		c-1.6,8.1-2.3,16.8-5.5,24.5c-9.4,22.7-39.1,29.2-58,41.6c-45,29.6-86.5,81-77.7,138.2v0.2c8,51.2,29.9,56.5,29.9,56.5h587.4
		c0,0,27.9-43.2,26.6-124.4C688,277.2,672.2,234.2,648.4,196.2z"/>
	<path class="st1" d="M648.4,196.2c-25.6-40.9-60.8-76.7-97.8-104.4c-37.4-28-81.8-49-128.8-52.3C375,36,328.1,44.8,285.8,64.9
		c-30.8,14.7-58.2,35.1-78.6,62.6c-3.3,4.4-5.3,8.9-7.5,14c-0.4,0.9-0.8,1.8-1.1,2.7c-5.4,13.4-9.6,27.3-12.5,41.5
		c-1.6,8.1-2.3,16.8-5.5,24.5c-9.4,22.7-39.1,29.2-58,41.6c-45,29.6-86.5,81-77.7,138.2v0.2c8,51.2,29.9,56.5,29.9,56.5h587.4
		c0,0,27.9-43.2,26.6-124.4C688,277.2,672.2,234.2,648.4,196.2z"/>
</g>
<g id="freepik--Icons--inject-162">
	<polygon class="st2" points="287.6,93.9 265.1,80.9 265.1,107 	"/>
	<path class="st2" d="M302.8,93.7c-0.1,0.4-0.2,0.8-0.2,1.3c0,0.1,0,0.3,0,0.4h-7.5v-1.7H302.8z"/>
	<path class="st2" d="M393.5,93.7v1.7h-82.6c0-0.1,0-0.3,0-0.4c0-0.4-0.1-0.8-0.2-1.3H393.5z"/>
	<path class="st2" d="M310.9,94.9c0,0.1,0,0.3,0,0.4c-0.2,2.3-2.3,4-4.6,3.7c-2-0.2-3.5-1.8-3.7-3.7c0-0.1,0-0.3,0-0.4
		c0-0.4,0.1-0.8,0.2-1.3c0.7-2.2,3-3.5,5.2-2.8c1.4,0.4,2.4,1.5,2.8,2.8C310.9,94.1,310.9,94.5,310.9,94.9z"/>
	<polygon class="st2" points="78.4,384.5 78.4,412.9 66.2,404 60.4,404 60.4,393.4 66.2,393.4 	"/>
	<path class="st3" d="M89.1,387.3c5.9,5.1,6.6,14.1,1.5,20.1c-0.7,0.8-1.6,1.6-2.5,2.3"/>
	<path class="st3" d="M82.7,391.4c3.7,1.6,5.4,5.8,3.8,9.5c-0.7,1.7-2.1,3.1-3.8,3.8"/>
	<path class="st2" d="M383.5,417.4c3.1,0,5.6-2.5,5.6-5.6c0,0,0,0,0,0v-17.9c0.1-3.1-2.3-5.8-5.4-5.9s-5.8,2.3-5.9,5.4
		c0,0.2,0,0.3,0,0.5v17.9C377.9,414.9,380.4,417.4,383.5,417.4L383.5,417.4z"/>
	<path class="st2" d="M393.6,411.5v-8.4c0-0.6-0.5-1-1-1s-1,0.5-1,1v8.4c0,4.4-3.5,7.9-7.9,7.9s-7.9-3.5-7.9-7.9c0,0,0,0,0,0v-8.4
		c0-0.6-0.5-1-1-1s-1,0.5-1,1v8.4c0,5.1,3.9,9.4,9,9.9v9.3h-5.9c-0.6,0-1,0.5-1,1s0.5,1,1,1h13.8c0.6,0,1-0.5,1-1s-0.5-1-1-1h-5.9
		v-9.3C389.7,420.9,393.6,416.6,393.6,411.5z"/>
	<path class="st2" d="M482.1,77.1c0,12.3-10,22.3-22.3,22.3c-12.3,0-22.3-10-22.3-22.3s10-22.3,22.3-22.3l0,0
		C472.1,54.8,482.1,64.8,482.1,77.1C482.1,77.1,482.1,77.1,482.1,77.1z"/>
	<circle class="st2" cx="459.8" cy="71.4" r="9.2"/>
	<path class="st2" d="M473.6,94.6c-8.1,6.4-19.5,6.4-27.6,0c1-7.6,8.1-12.9,15.7-11.9C467.9,83.6,472.8,88.4,473.6,94.6z"/>
	<path class="st2" d="M626,398.8c0,10.7-8.7,19.4-19.4,19.5s-19.4-8.7-19.5-19.4c0-10.7,8.7-19.4,19.4-19.5c0,0,0,0,0,0
		C617.3,379.4,626,388,626,398.8C626,398.8,626,398.8,626,398.8z"/>
	<circle class="st2" cx="606.5" cy="393.8" r="8"/>
	<path class="st2" d="M618.6,414.1c-7.1,5.6-17,5.6-24.1,0c0.9-6.6,7.1-11.3,13.7-10.3C613.6,404.5,617.8,408.7,618.6,414.1z"/>
	<path class="st2" d="M678.8,398.8c0,10.7-8.7,19.4-19.4,19.5s-19.4-8.7-19.5-19.4c0-10.7,8.7-19.4,19.4-19.5c0,0,0,0,0,0
		C670.1,379.4,678.8,388,678.8,398.8C678.8,398.8,678.8,398.8,678.8,398.8z"/>
	<circle class="st2" cx="659.4" cy="393.8" r="8"/>
	<path class="st2" d="M671.4,414.1c-7.1,5.6-17,5.6-24.1,0c0.9-6.6,7.1-11.3,13.7-10.3C666.5,404.5,670.7,408.7,671.4,414.1z"/>
	<path class="st2" d="M104.6,186.3c0,10.7-8.7,19.4-19.4,19.4s-19.4-8.7-19.4-19.4c0-10.7,8.7-19.4,19.4-19.4
		C95.9,166.9,104.6,175.6,104.6,186.3C104.6,186.3,104.6,186.3,104.6,186.3z"/>
	<circle class="st2" cx="85.2" cy="181.3" r="8"/>
	<path class="st2" d="M97.2,201.6c-7.1,5.6-17,5.6-24.1,0c0.9-6.6,7.1-11.3,13.7-10.3C92.2,192,96.4,196.2,97.2,201.6z"/>
</g>
<g id="freepik--Floor--inject-162">
	<line class="st2" x1="683.2" y1="446.8" x2="709" y2="446.8"/>
	<line class="st2" x1="211.1" y1="446.8" x2="674.4" y2="446.8"/>
	<line class="st2" x1="36.1" y1="446.8" x2="200.5" y2="446.8"/>
</g>
<g id="freepik--Plants--inject-162">
	<path class="st4" d="M318.6,176.3c4.5,2,15.5,1.7,15.5,1.7s-2.4-7.2-2.6-7.6c-2.4-5.1-10.1-13.4-16.3-12.6c-4.5,0.6-7,5.1-6,9.3
		S314.8,174.6,318.6,176.3z"/>
	<path class="st4" d="M322.4,208.2c4.7,0.7,14.5-2.2,15.3-2.4c1.6,5.6,3.6,11.1,6,16.5c1.4,3.1,2.8,6.2,4.3,9.3
		c-0.9-1.3-1.7-2.5-1.8-2.6c-3.7-4.2-13.2-10.3-19-7.8c-4.2,1.8-5.4,6.8-3.3,10.6s7.2,5.8,11.4,6.4s12.6-1.6,14.9-2.3
		c0.6,1.2,1.2,2.4,1.8,3.6c2.9,5.7,5.7,11.3,8.4,16.9c0.9,2,1.8,4,2.6,6c-0.8-1.2-1.5-2.1-1.6-2.3c-3.7-4.2-13.3-10.3-19-7.8
		c-3.7,1.7-5.4,6.1-3.7,9.9c0.1,0.2,0.2,0.5,0.4,0.7c2.1,3.9,7.3,5.8,11.4,6.4s11.8-1.4,14.5-2.2c0.8,2.1,1.6,4.1,2.3,6.1
		c0.5,1.4,1,2.7,1.3,4.1s0.8,2.8,1.2,4.2c0.6,2.7,1.3,5.4,1.9,8.1c0.4,1.8,0.8,3.6,1.1,5.3c-0.9-2-2.8-5.8-3-6.1
		c-3-4.7-11.5-12.2-17.6-10.6c-3.9,1.1-6.2,5.2-5.1,9.2c0.1,0.3,0.2,0.5,0.3,0.7c1.5,4.2,6.3,6.8,10.3,8.1c4.4,1.4,14.2,0.1,15.4,0
		c0.6,2.9,1.1,5.8,1.6,8.5c0.3,2,0.7,3.9,1,5.7h3.9c-0.4-2-0.8-4.2-1.2-6.4c-0.6-3-1.3-6.1-2-9.4c2.9-1.2,5.8-2.5,8.6-4
		c3.2,3.5,11.4,7.6,12.5,8.1c-1.1,2.8-2.2,5.4-3.3,7.9c-0.6,1.3-1.1,2.6-1.7,3.8h4.1l1-2.4c1.1-2.8,2.3-5.8,3.5-8.9
		c1.2,0.2,10.9,2.2,15.4,1.2c4.1-0.9,9-3.2,10.9-7.3s0.2-8.8-4.1-10.3c-6-2-15,4.8-18.4,9.3c-0.2,0.3-2,3.4-3.1,5.4
		c0.5-1.3,1-2.5,1.4-3.8c1-2.6,1.8-5.2,2.8-8l1.2-4.2c0.5-1.4,0.7-2.9,1.1-4.4c0.8-3.4,1.5-6.9,2-10.4c2.3,0.8,10.4,3.6,14.6,3.4
		s9.4-1.8,11.8-5.5s1.5-8.7-2.5-10.8c-5.6-2.9-15.6,2.4-19.6,6.4c-0.2,0.2-2.8,3.4-4.1,5.2c0.3-2.1,0.7-4.2,0.9-6.4
		c0.8-6.2,1.4-12.6,2-18.9c0.2-1.9,0.4-3.9,0.6-5.8c0.8,0.3,10.4,3.9,15,3.5c4.2-0.3,9.4-1.8,11.8-5.5c2.4-3.4,1.5-8-1.8-10.3
		c-0.2-0.2-0.4-0.3-0.7-0.4c-5.6-2.9-15.6,2.4-19.5,6.4c-0.3,0.3-3.9,4.9-4.8,6c0.5-4.2,0.9-8.5,1.6-12.6c0.8-5.6,2-11.2,3.6-16.6
		c0.4,0.1,10.3,3.9,15.1,3.6c4.2-0.3,9.4-1.8,11.8-5.5s1.5-8.7-2.5-10.8c-5.6-2.9-15.6,2.4-19.5,6.4c-0.3,0.3-4.2,5.2-4.9,6.1
		c0.1-0.3,0.1-0.6,0.3-1c1.7-5.4,3.9-10.7,6.6-15.7c1.4-2.8,3-5.4,4.5-7.9c1.8,0.9,10,4.9,14.3,5c4.2,0.2,9.6-0.8,12.4-4.2
		c2.7-3.1,2.4-7.8-0.6-10.5c-0.2-0.2-0.4-0.4-0.6-0.5c-5.2-3.5-15.8,0.7-20.1,4.2c-0.2,0.2-2.5,2.4-4,4c0.7-1.1,1.4-2.3,2.1-3.3
		c2.6-4,5.3-7.4,7.6-10.5c1.4-1.7,2.6-3.3,3.8-4.7c2.2,0,11.1-0.3,15-2.1s8.1-5.1,9-9.4s-1.7-8.7-6.2-9.1c-6.2-0.7-13.7,7.9-15.9,13
		c-0.2,0.4-2.5,7.7-2.4,7.7h0.1c-1.2,1.3-2.4,2.8-3.8,4.4c-2.4,3-5.2,6.4-7.9,10.3c-3,4.2-5.7,8.5-8.2,13c-2.8,5-5.1,10.3-7,15.7
		c0,0.1,0,0.1,0,0.2c0-1.8,0-7-0.1-7.4c-0.7-5.6-5.4-15.9-11.6-17c-4.5-0.8-8.2,2.7-8.6,7s2.8,8.8,6,11.6c3.5,3.1,13.3,6.2,14.1,6.4
		c-1.7,5.6-3.1,11.2-4.1,17c-0.6,3.4-1.1,6.8-1.5,10.2c0-1.6-0.1-3-0.1-3.2c-0.7-5.6-5.4-15.9-11.6-17c-4.5-0.8-8.2,2.7-8.6,7
		s2.8,8.8,6,11.6s11.5,5.6,13.6,6.3c-0.2,1.3-0.3,2.6-0.5,3.9c-0.8,6.3-1.5,12.6-2.4,18.7c-0.3,2.2-0.7,4.3-1.1,6.4
		c0-1.4,0-2.6-0.1-2.8c-0.7-5.6-5.4-15.9-11.5-17c-4.1-0.6-7.9,2.1-8.5,6.2c0,0.3-0.1,0.5-0.1,0.8c-0.4,4.4,2.8,8.8,6,11.6
		s10.6,5.3,13.3,6.2c-0.5,2.2-0.9,4.3-1.5,6.4c-0.4,1.4-0.7,2.8-1.2,4.2s-0.9,2.8-1.3,4.1c-0.9,2.6-1.9,5.3-2.9,7.8
		c-0.7,1.8-1.3,3.4-2,5.1c0.3-2.1,0.9-6.4,0.9-6.7c-0.1-4.9-1.4-9.7-3.9-14c0-0.6,0-1.1-0.1-1.6c-0.5-4.1-4.2-7-8.3-6.4
		c-0.3,0-0.5,0.1-0.8,0.1c-6.1,1.6-9.9,12.3-10.2,17.9c0,0.3,0.2,3.9,0.4,6.2c-0.3-1.3-0.6-2.6-0.9-4c-0.6-2.7-1.4-5.3-2.1-8.2
		c-0.4-1.4-0.8-2.8-1.3-4.1s-1-2.8-1.5-4.2c-1.2-3.3-2.6-6.5-4-9.8c2.4-0.6,10.7-2.7,14-5.2s6.8-6.7,6.8-11.1
		c0.1-4.1-3.1-7.5-7.2-7.6c-0.3,0-0.5,0-0.8,0c-6.2,0.7-11.7,10.6-12.8,16.1c-0.1,0.3-0.4,4.4-0.6,6.6c-0.9-2-1.8-3.9-2.7-5.9
		c-2.8-5.6-5.8-11.2-8.8-16.8c-0.9-1.7-1.8-3.4-2.7-5.1c0.8-0.2,10.8-2.5,14.5-5.4c3.3-2.6,6.9-6.7,6.8-11.1
		c0.1-4.1-3.1-7.5-7.2-7.6c-0.3,0-0.5,0-0.8,0c-6.2,0.7-11.7,10.6-12.8,16.1c-0.1,0.4-0.6,6.2-0.7,7.7c-2-3.8-3.9-7.6-5.6-11.4
		c-2.4-5.1-4.4-10.4-6.1-15.8c0.4-0.1,10.8-2.4,14.6-5.4c3.3-2.6,6.9-6.7,6.8-11.1s-3.5-8.1-8-7.6c-6.2,0.7-11.7,10.6-12.8,16.1
		c-0.1,0.4-0.6,6.7-0.7,7.8c-0.1-0.3-0.2-0.6-0.3-0.9c-1.6-5.5-2.6-11.1-3.2-16.7c-0.4-3.1-0.5-6.1-0.6-9c2-0.2,11-1.4,14.7-3.7
		c3.6-2.2,7.5-5.9,8-10.3c0.6-4.1-2.3-7.8-6.3-8.4c-0.3,0-0.5-0.1-0.8-0.1c-6.3,0-12.8,9.3-14.5,14.6c-0.1,0.3-0.7,3.3-1.1,5.6
		c0-1.3-0.1-2.7-0.1-3.9c0-4.8,0.3-9.1,0.6-12.9c0.2-2.2,0.4-4.2,0.6-6c1.8-1.3,9.1-6.4,11.3-10s4-8.7,2.3-12.9s-6.2-6.3-10.2-4.2
		c-5.6,2.9-7,14.1-6.1,19.6c0.1,0.5,2.2,7.8,2.3,7.8l0.1-0.1c-0.3,1.8-0.5,3.7-0.7,5.8c-0.4,3.9-0.8,8.2-0.9,13
		c-0.2,5.1-0.1,10.3,0.4,15.4c0.4,5.7,1.4,11.4,2.9,17c0,0.1,0,0.1,0.1,0.2c-1-1.6-3.9-5.8-4.2-6.1c-3.7-4.2-13.2-10.3-19-7.8
		c-4.2,1.8-5.4,6.8-3.3,10.6S318.3,207.6,322.4,208.2z"/>
	<path class="st4" d="M430.1,178.7c0.1,0.1,2-7.3,2.1-7.8c0.8-5.6-1-16.7-6.6-19.5c-4.1-2-8.6,0.4-10.1,4.5s0.4,9.3,2.7,12.8
		C420.7,172.8,430.1,178.7,430.1,178.7z"/>
	<path class="st4" d="M553.4,384c-3.6,0.8-10.3,5.7-10.3,5.7s4.6,3.4,4.9,3.6c3.7,2.1,12.1,3.9,15.5,0.7c2.2-2.2,2.2-5.7,0.1-7.9
		c-0.1-0.1-0.3-0.3-0.4-0.4C560.6,383.4,556.5,383.4,553.4,384z"/>
	<path class="st4" d="M537.1,365.9c-3.2,1.6-8,7.7-8.4,8.1c-3.5-2.8-7.1-5.3-10.9-7.6c-2.2-1.3-4.5-2.6-6.7-3.9
		c1.1,0.4,2.1,0.8,2.3,0.8c4.1,1,12.7,0.6,15.2-3.5c1.6-2.7,0.7-6.1-2-7.7c-0.2-0.1-0.4-0.2-0.6-0.3c-3-1.5-7-0.4-9.8,1
		s-7.1,6.5-8.2,7.9c-0.9-0.5-1.8-1-2.6-1.4c-4.2-2.3-8.5-4.5-12.5-6.8c-1.4-0.8-2.8-1.7-4.2-2.5c1,0.4,1.9,0.7,2,0.7
		c4.1,1,12.7,0.6,15.2-3.5c1.6-2.7,0.7-6.1-2-7.7c-0.2-0.1-0.4-0.2-0.6-0.3c-3-1.5-7-0.4-9.8,1s-6.7,6-8,7.6
		c-1.4-0.9-2.8-1.8-4.1-2.8c-0.9-0.7-1.8-1.3-2.6-2l-2.6-2c-1.6-1.4-3.2-2.8-4.7-4.2c-1-1-2-1.9-3-2.8c1.4,0.8,4.3,2.4,4.5,2.5
		c3.9,1.6,12.4,2.5,15.5-1.1c1.9-2.4,1.6-6-0.8-7.9c-0.2-0.1-0.3-0.2-0.5-0.3c-2.8-1.9-6.9-1.5-9.9-0.5c-3.3,1.1-8.8,6.1-9.5,6.7
		c-1.6-1.5-3.2-3.1-4.7-4.5c-1.1-1.1-2.1-2.1-3.1-3.1l-2.4,1.7c1.1,1.1,2.3,2.2,3.6,3.4c1.6,1.6,3.4,3.2,5.3,4.9
		c-1.3,2-2.5,4.1-3.5,6.2c-3.5-0.8-10.4,0.3-11.3,0.5c-0.5-2.2-1-4.3-1.4-6.4c-0.2-1.1-0.4-2.1-0.6-3.1L447,335
		c0.1,0.6,0.3,1.3,0.4,1.9c0.5,2.2,1.1,4.6,1.7,7c-0.8,0.4-7.7,3.4-10,6c-2.1,2.4-4.2,5.9-3.5,9.2c0.5,3.1,3.4,5.2,6.4,4.7
		c0.2,0,0.4-0.1,0.6-0.1c4.5-1.4,7.2-9.5,7.3-13.7c0-0.3-0.2-3-0.4-4.7c0.3,1,0.5,2,0.8,3c0.5,2,1.1,4,1.8,6.1c0.4,1,0.7,2.1,1,3.1
		s0.8,2.1,1.2,3.2c1,2.5,2.1,4.9,3.3,7.3c-1.8,0.5-8,2.3-10.5,4.3s-5,5.2-4.9,8.6c0,3.1,2.5,5.6,5.6,5.6c0.2,0,0.4,0,0.6,0
		c4.7-0.7,8.6-8.3,9.3-12.5c0-0.3,0.2-3.3,0.3-5c0.7,1.5,1.4,2.9,2.2,4.4c2.2,4.2,4.6,8.3,7,12.5c0.7,1.3,1.4,2.5,2.1,3.8
		c-0.6,0.2-8.1,2.1-10.8,4.4c-2.5,2-5,5.2-4.9,8.6c0,3.1,2.5,5.6,5.6,5.6c0.2,0,0.4,0,0.6,0c4.7-0.6,8.6-8.3,9.3-12.5
		c0-0.3,0.3-4.7,0.3-5.8c1.6,2.8,3.1,5.6,4.5,8.5c1.9,3.8,3.6,7.8,5,11.8c-0.3,0.1-8.1,2.1-10.9,4.4c-2.5,2-5,5.2-4.9,8.6
		c0,3.1,2.5,5.6,5.6,5.6c0.2,0,0.4,0,0.6,0c4.7-0.7,8.6-8.3,9.3-12.5c0-0.3,0.3-5,0.3-5.9c0.1,0.2,0.2,0.5,0.3,0.7
		c1.3,4.1,2.2,8.3,2.8,12.6c0.3,2.3,0.5,4.6,0.7,6.8c-1.5,0.2-8.3,1.3-11.1,3.1s-5.6,4.6-5.8,8c-0.3,3.1,1.9,5.8,5,6.2
		c0.2,0,0.4,0,0.6,0c4.7-0.1,9.4-7.3,10.6-11.4c0.1-0.2,0.5-2.5,0.7-4.2c0,1,0.1,2,0.1,3c0.1,3.6,0,6.9-0.2,9.8
		c-0.1,1.7-0.2,3.1-0.3,4.5c-1.3,1-6.7,5-8.3,7.8s-2.8,6.7-1.5,9.8c1.1,2.9,4.4,4.3,7.3,3.2c0.2-0.1,0.4-0.2,0.6-0.3
		c4.1-2.3,5-10.8,4.2-15c-0.1-0.4-1.8-5.9-1.9-5.8l-0.1,0.1c0.1-1.4,0.3-2.8,0.4-4.4c0.2-2.9,0.4-6.2,0.4-9.8
		c0-3.9-0.2-7.8-0.6-11.6c-0.5-4.3-1.3-8.6-2.5-12.8c0,0,0-0.1,0-0.1c0.8,1.1,3.1,4.3,3.3,4.5c2.9,3.1,10.2,7.5,14.6,5.5
		c2.8-1.4,3.9-4.8,2.5-7.5c-0.1-0.2-0.2-0.3-0.3-0.5c-1.7-2.9-5.6-4.2-8.8-4.6c-3.5-0.4-10.9,2-11.5,2.2c-1.4-4.2-3-8.3-4.9-12.3
		c-1.1-2.3-2.3-4.6-3.5-7c0.7,1,1.4,1.8,1.5,1.9c2.9,3.1,10.2,7.5,14.5,5.5c2.8-1.4,3.9-4.8,2.5-7.5c-0.1-0.2-0.2-0.3-0.3-0.5
		c-1.7-2.9-5.6-4.2-8.8-4.6s-9.5,1.5-11.2,2.1c-0.5-0.9-0.9-1.8-1.4-2.6c-2.3-4.2-4.6-8.4-6.7-12.6c-0.8-1.5-1.4-3-2.1-4.4
		c0.6,0.9,1.2,1.6,1.3,1.7c2.9,3.1,10.2,7.5,14.6,5.5c2.8-1.4,3.9-4.8,2.5-7.5c-0.1-0.2-0.2-0.3-0.3-0.5c-1.7-2.9-5.6-4.2-8.8-4.6
		s-8.9,1.4-10.9,2c-0.7-1.5-1.3-3.1-1.9-4.6c-0.4-1-0.8-2-1.1-3.1s-0.6-2.1-1-3.1c-0.5-2-1.1-4.1-1.6-6.1c-0.4-1.4-0.6-2.7-1-4
		c0.7,1.5,2.2,4.4,2.4,4.6c2.2,3,5.1,5.4,8.5,7c0.2,0.4,0.5,0.7,0.8,1c2.1,2.3,5.6,2.5,7.9,0.4c0.1-0.1,0.3-0.3,0.4-0.4
		c3-3.6,0.8-11.9-1.5-15.5c-0.1-0.2-1.8-2.3-2.9-3.7l2.3,2c1.6,1.4,3.2,2.7,4.9,4.1l2.6,2c0.8,0.7,1.8,1.3,2.8,2
		c2.2,1.5,4.4,2.9,6.8,4.3c-1.2,1.4-5.4,6.3-6.4,9.3s-1.3,7.1,0.6,9.9c1.7,2.6,5.2,3.3,7.8,1.6c0.2-0.1,0.3-0.2,0.5-0.4
		c3.6-3.1,2.6-11.6,0.9-15.5c-0.1-0.2-1.6-2.9-2.5-4.3c1.4,0.8,2.8,1.6,4.2,2.4c4.2,2.3,8.5,4.4,12.7,6.6c1.3,0.7,2.6,1.3,3.9,2
		c-0.4,0.5-5.6,6.2-6.6,9.6c-0.9,3-1.3,7.1,0.6,9.9c1.7,2.6,5.2,3.3,7.8,1.6c0.2-0.1,0.3-0.2,0.5-0.4c3.6-3.1,2.6-11.6,0.9-15.5
		c-0.1-0.3-2.3-4.1-2.9-5c2.9,1.5,5.7,3,8.4,4.6c3.7,2.1,7.3,4.5,10.7,7.1c-0.2,0.2-5.6,6.2-6.7,9.7c-0.9,3-1.3,7.1,0.7,9.9
		c1.7,2.6,5.2,3.3,7.8,1.6c0.2-0.1,0.3-0.2,0.5-0.4c3.6-3.1,2.6-11.6,0.9-15.5c-0.1-0.3-2.5-4.4-3-5.1c0.2,0.1,0.4,0.3,0.6,0.4
		c3.3,2.7,6.4,5.7,9.2,8.9c1.6,1.8,3,3.6,4.3,5.3c-1.1,1-6.2,5.7-7.5,8.7s-2.1,6.9-0.4,9.9c1.4,2.8,4.8,3.8,7.6,2.4
		c0.2-0.1,0.4-0.2,0.5-0.3c3.9-2.7,3.8-11.3,2.6-15.3c-0.1-0.2-1-2.4-1.7-3.9c0.6,0.8,1.2,1.6,1.8,2.4c2.1,2.9,3.8,5.8,5.3,8.3
		c0.8,1.4,1.6,2.7,2.2,4c-0.6,1.6-2.8,7.9-2.6,11.1s1.4,7.1,4.2,9c2.5,1.8,6,1.2,7.8-1.4c0.1-0.2,0.2-0.3,0.3-0.5
		c2.2-4.2-1.8-11.8-4.8-14.8c-0.3-0.3-4.8-3.9-4.8-3.8v0.1c-0.6-1.2-1.3-2.5-2.1-3.9c-1.4-2.5-3.1-5.4-5.1-8.4
		c-2.1-3.3-4.4-6.4-6.9-9.4c-2.8-3.4-5.8-6.5-9.2-9.3l-0.1-0.1c1.3,0.5,4.9,1.9,5.2,2c4.1,1,12.7,0.6,15.2-3.5
		c1.6-2.7,0.7-6.1-2-7.7c-0.2-0.1-0.4-0.2-0.5-0.3C543.9,363.5,539.9,364.5,537.1,365.9z"/>
	<path class="st4" d="M483.4,431.1c-0.1,0,2,5.4,2.1,5.7c1.9,3.8,7.9,9.9,12.6,9.1c3-0.6,5-3.5,4.4-6.6c0-0.2-0.1-0.4-0.1-0.6
		c-0.9-3.2-4.3-5.6-7.2-6.7C491.8,430.6,483.5,431.1,483.4,431.1z"/>
	<path class="st4" d="M220,384c3.6,0.8,10.3,5.7,10.4,5.7s-4.6,3.4-4.9,3.6c-3.7,2.1-12.1,3.9-15.5,0.7c-2.2-2.2-2.2-5.7-0.1-7.9
		c0.1-0.1,0.3-0.3,0.4-0.4C212.7,383.4,216.9,383.4,220,384z"/>
	<path class="st4" d="M236.2,365.9c3.2,1.6,8,7.7,8.4,8.1c3.5-2.8,7.1-5.3,10.9-7.6c2.2-1.3,4.5-2.6,6.7-3.9
		c-1.1,0.4-2.1,0.8-2.3,0.8c-4.1,1-12.7,0.6-15.2-3.5c-1.6-2.7-0.7-6.1,2-7.7c0.2-0.1,0.4-0.2,0.6-0.3c3-1.5,7-0.4,9.8,1
		c2.8,1.4,7.1,6.5,8.2,7.9l2.6-1.4c4.2-2.3,8.5-4.5,12.5-6.8c1.4-0.8,2.8-1.7,4.2-2.5c-1,0.4-1.9,0.7-2,0.7
		c-4.1,1-12.7,0.6-15.2-3.5c-1.6-2.7-0.7-6.1,2-7.7c0.2-0.1,0.4-0.2,0.6-0.3c3-1.5,7-0.4,9.8,1s6.7,6,8,7.6c1.4-0.9,2.8-1.8,4.1-2.8
		c0.9-0.7,1.8-1.3,2.6-2l2.5-2.1c1.6-1.4,3.2-2.8,4.7-4.2c1-1,2-1.9,3-2.8c-1.4,0.8-4.2,2.4-4.5,2.5c-3.9,1.6-12.4,2.5-15.5-1.1
		c-2-2.4-1.6-5.9,0.8-7.9c0.2-0.1,0.3-0.3,0.5-0.4c2.8-1.9,6.9-1.5,9.9-0.5c3.3,1.1,8.8,6.1,9.5,6.7c1.6-1.5,3.2-3.1,4.7-4.5
		c1.1-1.1,2.1-2.1,3.1-3.1l2.4,1.7c-1.1,1.1-2.3,2.2-3.5,3.4c-1.6,1.6-3.5,3.2-5.3,4.9c1.3,2,2.5,4.1,3.5,6.2
		c3.5-0.8,10.4,0.3,11.2,0.5c0.5-2.2,1-4.3,1.4-6.4c0.2-1.1,0.4-2.1,0.6-3.1l2.5,1.8c-0.1,0.6-0.3,1.3-0.4,1.9
		c-0.5,2.2-1.1,4.6-1.7,7c0.8,0.4,7.7,3.4,10,6c2.1,2.4,4.2,5.9,3.5,9.2c-0.5,3.1-3.3,5.2-6.4,4.7c-0.2,0-0.4-0.1-0.6-0.1
		c-4.5-1.4-7.2-9.5-7.3-13.7c0-0.3,0.2-3,0.4-4.7c-0.3,1-0.5,2-0.8,3c-0.5,2-1.1,4-1.8,6.1l-1,3.1c-0.3,1-0.8,2.1-1.2,3.2
		c-1,2.5-2.1,4.9-3.3,7.3c1.8,0.5,8,2.3,10.5,4.3s5,5.2,4.9,8.6c0,3.1-2.5,5.6-5.6,5.6c-0.2,0-0.4,0-0.6,0
		c-4.7-0.7-8.6-8.3-9.3-12.5c0-0.3-0.2-3.3-0.3-5c-0.7,1.5-1.4,2.9-2.2,4.4c-2.2,4.2-4.6,8.3-7,12.5c-0.7,1.3-1.4,2.5-2.1,3.8
		c0.6,0.2,8.1,2.1,10.8,4.4c2.5,2,5,5.2,4.9,8.6c0,3.1-2.5,5.6-5.6,5.6c-0.2,0-0.4,0-0.6,0c-4.7-0.6-8.6-8.3-9.3-12.5
		c0-0.3-0.3-4.7-0.3-5.8c-1.6,2.8-3.1,5.6-4.5,8.5c-1.9,3.8-3.6,7.8-5,11.8c0.3,0.1,8.1,2.1,10.9,4.4c2.5,2,5,5.2,4.9,8.6
		c0,3.1-2.5,5.6-5.6,5.6c-0.2,0-0.4,0-0.6,0c-4.7-0.7-8.6-8.3-9.3-12.5c-0.1-0.3-0.3-5-0.3-5.9c-0.1,0.2-0.2,0.5-0.3,0.7
		c-1.3,4.1-2.2,8.3-2.8,12.6c-0.3,2.3-0.5,4.6-0.6,6.8c1.5,0.2,8.3,1.3,11,3.1s5.6,4.6,5.8,8c0.3,3.1-1.9,5.8-5,6.2
		c-0.2,0-0.4,0-0.6,0c-4.8-0.1-9.4-7.3-10.6-11.4c-0.1-0.2-0.5-2.5-0.7-4.2c0,1-0.1,2-0.1,3c-0.1,3.6,0,6.9,0.2,9.8
		c0.1,1.7,0.2,3.1,0.3,4.5c1.4,1,6.7,5,8.3,7.8s2.8,6.7,1.5,9.8c-1.1,2.9-4.4,4.3-7.3,3.2c-0.2-0.1-0.4-0.2-0.6-0.3
		c-4.1-2.3-5-10.8-4.2-15c0.1-0.4,1.8-5.9,1.9-5.8l0.1,0.1c-0.1-1.4-0.3-2.8-0.4-4.4c-0.2-2.9-0.4-6.2-0.4-9.8
		c0-3.9,0.2-7.8,0.6-11.6c0.5-4.3,1.4-8.6,2.6-12.7c0,0,0-0.1,0-0.1c-0.8,1.1-3.1,4.3-3.3,4.5c-2.9,3.1-10.2,7.5-14.5,5.5
		c-2.8-1.4-3.9-4.7-2.6-7.5c0.1-0.2,0.2-0.4,0.3-0.5c1.7-2.9,5.6-4.2,8.8-4.6c3.5-0.4,10.9,2,11.5,2.2c1.3-4.2,3-8.3,4.9-12.3
		c1.1-2.3,2.3-4.6,3.5-7c-0.7,1-1.4,1.8-1.5,1.9c-2.9,3.1-10.2,7.5-14.6,5.5c-2.8-1.4-3.9-4.8-2.5-7.6c0.1-0.2,0.2-0.3,0.2-0.4
		c1.7-2.9,5.6-4.2,8.8-4.6s9.5,1.5,11.2,2.1c0.5-0.9,0.9-1.8,1.4-2.6c2.3-4.2,4.6-8.4,6.7-12.6c0.8-1.5,1.4-3,2.1-4.4
		c-0.6,0.9-1.2,1.6-1.3,1.7c-2.9,3.1-10.2,7.5-14.5,5.5c-2.8-1.4-3.9-4.7-2.6-7.5c0.1-0.2,0.2-0.4,0.3-0.5c1.7-2.9,5.6-4.2,8.8-4.6
		s8.9,1.4,10.9,2c0.7-1.5,1.3-3.1,1.9-4.6c0.4-1,0.8-2,1.1-3.1s0.6-2.1,1-3.1c0.5-2,1.1-4.1,1.6-6.1c0.4-1.4,0.6-2.7,1-4
		c-0.7,1.5-2.2,4.4-2.4,4.6c-2.2,3-5.1,5.4-8.5,7c-0.2,0.4-0.5,0.7-0.8,1c-2.1,2.3-5.6,2.5-7.9,0.4c-0.1-0.1-0.3-0.3-0.4-0.4
		c-3-3.6-0.8-11.9,1.5-15.5c0.1-0.2,1.8-2.3,2.9-3.7l-2.3,2c-1.6,1.4-3.2,2.7-4.9,4.1l-2.6,2c-0.9,0.7-1.8,1.3-2.8,2
		c-2.2,1.5-4.4,2.9-6.8,4.3c1.2,1.4,5.4,6.3,6.4,9.3s1.3,7.1-0.6,9.9c-1.7,2.6-5.2,3.3-7.8,1.6c-0.2-0.1-0.3-0.2-0.5-0.4
		c-3.6-3.1-2.6-11.6-0.9-15.5c0.1-0.2,1.6-2.9,2.5-4.3c-1.4,0.8-2.8,1.6-4.2,2.4c-4.2,2.3-8.5,4.4-12.7,6.6c-1.3,0.7-2.6,1.3-3.9,2
		c0.4,0.5,5.6,6.2,6.6,9.6c0.9,3,1.3,7.1-0.6,9.9c-1.7,2.6-5.2,3.3-7.8,1.6c-0.2-0.1-0.3-0.2-0.5-0.4c-3.6-3.1-2.6-11.6-0.9-15.5
		c0.1-0.3,2.3-4.1,2.9-5c-2.9,1.5-5.7,3-8.5,4.6c-3.7,2.1-7.3,4.5-10.7,7.1c0.2,0.2,5.6,6.2,6.7,9.7c0.9,3,1.3,7.1-0.6,9.9
		c-1.7,2.6-5.2,3.3-7.8,1.6c-0.2-0.1-0.3-0.2-0.5-0.4c-3.6-3.1-2.6-11.6-0.9-15.5c0.1-0.3,2.5-4.4,3-5.1c-0.2,0.1-0.4,0.3-0.6,0.4
		c-3.3,2.7-6.4,5.7-9.2,8.9c-1.6,1.8-3,3.6-4.3,5.3c1.1,1,6.2,5.7,7.5,8.7s2.1,6.9,0.4,9.9c-1.4,2.8-4.8,3.8-7.6,2.4
		c-0.2-0.1-0.4-0.2-0.5-0.3c-3.9-2.7-3.8-11.3-2.6-15.3c0.1-0.2,1-2.4,1.7-3.9c-0.6,0.8-1.2,1.6-1.8,2.4c-2.1,2.9-3.8,5.8-5.3,8.3
		c-0.8,1.4-1.6,2.7-2.2,4c0.6,1.6,2.8,7.9,2.6,11.1s-1.4,7.1-4.2,9c-2.5,1.8-6,1.2-7.8-1.4c-0.1-0.2-0.2-0.3-0.3-0.5
		c-2.2-4.2,1.8-11.8,4.8-14.8c0.3-0.3,4.8-3.9,4.8-3.8v0.1c0.6-1.2,1.3-2.5,2.1-3.9c1.4-2.5,3.1-5.4,5.1-8.4
		c2.1-3.3,4.4-6.4,6.9-9.4c2.8-3.3,5.8-6.4,9.2-9.3l0.1-0.1c-1.3,0.5-4.9,1.9-5.2,2c-4.1,1-12.7,0.6-15.2-3.5
		c-1.6-2.7-0.7-6.1,2-7.7c0.2-0.1,0.4-0.2,0.5-0.3C229.4,363.5,233.4,364.5,236.2,365.9z"/>
	<path class="st4" d="M289.9,431.1c0.1,0-2,5.4-2.1,5.7c-1.9,3.8-7.9,9.9-12.6,9.1c-3-0.6-5-3.5-4.4-6.6c0-0.2,0.1-0.4,0.1-0.6
		c0.9-3.2,4.3-5.6,7.2-6.7C281.5,430.6,289.9,431.1,289.9,431.1z"/>
</g>
<g id="freepik--speech-bubble-2--inject-162">
	<path class="st5" d="M659.9,123.2c-10-12.3-8.1-30.3,4.1-40.3c12.3-10,30.3-8.1,40.3,4.1c10,12.3,8.1,30.3-4.1,40.3
		c-10,8.1-24.1,8.6-34.6,1.1l-12.8,6.2L659.9,123.2z"/>
	<rect x="663.7" y="100.1" class="st4" width="7.3" height="10.6"/>
	<polygon class="st4" points="669.5,110.8 681.7,119.6 681.7,91.3 669.5,100.1 	"/>
	<path class="st3" d="M692.4,94c5.9,5.1,6.6,14.1,1.5,20c-0.7,0.9-1.6,1.6-2.5,2.3"/>
	<path class="st3" d="M685.9,98.1c3.7,1.6,5.4,5.8,3.8,9.5c-0.7,1.7-2.1,3.1-3.8,3.8"/>
</g>
<g id="freepik--speech-bubble-1--inject-162">
	<path class="st5" d="M152.6,124.3c9.9-12.2,8.1-30.2-4.2-40.2s-30.2-8.1-40.2,4.2s-8.1,30.2,4.2,40.2c10,8.1,24.1,8.5,34.5,1.1
		l12.8,6.2L152.6,124.3z"/>
	<path class="st4" d="M130.4,113L130.4,113c-3,0-5.5-2.5-5.5-5.5V90.2c0-3,2.5-5.5,5.5-5.5l0,0c3,0,5.5,2.4,5.5,5.5l0,0v17.4
		C135.9,110.6,133.4,113,130.4,113z"/>
	<path class="st4" d="M130.5,117c-5.3,0-9.7-4.3-9.7-9.7v-8.2c0-0.6,0.4-1,1-1s1,0.4,1,1v8.1c-0.2,4.2,3.2,7.8,7.4,8s7.8-3.2,8-7.4
		c0-0.2,0-0.4,0-0.6v-8.1c0-0.6,0.4-1,1-1s1,0.4,1,1v8.1C140.2,112.6,135.8,117,130.5,117C130.5,117,130.5,117,130.5,117z"/>
	<path class="st4" d="M130.5,127.4c-0.6,0-1-0.4-1-1V116c0-0.6,0.4-1,1-1s1,0.4,1,1v10.4C131.4,127,131,127.4,130.5,127.4z"/>
	<path class="st4" d="M137.1,127.9h-13.3c-0.6,0-1-0.4-1-1s0.4-1,1-1h13.4c0.6,0,1,0.4,1,1S137.7,127.9,137.1,127.9L137.1,127.9z"/>
</g>
<g id="freepik--character-2--inject-162">
	<path class="st5" d="M596.4,169.3l5.2-4c0,0,0.4-9.4,1.3-10.6s5.3-5.7,6-7.3s6,0.1,7.2,0.1s3-0.9,2.9,0s-0.7,2.6-2,3.1
		s-4.6-0.3-4.6-0.3l-0.6,5.6c0,0,12.2-3.1,10.5,0.6s-4.6,10.3-6.6,12.3s-10.2,3.4-10.2,3.4l-6.9,7.6L596.4,169.3z"/>
	<path class="st5" d="M625.5,149.3c0,0,3.3-0.1,3.3,1.1s-1.4,2.4-3.3,3.3s-3.2,0.4-3.2,0S625.5,149.3,625.5,149.3z"/>
	<path class="st5" d="M625.5,153.7c1,1.1,1.1,2.7,0.2,3.9c-1.6,2.1-7.7,1.6-7.7,1.6l4.4-5.4C623.3,154.2,624.5,154.2,625.5,153.7z"
		/>
	<path class="st5" d="M624.8,159c0,0-1,2.9-2.2,3.4s-6.4-0.6-6.4-0.6l1.7-2.7C617.9,159.1,624.1,159.2,624.8,159z"/>
	<path class="st5" d="M622.6,162.5c-0.6,1.2-1.5,2.3-2.4,3.3c-1,0.7-4.4,0.7-5.2,0.4s-0.4-2.3,0.6-2.7c1.6-0.3,3.3-0.5,5-0.6
		L622.6,162.5z"/>
	<path class="st6" d="M629.5,135l-18,22.5c-0.2,0.2-0.3,0.5-0.2,0.8l0.5,5.2c0.1,0.6,0.6,1.1,1.2,1c0.3,0,0.5-0.2,0.7-0.4l20.8-22.7
		c0.3-0.4,0.4-0.9,0.1-1.4l-3.4-5c-0.3-0.5-1-0.6-1.5-0.3C629.7,134.8,629.6,134.9,629.5,135z"/>
	<path class="st2" d="M610.9,158.2c0,0-1.9,4.7-4.2,5.7"/>
	<polygon class="st7" points="585.3,173.8 597.4,167.8 600.4,181.2 585.1,193.8 	"/>
	<path class="st7" d="M591,123.9l6.1,6.5l-0.4,6.6l-3.7-3.8l-6.3,4.3l2.3,68.9l-19,2.1l11.3-84.7C581.3,123.9,582.8,118,591,123.9z"
		/>
	<path class="st5" d="M584,131.7c0.3,8.6,0,17.3-1,25.9c-1.6,12.6-5.4,42.4-5.3,44.2s0.3,4.7-0.4,5.6s-10.3,1.3-10.3,1.3
		s8.3-56.5,9.6-66s1.4-15.9,3.1-15.7S584,131.7,584,131.7z"/>
	<path class="st5" d="M633.3,96.4c0,0-5.4,7.4-6.8,9.2s-5.2,3-5.7,4.3s-1.8,6.3-2.3,7.7s-6.3-0.4-6.3-0.4s-9.5,6.3-11.3,6.6
		s-6.5-4.7-6.5-4.7l-6.4,10.4l-15.4-20.8l9.7-11.1c0,0-1.6-14.7-0.5-22.1s10.8-15.3,20.1-18.8c7.2-2.8,19.6,4.9,25,8.7
		c1.7,1.2,3.1,2.7,4.1,4.5c2.3,4.1,6.6,12,8,16C640.9,91.6,638.2,95.2,633.3,96.4z"/>
	<polygon class="st8" points="594.4,119.2 590.7,114.7 589.6,126.9 	"/>
	<path class="st2" d="M622.9,107.2c0,0,0.4-4.1-3.6-4.3"/>
	<path class="st4" d="M617.9,109.3c-1,0.7-2.1,1-2.3,0.6s0.3-1.3,1.3-2s2.1-1,2.3-0.6S618.9,108.6,617.9,109.3z"/>
	<path class="st2" d="M605.2,113.3c0.3,1.6,1.1,3.1,2.3,4.3"/>
	<path class="st6" d="M638.9,86c-1.4-4-5.7-11.9-8-16c-1-1.8-2.4-3.4-4.1-4.5c-5.4-3.7-17.8-11.4-25-8.7c-9.3,3.6-19,11.5-20.1,18.8
		s0.5,22.1,0.5,22.1c1.9,0.8,3.9,1.2,5.9,1.3c2.6-0.2,4.8-2,5.6-4.5c0.4-1.8,8.3-3.8,7.9-2.9c-0.3,1.4-0.7,2.7-1.3,4
		c-0.4,0.6-0.2,1.4,0.4,1.8c0.3,0.2,0.6,0.2,0.9,0.2c1.1-0.2,4.5-3.4,4.5-3.4s9.2,3,10.2,2.3s2.2-4.8,2.2-4.8s0.2,6.3,2.7,6.5
		c1.9,0,3.8-0.4,5.6-1.3c0,0-0.9,3.8,0.9,3.6s5.7-4,5.7-4C638.2,95.2,640.9,91.6,638.9,86z"/>
	<path class="st5" d="M600.3,96.4c0,0,0-9-2-9.1s-5.2,2.2-5.2,6.3c0,2.4,0.8,4.8,2.3,6.6"/>
	<path class="st5" d="M625.4,315l14.1,1.2c0,0,14-3.6,14.8-0.6s-3.8,5.8-7.6,9s-16.2,8.8-16.2,8.8s-10.4,5.6-14,6.4s-7.2-13-7.2-13
		L625.4,315z"/>
	<path class="st5" d="M654.3,315.5c-0.1-0.4-0.4-0.6-0.8-0.8c-2.5,3.8-13.2,12.3-20,14.6c-5.5,1.8-15.8,5.8-20.4,7.5
		c1,1.8,2.2,3.1,3.4,2.9c3.6-0.8,14-6.4,14-6.4s12.4-5.6,16.2-8.8S655.1,318.5,654.3,315.5z"/>
	<path class="st6" d="M563.7,239.9l24-0.4c0,0,13,69.6,14.8,72.8c0.8,1.6,1.9,3,3.2,4.2c0,0-2,2-1.4,3.8s4.4,5.2,5,6.4
		s11.8-5,11.8-5l4.3-6.8c0,0-1.4-8.2-2.2-8.8c-1-0.6-1.8-1.6-2.2-2.8c-0.2-1.2,0.8-3.2,0.2-4.8s-2.2-2.6-2.4-4s3.5-64.4,0.3-69.8
		s-16.6-4-16.6-4s-58.8,14-58.4,16.6S563.7,239.9,563.7,239.9z"/>
	<path class="st5" d="M601.2,305.4c0,0,2.5,2.5,4,3.8s11.9,7.4,12.1,8.5s-0.9,4.5-2.2,5.2s-14.3-0.7-17.3-1.1s-13.2-6.1-16.4-7.9
		s-6.8-5.2-6.8-6.3s9.4-16.6,9.4-16.6l17.7,11.9L601.2,305.4z"/>
	<path class="st5" d="M610.8,320.9c-5.2-0.7-14.3-1.3-19.5-4.7c-4-2.6-12.1-8.3-15.8-10.8c-0.4,0.7-0.8,1.4-1,2.1
		c0,1.1,3.6,4.5,6.8,6.3s13.4,7.6,16.4,7.9s16.1,1.8,17.3,1.1c0.5-0.4,0.9-0.9,1.2-1.4C615.3,321.4,613.6,321.3,610.8,320.9z"/>
	<path class="st6" d="M567.3,204.1c0,0,27.2-0.4,45,1.8s25.6,3.3,32.4,7.6c7.8,4.9-36.6,80.2-36.6,80.2l-3.8,4.8
		c0,0,0.8,2.4,0.2,2.8c-1.2,1.3-2.3,2.7-3.3,4.1l-17.3-12.3v-4.2l3.6-1.2c-0.6-1.4-0.3-3,0.7-4.2c1-1,2.2-2,3.4-2.7l15-44.9
		c0,0-32.5,3.4-42.9,4s-46.8,0-46.8,0s-5.4-1.4-5-11.2c0.4-9.8,3.8-18.2,10.6-21S567.3,204.1,567.3,204.1z"/>
	<path class="st9" d="M604,302.9c0,0,2.1-1.4,2.1-2.2s-0.7-2.4-0.3-3.4s13.2-21.5,13.2-21.5"/>
	<polyline class="st9" points="595.3,270.1 606.7,236.8 590.7,239.5 	"/>
	<line class="st9" x1="606.6" y1="235.9" x2="625.2" y2="231.7"/>
	<path class="st9" d="M614.4,236.3c0,0,10.2-0.4,15.2-3.2"/>
	<path class="st7" d="M583.1,130.9L570,208.6l-2.5,25.8c0,0-17.2,5.4-33,3.2s-20.1-5.7-20.1-5.7s13.5-56,13.5-56.5
		s7.5-33.7,10.6-40.7s30.7-26.2,30.7-26.2L583.1,130.9z"/>
	<polygon class="st5" points="574.3,103.3 592.3,130 583.8,135.2 569.1,108.5 	"/>
	<path class="st5" d="M504.5,227l-3.3,5c0,0-13.2,0.6-14.3,1.1s-5.7,6.2-5.7,6.7s15.2,0,15.2,0l5.3-1.4c0,0-3,1.5-2.4,1.7
		c1.6,0.1,3.3,0.1,4.9,0c0,0,6.6-2.1,7.6-3.2s2.8-7.3,2.8-7.3L504.5,227z"/>
	<path class="st2" d="M491.7,239.8c0,0,5.9-5.5,6.2-5.8c0.6-0.2,1.3-0.4,1.9-0.4"/>
	<path class="st2" d="M494.6,233.1c-0.8,0.2-1.6,0.5-2.4,1c-0.4,0.5-4.5,5.9-4.5,5.9"/>
	<path class="st2" d="M490.2,233.4c0,0-1.7,0.3-2.1,0.7s-3.9,5.7-3.9,5.7"/>
	<path class="st7" d="M551.4,129.4c0,0-35.7,34.6-36.4,37.3s-11.6,61-11.6,61c1.7,0.8,3.5,1.5,5.3,2c2.7,0.6,5.4,0.9,8.2,1.1
		l16.6-50.1c0,0,34.8-24.8,36.6-26.2s3.3-8.4,3.3-10.8"/>
</g>
<g id="freepik--character-1--inject-162">
	<path class="st6" d="M185.3,114c0,0-15.3,11.9-15.1,18.6c0.2,6.7,8.7,11.7,9.9,12.5s15.2,12.5,14.1,17.6s-12.9,4.2-14.9,10.3
		s1.8,8.7,7.3,10.1s15.6-4,18.4-3s9.7,5.6,15.2,8.3s9.3,3.4,15.8-2.8s3-12.1,3-12.1s11.7,4.2,14.7-5.9s-1.2-17-6.9-18.2
		c-2.9-0.7-5.8-1.1-8.7-1.2c0,0,0.4-14.9-3.6-20s-14.3-15.8-22.4-18.8S191.4,110,185.3,114z"/>
	<path class="st8" d="M138.6,229l-3.4-10.3l7.4-3C142.6,215.7,140.5,226.6,138.6,229z"/>
	<path class="st5" d="M178.5,374.7c0,0,4.8,3.8,4.6,6s-2.8,8.3-2,12.5s0,9.9-1.6,12.7s-3.2,4-3.8,3.4c-1.1-1.2-1.7-2.7-1.8-4.2
		c0-1.8,1.2-32.8,1.2-32.8L178.5,374.7z"/>
	<path class="st5" d="M156.5,407.9l1.2,16.1c0,0,0.6,1.6,5.4,1s10.8-6.4,10.8-6.4l-1.4-14.9C172.6,403.7,162,408.1,156.5,407.9z"/>
	<path class="st5" d="M162.6,420.8c0,0-4.6-8.3-7.2-7s-1.2,8.3-1.2,9.9s-6.2,12.9-8.9,15.3s-6.4,4-6.2,6s4.6,2.6,8,2.4
		s11.5-2.8,14.7-4.6s16.9-11.5,17.7-12.9s-0.2-6.6-1.6-8.3s-4.2-5.8-4.2-6.6s0-1.2-2,0.2s-4,3.6-4.8,4S162.6,420.8,162.6,420.8z"/>
	<path class="st7" d="M191.9,256.6l-1.4-3.8c0,0-30.4-7.1-44.1-15.1c0,0-19.5,19.9-28.4,32.8s-19.7,42.1-18.9,45.9
		s46.3,52.1,46.3,52.1s6,27.8,6.8,33.8s7.2,9.5,12.5,9.3s10.7-4.6,11.3-6.2s2.4-39.2,3.2-52.3c1.5-18.7,4.5-37.2,8.9-55.4
		C192.5,280.5,195,266.8,191.9,256.6z M144.9,329l-9.3-13.1l10.7-19.5L144.9,329z"/>
	<path class="st2" d="M146.3,296.4c0,0,1.4-26.8,2.8-32.8"/>
	<path class="st2" d="M144.9,329c0,0-0.2,25.4,0.6,39.5"/>
	<path class="st2" d="M135.6,315.9c0,0-4.8-4-8.5-4.6"/>
	<path class="st2" d="M164.8,256.2c0,0-2.6,17.3-4,27.2"/>
	<path class="st2" d="M167,270.2c0,0,0.4,16.9,0.2,17.7"/>
	<path class="st2" d="M145.7,245.7c0,0-9.1,11.1-13.3,17.7"/>
	<line class="st2" x1="147.9" y1="246.9" x2="141.6" y2="260"/>
	<path class="st10" d="M191.6,178.1c0,0-19.8,3.8-22,5.7s-27.5,23.4-27.5,23.4l-3.5,21.8l10.5-3.8c0,0-7.9,8.9-7.5,10.5
		s8.3,9.1,13.7,12.5s31.9,8.9,38.4,9.3s5.9-7.1,6.3-8.5s4.4-16.2,4.4-16.2l30.9-7.8c0,0-5.1-40.6-10.1-47.5s-10.7-5.6-15.3-4
		S191.6,178.1,191.6,178.1z"/>
	<line class="st2" x1="206.5" y1="188.4" x2="208.5" y2="227"/>
	<path class="st5" d="M180.5,134.9c0,0-1.2,9.3-1.2,15.1s3.2,14.9,6.5,18.4s4.8,3.8,7.1,3l-3.8,17.4c0,0,13.7-8.5,16.2-10.5
		c1.7-1.4,3.2-3,4.4-4.8l2.4-13.1c1.3-1.8,2.3-3.7,3.2-5.7c1-2.8,1.6-6.5-1-8.3s-4.6-3.4-11.7-11.3s-7.3-8.9-7.3-8.9L180.5,134.9z"
		/>
	<path class="st5" d="M210.4,150.4c0,0,4.2-8.3,6.7-4s1.4,7.7-0.4,9.9s-5.7,1.6-5.7,1.6"/>
	<polygon class="st6" points="193,171.4 199.9,168.4 191.6,178.1 	"/>
	<path class="st3" d="M187.9,142.3c0,0-1.6,5.6-2.6,7.7s-3.2,3-2,3.6c1.3,0.7,2.9,1,4.4,0.8"/>
	<path class="st3" d="M185.7,158.7c3.4,0.4,6.8-0.6,9.5-2.8c0,0-1.6,5.9-4.2,6.9S185.7,158.7,185.7,158.7z"/>
	<path class="st3" d="M193,136.9c0,0,2.4-1.8,5.9,1"/>
	<path class="st3" d="M187.5,137.3c-1.2-1.5-3.3-1.7-4.8-0.5c0,0-0.1,0.1-0.1,0.1"/>
	<path class="st4" d="M196.6,144.1c0,1.2-0.5,2.2-1.2,2.2s-1.2-1-1.2-2.2s0.5-2.2,1.2-2.2S196.6,142.8,196.6,144.1z"/>
	<path class="st4" d="M185.5,142.3c0,1.2-0.5,2.2-1.2,2.2s-1.2-1-1.2-2.2s0.5-2.2,1.2-2.2S185.5,141.1,185.5,142.3z"/>
	<line class="st2" x1="149.1" y1="225.2" x2="166.3" y2="195.7"/>
	<path class="st8" d="M145.6,154.1l14.6,29c0.4,0.7,1.1,1.1,1.9,1.1l12.2-0.6c1.1,0,2-1,1.9-2.1c0-0.3-0.1-0.5-0.2-0.7l-13.4-30.4
		c-0.4-0.8-1.2-1.3-2.1-1.2l-13.4,1.9c-1.1,0.1-1.9,1.2-1.7,2.2C145.4,153.6,145.5,153.9,145.6,154.1z"/>
	<path class="st5" d="M146.1,170.2c0,0,7.1,15.6,6.9,16.4s-29.5,25.3-29.7,27.9s1.8,10.3,4.8,11.5s7.1-1,8.3-2s22.2-30.3,23.4-31.7
		s1.4-5.4,1.4-5.4c2-2.3,4.2-4.4,6.5-6.3c3.2-2.4,2-3.8-0.2-2.8c-1.7,0.8-3.2,1.7-4.8,2.8c-1.4,1-1.6-1.5,3.3-5.2
		c4.3-3.2,3.4-4.6,3.6-5.1c0.6-1.4-1.8-0.4-1.8-0.4s0.6-1.9-0.2-2.3c-0.6-0.2-1.2-0.2-1.8,0.1l-10.5,5.5l-3.4-1.6
		c0,0,7.3-5.1,9.7-6.1s3.4-3.8,1-3.2S147.7,168,146.1,170.2z"/>
	<path class="st2" d="M167.9,170c0,0-10.3,6.5-11.1,7.7c-0.5,1.1-0.8,2.3-0.8,3.6"/>
	<path class="st2" d="M155.4,173.4c0,0-3.4,1.6-3.6,3"/>
	<path class="st5" d="M234.4,220.3c0,0-62.6,11.7-63.8,13.1s-8.6,23.7-8.4,25.6s4.6,8.3,5.6,9.3s3.2,1.4,4.6,1.8s6.6-1.2,5.8-2.8
		s-4-1.2-4-1.2l-2-4.8c1.1-2.6,1.7-5.4,1.8-8.3c0-4,1-12.7,1-12.7h59.1c0,0,2.6-0.8,2.8-2.2S234.4,220.3,234.4,220.3z"/>
	<path class="st2" d="M168.2,260.6c0,0,2.2,6,2.6,6.9s1.6,2.6,1.6,2.6"/>
	<line class="st2" x1="165" y1="261.2" x2="167.8" y2="268.2"/>
</g>
<g id="freepik--audio-file--inject-162">
	<path class="st6" d="M195.4,245.3h375.5c4.8,0,8.7,3.9,8.7,8.7v119.6c0,4.8-3.9,8.7-8.7,8.7H195.4c-4.8,0-8.7-3.9-8.7-8.7V254
		C186.7,249.2,190.6,245.3,195.4,245.3z"/>
	<path class="st5" d="M201.6,240.1h375.5c4.8,0,8.7,3.9,8.7,8.7v119.6c0,4.8-3.9,8.7-8.7,8.7H201.6c-4.8,0-8.7-3.9-8.7-8.7V248.8
		C192.9,244,196.8,240.1,201.6,240.1z"/>
	<path class="st11" d="M197.8,313.8c0-0.6,169-1.1,377.8-1.1"/>
</g>
<line class="st12" x1="202.7" y1="278.5" x2="408.5" y2="278.5"/>
<line class="st12" x1="253.5" y1="290.5" x2="576" y2="290.5"/>
<line class="st12" x1="202.7" y1="299.4" x2="576" y2="299.4"/>
<line class="st12" x1="202.7" y1="308.4" x2="576" y2="308.4"/>
<line class="st12" x1="202.7" y1="317.3" x2="576" y2="317.3"/>
<line class="st12" x1="202.7" y1="326.2" x2="576" y2="326.2"/>
<line class="st12" x1="202.7" y1="335.2" x2="576" y2="335.2"/>
<line class="st12" x1="202.7" y1="344.1" x2="376" y2="344.1"/>
</svg>
